<svg xmlns="http://www.w3.org/2000/svg" width="335.927" height="335.823" viewBox="0 0 335.92749 335.82252" id="svg2"><defs id="defs4"><clipPath id="clipPath3350"><path id="path3352" d="M0 0h43.92v32.88H0V0z"/></clipPath><clipPath id="clipPath3362"><path id="path3364" d="M0 32.88h43.926V0H0v32.88z"/></clipPath><clipPath id="clipPath3409"><path id="path3411" d="M0 261.602h408.801V0H0v261.602z"/></clipPath><clipPath id="clipPath3462"><path id="path3464" d="M0 267.059h267.062V0H0v267.059z"/></clipPath><clipPath id="clipPath4291"><path id="path4293" d="M0 0h265.92v268.799H0V0z"/></clipPath><clipPath id="clipPath4349"><path id="path4351" d="M0 267.059h267.062V0H0v267.059z"/></clipPath></defs><g id="layer1" transform="translate(-1125.529 -1083.68)"><g transform="matrix(1.25 0 0 -1.25 2.939 313.78)" id="g3344"><g transform="translate(898.952 -883.778)" id="g4343" fill="#18b5fa"><g id="g4345"><g clip-path="url(#clipPath4349)" id="g4347"><g transform="translate(132.145 80.363)" id="g4353"><path id="path4355" d="M0 0c11.195.473 15.425 8.914 17.945 13.969.359.722.832 1.664 1.254 2.41.894-.965 2.078-2.664 2.863-3.793C25.55 7.57 30.82.004 41.113.004c10.957 0 15.031 8.684 17.222 13.359.645 1.387 1.625 3.473 2.02 3.813 6.156.324 15.543-4.731 18.25-6.477 3.562-2.32 8.344-1.316 10.66 2.266 2.32 3.562 1.309 8.344-2.265 10.664-1.477.961-14.981 9.367-27.153 8.957-9.68-.324-13.305-8.063-15.476-12.688-2.098-4.472-2.461-4.472-3.254-4.472-1.907 0-3.274 1.484-6.387 5.961-3.141 4.531-7.449 10.722-15.473 11.031-9.129.262-12.875-7.102-15.097-11.543-2.426-4.844-3.11-5.387-4.793-5.461h-.106c-.34.844-.715 2.391-.953 3.395C-2.676 22.984-5 32.746-15.61 32.938h-.312c-8.461 0-13.137-6.028-16.559-10.434-2.883-3.707-4.34-5.332-6.226-5.363-.848-.188-1.864.957-4.239 5.004-2.801 4.785-7.039 12.011-16.367 12.179-.137.004-.285.004-.426.004-12.945 0-24.379-10.75-25.648-11.984a7.705 7.705 0 0 1-.16-10.903 7.71 7.71 0 0 1 10.906-.16c2.578 2.508 9.566 7.621 15.008 7.621h.156c.762-.363 2.305-2.984 3.227-4.562 2.769-4.731 7.394-12.621 17.476-12.621h.297c9.5.136 14.719 6.879 18.18 11.324.988 1.277 2.226 2.863 3.214 3.766.133-.543.274-1.106.379-1.571C-15.606 10.633-13.083-.016-.899-.016c.297.004.59.004.899.016m-30.747 103.695c-8.523 0-15.433-6.902-15.433-15.433 0-8.52 6.91-15.434 15.433-15.434 8.528 0 15.438 6.914 15.438 15.434 0 8.531-6.91 15.433-15.438 15.433m64.266 0c-8.527 0-15.434-6.902-15.434-15.433 0-8.52 6.911-15.434 15.434-15.434s15.434 6.914 15.434 15.434c0 8.531-6.911 15.433-15.434 15.433M1.382 176.414c-67.957 0-123.246-55.289-123.246-123.254 0-67.953 55.289-123.246 123.246-123.246 67.961 0 123.254 55.293 123.254 123.246 0 67.965-55.285 123.254-123.254 123.254m0-256.777c-73.625 0-133.527 59.898-133.527 133.527 0 73.633 59.902 133.531 133.527 133.531 73.637 0 133.535-59.902 133.535-133.535 0-73.629-59.898-133.523-133.535-133.523"/></g></g></g></g></g></g></svg>