<svg xmlns="http://www.w3.org/2000/svg" width="334.399" height="213.656" viewBox="0 0 313.49874 200.30249" id="svg2"><defs id="defs4"><clipPath id="clipPath4150"><path id="path4152" d="M0 0h26.88v21.839H0V0z"/></clipPath><clipPath id="clipPath4150-6"><path id="path4152-0" d="M0 0h26.88v21.839H0V0z"/></clipPath><clipPath id="clipPath4231"><path id="path4233" d="M0 47.211h32.785V0H0v47.211z"/></clipPath><clipPath id="clipPath4260"><path id="path4262" d="M0 0h39.839v39.839H0V0z"/></clipPath><clipPath id="clipPath4289"><path id="path4291" d="M0 0h43.92v32.88H0V0z"/></clipPath><clipPath id="clipPath4301"><path id="path4303" d="M0 32.88h43.926V0H0v32.88z"/></clipPath><clipPath id="clipPath4348"><path id="path4350" d="M0 0h250.799v161.76H0V0z"/></clipPath></defs><g id="layer1" transform="translate(-281.053 -357.66)"><g transform="rotate(180 185.524 195.47) scale(1.25)" id="g4144"><g transform="matrix(-1 0 0 1 71.995 -134.58)" id="g4342"><g id="g4344"><g clip-path="url(#clipPath4348)" id="g4346"><path id="path4352" d="M160.27 126.931h27.395V35.239H160.27v91.692zm-41.571 0h27.391v-91.7h-27.391v91.7zm-41.562 0h27.39V35.239h-27.39v91.692zm-41.575 0h27.391V35.239H35.562v91.692zm172.668 34.273H15.426C6.906 161.204 0 154.298 0 145.778V16.384C0 7.876 6.906.962 15.426.962H208.23c8.508 0 15.426 6.914 15.426 15.422v21.211h11.789c8.508 0 15.422 6.91 15.422 15.421v56.133c0 8.512-6.914 15.422-15.422 15.422h-11.789v21.207c-.004 8.528-6.914 15.426-15.426 15.426m0-10.281a5.149 5.149 0 0 0 5.141-5.145V114.29h22.074a5.149 5.149 0 0 0 5.141-5.145V53.016a5.145 5.145 0 0 0-5.141-5.14h-22.074V16.384a5.145 5.145 0 0 0-5.141-5.141H15.426a5.141 5.141 0 0 0-5.145 5.141v129.394a5.144 5.144 0 0 0 5.145 5.145H208.23"/></g></g></g></g></g></svg>