<svg xmlns:osb="http://www.openswatchbook.org/uri/2009/osb" xmlns="http://www.w3.org/2000/svg" width="457.94" height="325.539" viewBox="0 0 457.93963 325.53937" id="svg2"><defs id="defs4"><linearGradient id="linearGradient6005" osb:paint="solid"><stop offset="0" id="stop6007" stop-color="#1e0f00"/></linearGradient><clipPath id="clipPath3350"><path id="path3352" d="M0 0h43.92v32.88H0V0z"/></clipPath><clipPath id="clipPath3362"><path id="path3364" d="M0 32.88h43.926V0H0v32.88z"/></clipPath><clipPath id="clipPath3409"><path id="path3411" d="M0 261.602h408.801V0H0v261.602z"/></clipPath><clipPath id="clipPath3462"><path id="path3464" d="M0 267.059h267.062V0H0v267.059z"/></clipPath><clipPath id="clipPath4291"><path id="path4293" d="M0 0h265.92v268.799H0V0z"/></clipPath><clipPath id="clipPath4349"><path id="path4351" d="M0 267.059h267.062V0H0v267.059z"/></clipPath><clipPath id="clipPath4378"><path id="path4380" d="M0 447.57h447.461V0H0v447.57z"/></clipPath><clipPath id="clipPath4425"><path id="path4427" d="M0 48h48V0H0v48z"/></clipPath><clipPath id="clipPath4445"><path id="path4447" d="M0 0h48v48H0V0z"/></clipPath><clipPath id="clipPath4469"><path id="path4471" d="M0 48h48V0H0v48z"/></clipPath><clipPath id="clipPath4520"><path id="path4522" d="M0 0h46.8v47.759H0V0z"/></clipPath><clipPath id="clipPath4536"><path id="path4538" d="M0 47.76h46.8V0H0v47.76z"/></clipPath><clipPath id="clipPath6025"><path id="path6027" d="M0 44h48V0H0v44z"/></clipPath><clipPath id="clipPath6118"><path id="path6120" d="M0 258.832h364.672V0H0v258.832z"/></clipPath></defs><g id="layer1" transform="translate(-2691.012 -1871.443)"><g transform="matrix(1.25 0 0 -1.25 2.939 313.78)" id="g3344"><g transform="translate(2151.339 -1505.762)" id="g6112" fill="#fff"><g id="g6114"><g clip-path="url(#clipPath6118)" id="g6116"><g transform="translate(363.973 183.214)" id="g6122"><path id="path6124" d="M0 0a3.95 3.95 0 0 1-.473.579c-48.394 48.386-112.73 75.039-181.164 75.039-68.429 0-132.761-26.645-181.152-75.032a3.998 3.998 0 0 1-.012-5.668l26.492-26.492a4 4 0 0 1 5.656 0c39.868 39.871 92.789 61.828 149.016 61.828 56.227 0 109.145-21.957 149.016-61.828a3.996 3.996 0 0 1 5.656 0L-.473-5.082A3.998 3.998 0 0 1 0 0"/></g><g transform="translate(182.336 188.773)" id="g6126"><path id="path6128" d="M0 0c-49.645 0-96.371-19.383-131.566-54.582a3.997 3.997 0 0 1 0-5.656l26.406-26.407a3.996 3.996 0 0 1 2.828-1.171 3.99 3.99 0 0 1 2.828 1.171C-72.879-60.023-37.543-45.363 0-45.363c37.543 0 72.883-14.66 99.5-41.282a3.991 3.991 0 0 1 2.828-1.171c1.063 0 2.078.421 2.828 1.171l26.41 26.407a3.996 3.996 0 0 1 0 5.656C96.367-19.383 49.645 0 0 0"/></g><g transform="translate(182.336 118.718)" id="g6130"><path id="path6132" d="M0 0c-30.961 0-60.102-12.09-82.051-34.043a3.98 3.98 0 0 1-1.172-2.828c0-1.062.418-2.077 1.172-2.827l26.406-26.41a4.01 4.01 0 0 1 5.657 0C-36.613-52.729-18.859-45.367 0-45.367c18.859 0 36.613-7.366 49.988-20.741a3.994 3.994 0 0 1 2.828-1.168c1.059 0 2.079.422 2.829 1.168l26.406 26.41a3.998 3.998 0 0 1 0 5.655C60.102-12.09 30.961 0 0 0"/></g><g transform="translate(182.336 44.484)" id="g6134"><path id="path6136" d="M0 0c-10.816 0-20.984-4.211-28.629-11.859a4.002 4.002 0 0 1 0-5.658l25.801-25.799a4.012 4.012 0 0 1 5.656 0l25.797 25.799a4.002 4.002 0 0 1 0 5.658C20.98-4.211 10.816 0 0 0"/></g></g></g></g></g></g></svg>