<svg xmlns="http://www.w3.org/2000/svg" id="svg2" viewBox="0 0 513.10077 329.00251" height="329.002" width="513.101"><defs id="defs4"><clipPath id="clipPath3350"><path d="M0 0h43.92v32.88H0V0z" id="path3352"/></clipPath><clipPath id="clipPath3362"><path d="M0 32.88h43.926V0H0v32.88z" id="path3364"/></clipPath><clipPath id="clipPath3409"><path d="M0 261.602h408.801V0H0v261.602z" id="path3411"/></clipPath></defs><g transform="translate(-2.957 -721.932)" id="layer1"><g id="g3344" transform="matrix(1.25 0 0 -1.25 2.939 313.78)"><g id="g3403" transform="translate(.894 -588.923)"><g id="g3405"><g id="g3407" clip-path="url(#clipPath3409)"><g id="g3413" transform="translate(319.602 12)"><path d="M0 0c-42.57 0-77.203 34.633-77.203 77.203 0 42.567 34.633 77.199 77.203 77.199 21.383 0 40.762-8.741 54.758-22.84l4.18-4.562c11.386-13.453 18.261-30.836 18.261-49.797C77.199 34.633 42.566 0 0 0m-58.82 156.128a6.003 6.003 0 0 1 1.343 6.595 6.023 6.023 0 0 1-5.625 3.692l-.941-.013h-13.16v26c0 17.864 14.535 32.398 32.402 32.398a32.24 32.24 0 0 0 22.289-8.883l.028-.031 49.023-53.514A88.99 88.99 0 0 1 0 166.402c-32.215 0-60.496-17.168-76.176-42.836 2.25 12.312 8.211 23.605 17.356 32.562M-89.203 96h-52.001v16.402c0 15.269-4.625 29.789-13.217 42h78.441c-8.598-12.211-13.223-26.731-13.223-42V96zm-141.199 70.402a88.98 88.98 0 0 1-26.539-4.03l49.024 53.514.026.031c6.043 5.731 13.946 8.883 22.289 8.883 17.868 0 32.398-14.534 32.398-32.398v-26h-13.198a4.54 4.54 0 0 1-.407-.016 5.977 5.977 0 0 1-4.862-1.773 5.997 5.997 0 0 1 .089-8.485c9.145-8.957 15.102-20.25 17.355-32.558-15.68 25.664-43.96 42.832-76.175 42.832m0-166.402c-42.567 0-77.2 34.633-77.2 77.203 0 18.961 6.875 36.344 18.258 49.797l4.183 4.562c13.994 14.099 33.375 22.84 54.759 22.84 42.57 0 77.198-34.632 77.198-77.199 0-42.57-34.628-77.203-77.198-77.203m77.198 224.402v-1.688c-5.543 5.922-12.683 10.326-20.73 12.52a13.191 13.191 0 0 0 7.532 2.368c7.277 0 13.198-5.922 13.198-13.2m76.001 0c0 7.278 5.922 13.2 13.203 13.2a13.19 13.19 0 0 0 7.531-2.368c-8.047-2.194-15.187-6.598-20.734-12.52v1.688zM68.98 133.687c-.167.25-.347.497-.558.724l-.574.629a94.074 94.074 0 0 1-4.239 4.627l-76.953 84.004a5.55 5.55 0 0 1-.527.582 44.145 44.145 0 0 1-28.149 12.454c-4.398 7.852-12.769 12.895-21.98 12.895-13.898 0-25.203-11.306-25.203-25.2v-58h-52.001v58c0 13.894-11.304 25.2-25.198 25.2-9.212 0-17.582-5.047-21.985-12.895-10.578-.657-20.485-5.012-28.149-12.454a6.121 6.121 0 0 1-.523-.582l-76.953-84.004a93.131 93.131 0 0 1-4.241-4.627l-.576-.629a6.207 6.207 0 0 1-.558-.724c-12.625-15.39-20.215-35.07-20.215-56.484 0-49.187 40.017-89.203 89.2-89.203 49.187 0 89.198 40.016 89.198 89.203 0 2.285-.086 4.555-.256 6.797h52.515a91.01 91.01 0 0 1-.258-6.797C-89.203 28.016-49.188-12-.004-12c49.188 0 89.203 40.016 89.203 89.203 0 21.414-7.59 41.094-20.219 56.484" id="path3415" fill="#686460"/></g><g id="g3417" transform="translate(89.2 37.602)"><path d="M0 0c-28.453 0-51.597 23.148-51.597 51.602 0 28.449 23.144 51.597 51.597 51.597 28.453 0 51.602-23.148 51.602-51.597C51.602 23.148 28.453 0 0 0m0 115.199c-35.066 0-63.597-28.531-63.597-63.597C-63.597 16.531-35.066-12 0-12c35.071 0 63.602 28.531 63.602 63.602 0 35.066-28.531 63.597-63.602 63.597" id="path3419" fill="#686460"/></g><g id="g3421" transform="translate(319.602 37.602)"><path d="M0 0c-28.453 0-51.602 23.148-51.602 51.602 0 28.449 23.149 51.597 51.602 51.597 28.449 0 51.598-23.148 51.598-51.597C51.598 23.148 28.449 0 0 0m0 115.199c-35.07 0-63.602-28.531-63.602-63.597C-63.602 16.531-35.07-12 0-12c35.066 0 63.598 28.531 63.598 63.602 0 35.066-28.532 63.597-63.598 63.597" id="path3423" fill="#686460"/></g><g id="g3425" transform="translate(319.602 127.203)"><path d="M0 0a6 6 0 0 1-6-6c0-3.316 2.684-6 6-6 14.336 0 26-11.664 26-26 0-3.316 2.684-6 6-6 3.313 0 6 2.684 6 6C38-17.047 20.953 0 0 0" id="path3427" fill="#686460"/></g><g id="g3429" transform="translate(89.2 127.203)"><path d="M0 0c-3.313 0-6-2.688-6-6 0-3.316 2.687-6 6-6 14.336 0 26-11.664 26-26 0-3.316 2.687-6 6-6s6 2.684 6 6C38-17.047 20.953 0 0 0" id="path3431" fill="#686460"/></g></g></g></g></g></g></svg>