<svg xmlns:osb="http://www.openswatchbook.org/uri/2009/osb" xmlns="http://www.w3.org/2000/svg" width="60.093" height="60.153" viewBox="0 0 60.093498 60.153127" id="svg2"><defs id="defs4"><linearGradient id="linearGradient6005" osb:paint="solid"><stop offset="0" id="stop6007" stop-color="#1e0f00"/></linearGradient><clipPath id="clipPath3350"><path id="path3352" d="M0 0h43.92v32.88H0V0z"/></clipPath><clipPath id="clipPath3362"><path id="path3364" d="M0 32.88h43.926V0H0v32.88z"/></clipPath><clipPath id="clipPath3409"><path id="path3411" d="M0 261.602h408.801V0H0v261.602z"/></clipPath><clipPath id="clipPath3462"><path id="path3464" d="M0 267.059h267.062V0H0v267.059z"/></clipPath><clipPath id="clipPath4291"><path id="path4293" d="M0 0h265.92v268.799H0V0z"/></clipPath><clipPath id="clipPath4349"><path id="path4351" d="M0 267.059h267.062V0H0v267.059z"/></clipPath><clipPath id="clipPath4378"><path id="path4380" d="M0 447.57h447.461V0H0v447.57z"/></clipPath><clipPath id="clipPath4425"><path id="path4427" d="M0 48h48V0H0v48z"/></clipPath><clipPath id="clipPath4445"><path id="path4447" d="M0 0h48v48H0V0z"/></clipPath><clipPath id="clipPath4469"><path id="path4471" d="M0 48h48V0H0v48z"/></clipPath><clipPath id="clipPath4520"><path id="path4522" d="M0 0h46.8v47.759H0V0z"/></clipPath><clipPath id="clipPath4536"><path id="path4538" d="M0 47.76h46.8V0H0v47.76z"/></clipPath></defs><g id="layer1" transform="translate(-2535.904 -1899.654)"><g transform="matrix(1.25 0 0 -1.25 2.939 313.78)" id="g3344"><g transform="translate(2027.252 -1316.981)" id="g4514" fill="#1e0f00"><g id="g4516"><g clip-path="url(#clipPath4520)" id="g4518"><g transform="translate(23.195 21.759)" id="g4524"><path id="path4526" d="M0 0a1.599 1.599 0 1 0 1.602 1.603C1.602.719.883 0 0 0m8.801 2.403H3.09A3.204 3.204 0 0 1 .801 4.688v8.113a.799.799 0 1 1-1.598 0V4.688c-1.378-.36-2.402-1.602-2.402-3.085 0-1.767 1.438-3.2 3.199-3.2A3.2 3.2 0 0 1 3.09.801h5.711a.802.802 0 0 1 0 1.602"/></g><g transform="translate(23.195 3.361)" id="g4528"><path id="path4530" d="M0 0c-11.027 0-20 8.973-20 20s8.973 20 20 20c11.032 0 20-8.973 20-20S11.032 0 0 0m-20.683 34.777a4.906 4.906 0 0 0 .519 6.313 4.902 4.902 0 0 0 6.313.518l-6.832-6.831zm40.851 6.313a4.906 4.906 0 0 0 .52-6.313l-6.832 6.831a4.9 4.9 0 0 0 6.312-.518m-3.277-4.782l3.277-3.273a.802.802 0 0 1 1.133 0c2.532 2.53 2.532 6.652 0 9.188a6.514 6.514 0 0 1-9.191 0 .816.816 0 0 1-.235-.567c0-.216.086-.418.235-.566l3.652-3.65-1.359-1.358A21.515 21.515 0 0 1 .004 41.598a21.515 21.515 0 0 1-14.398-5.516l-1.363 1.358 3.652 3.65c.148.152.234.35.234.566a.819.819 0 0 1-.234.567 6.515 6.515 0 0 1-9.192 0c-2.531-2.536-2.531-6.658 0-9.188a.802.802 0 0 1 1.133 0l3.278 3.273 1.339-1.339c-3.742-3.887-6.05-9.161-6.05-14.969 0-7.918 4.285-14.853 10.656-18.613l-2.422-2.422a.803.803 0 0 1 .566-1.367c.204 0 .407.078.563.234L-9.472.594A21.458 21.458 0 0 1 0-1.603c3.399 0 6.614.793 9.477 2.197l2.758-2.762a.801.801 0 0 1 1.133 1.133l-2.422 2.422C17.317 5.147 21.602 12.082 21.602 20c0 5.808-2.309 11.082-6.051 14.969l1.34 1.339z"/></g></g></g><g id="g4532"><g clip-path="url(#clipPath4536)" id="g4534"><g transform="translate(32.27 9.244)" id="g4540"><path id="path4542" d="M0 0l-.379.66a.8.8 0 1 1-1.387-.802l.383-.664a16.8 16.8 0 0 0-6.89-1.84v.763a.8.8 0 1 1-1.599 0v-.763a16.756 16.756 0 0 0-6.89 1.84l.384.664a.802.802 0 0 1-1.388.802l-.379-.66a16.827 16.827 0 0 0-5.042 5.043l.66.379a.8.8 0 1 1-.802 1.386l-.659-.383a16.748 16.748 0 0 0-1.844 6.89h.762a.8.8 0 1 1 0 1.599h-.762a16.677 16.677 0 0 0 1.839 6.89l.664-.382a.768.768 0 0 1 .399-.106.799.799 0 0 1 .403 1.492l-.66.383c1.3 2.02 3.02 3.738 5.039 5.043l.382-.66a.8.8 0 1 1 1.388.797l-.384.664a16.646 16.646 0 0 0 6.887 1.84v-.758a.801.801 0 0 1 1.602 0v.758a16.663 16.663 0 0 0 6.89-1.84l-.383-.664a.796.796 0 0 1 .293-1.09.794.794 0 0 1 1.09.293l.383.66a16.91 16.91 0 0 0 5.043-5.043l-.66-.383a.798.798 0 0 1 .398-1.492c.137 0 .274.035.403.106l.66.386a16.695 16.695 0 0 0 1.84-6.89h-.758a.802.802 0 0 1 0-1.603h.758a16.683 16.683 0 0 0-1.84-6.89l-.66.387a.806.806 0 0 1-1.094-.293.798.798 0 0 1 .293-1.094l.66-.382A16.808 16.808 0 0 0 0 0m6.832 23.351a18.484 18.484 0 0 1-6.668 6.668c-.016.012-.023.024-.035.031-.016.008-.031.008-.043.016a18.283 18.283 0 0 1-9.156 2.449c-3.332 0-6.461-.894-9.157-2.449-.016-.008-.031-.008-.046-.016-.013-.007-.019-.019-.032-.031a18.503 18.503 0 0 1-6.672-6.668c-.007-.015-.023-.023-.031-.035-.008-.016-.008-.031-.012-.043a18.246 18.246 0 0 1-2.453-9.156c0-3.332.894-6.457 2.453-9.156.004-.016.004-.032.012-.043.011-.024.028-.035.044-.055a18.501 18.501 0 0 1 6.659-6.652c.013-.008.019-.024.032-.032.023-.011.043-.015.065-.023A18.252 18.252 0 0 1-9.07-4.285c3.324 0 6.441.889 9.132 2.441.024.008.047.012.067.023.012.008.019.024.035.032a18.567 18.567 0 0 1 6.66 6.652c.012.02.028.031.039.055.008.011.008.027.016.043a18.283 18.283 0 0 1 2.449 9.156c0 3.332-.894 6.457-2.449 9.156-.008.012-.008.027-.016.043-.008.012-.023.02-.031.035"/></g></g></g></g></g></g></svg>