<svg xmlns="http://www.w3.org/2000/svg" width="540.094" height="540.362" viewBox="0 0 540.09449 540.36219" id="svg2"><defs id="defs4"><clipPath id="clipPath3350"><path id="path3352" d="M0 409.602h409.602V0H0v409.602z"/></clipPath><clipPath id="clipPath3385"><path id="path3387" d="M0 409.602h409.602V0H0v409.602z"/></clipPath><clipPath id="clipPath3420"><path id="path3422" d="M0 409.602h409.602V0H0v409.602z"/></clipPath><clipPath id="clipPath3455"><path id="path3457" d="M0 0h48.96v49H0V0z"/></clipPath></defs><g id="layer1" transform="translate(0 -512)"><g transform="matrix(10.84875 0 0 -10.92775 3.433 1051.66)" id="g3449" fill="#fff"><g id="g3451"><g clip-path="url(#clipPath3455)" id="g3453"><g transform="translate(37.46 37.644)" id="g3459"><path id="path3461" d="M0 0c4.789-4.789 6.832-10.226 6.168-14.633 0 0-.231-1.394.68-2.304a2.556 2.556 0 0 1 3.609-.008c.617.617.754 1.621.754 1.621.547 3.805-.145 11.465-7.606 18.93-7.464 7.461-15.125 8.152-18.929 7.605 0 0-1.004-.133-1.621-.754a2.56 2.56 0 0 1 .004-3.609c.914-.91 2.308-.68 2.308-.68C-10.227 6.832-4.789 4.789 0 0m-12.391 1.973s-1.32.207-2.246-.719c-.949-.953-.992-2.594.012-3.598.594-.589 1.43-.718 1.43-.718 1.629-.305 4.082-.821 6.699-3.434 2.609-2.613 3.129-5.07 3.433-6.699 0 0 .125-.836.719-1.43 1.004-1.003 2.645-.96 3.594-.012.926.927.723 2.247.723 2.247-.52 3.3-2.121 6.75-4.868 9.496-2.746 2.75-6.195 4.347-9.496 4.867m-6.347-20.738c4.379-4.344 9.445-8.497 11.433-6.493 2.852 2.871 4.606 5.368 10.926.325s1.492-8.438-1.266-11.219c-3.183-3.207-15.109-.223-26.929 11.508C-36.395-12.91-39.469-1.008-36.281 2.199c2.758 2.782 6.117 7.633 11.203 1.348 5.094-6.281 2.609-8.055-.238-10.922-1.993-2.004 2.199-7.042 6.578-11.39"/></g></g></g></g></g></svg>