<svg xmlns="http://www.w3.org/2000/svg" width="65.088" height="64.95" viewBox="0 0 61.019855 60.890757" id="svg2"><defs id="defs4"><clipPath id="clipPath4150"><path id="path4152" d="M0 24.861h24.861V0H0v24.861z"/></clipPath><clipPath id="clipPath4179"><path id="path4181" d="M0 18.641h14.41V0H0v18.641z"/></clipPath><clipPath id="clipPath4208"><path id="path4210" d="M0 0h48.96v49H0V0z"/></clipPath></defs><g id="layer1" transform="translate(-160.919 -356.203)"><g transform="matrix(1.25 0 0 -1.25 1024.462 1053.615)" id="g4144"><g id="g4146"><g clip-path="url(#clipPath4150)" id="g4148"><g transform="translate(18.186 15.871)" id="g4154"><path id="path4156" d="M0 0l-5.948-9.103h-.008l-.083-.145-.19-.137-.045-.03-.311-.129-.099-.03h-.265l-.184.03-.173.068-.153.061-.083.083-.037.023-3.467 3.209a1.084 1.084 0 1 0 1.473 1.593l2.511-2.321 5.241 8.018a1.095 1.095 0 0 0 1.509.313A1.08 1.08 0 0 0 0 0m-5.76 8.99c-6.856 0-12.426-5.567-12.426-12.427 0-6.866 5.57-12.434 12.426-12.434 6.867 0 12.436 5.568 12.436 12.434C6.676 3.423 1.107 8.99-5.76 8.99" fill="#686460"/></g></g></g></g><g transform="matrix(1.25 0 0 -1.25 993.85 1058.298)" id="g4173"><g id="g4175"><g clip-path="url(#clipPath4179)" id="g4177"><g transform="translate(7.207 16.434)" id="g4183"><path id="path4185" d="M0 0c-2.648 0-4.832-2.105-5.172-4.828-.09.102-.199.188-.316.254C-5.379-1.332-2.969 1.262 0 1.262c2.965 0 5.375-2.594 5.488-5.836a1.245 1.245 0 0 1-.32-.254C4.828-2.105 2.648 0 0 0m6.336-4.476C6.18-.754 3.406 2.207 0 2.207c-3.41 0-6.18-2.961-6.34-6.679a1.16 1.16 0 0 1-.867-1.121v-2.895c0-.645.52-1.164 1.164-1.164.645 0 1.164.519 1.164 1.164v.222c.551-2.562 1.887-5.879 4.879-5.879 2.988 0 4.324 3.313 4.875 5.875v-.218c0-.516.332-.946.793-1.098-.031-.59-.352-3.687-3.379-4.98a.726.726 0 0 1-.648.074l-1.332-.492a.749.749 0 0 1 .519-1.403l1.332.492a.737.737 0 0 1 .488.665c3.391 1.5 3.743 5.082 3.774 5.648.453.156.781.586.781 1.094v2.895c0 .535-.371.988-.867 1.117" fill="#686460"/></g></g></g></g><g transform="matrix(1.25 0 0 -1.25 160.918 417.452)" id="g4202" fill="#fff"><g id="g4204"><g clip-path="url(#clipPath4208)" id="g4206"><g transform="translate(37.46 37.644)" id="g4212"><path id="path4214" d="M0 0c4.789-4.789 6.832-10.226 6.168-14.633 0 0-.231-1.394.68-2.304a2.556 2.556 0 0 1 3.609-.008c.617.617.754 1.621.754 1.621.547 3.805-.145 11.465-7.606 18.93-7.464 7.461-15.125 8.152-18.929 7.605 0 0-1.004-.133-1.621-.754a2.56 2.56 0 0 1 .004-3.609c.914-.91 2.308-.68 2.308-.68C-10.227 6.832-4.789 4.789 0 0m-12.391 1.973s-1.32.207-2.246-.719c-.949-.953-.992-2.594.012-3.598.594-.589 1.43-.718 1.43-.718 1.629-.305 4.082-.821 6.699-3.434 2.609-2.613 3.129-5.07 3.433-6.699 0 0 .125-.836.719-1.43 1.004-1.003 2.645-.96 3.594-.012.926.927.723 2.247.723 2.247-.52 3.3-2.121 6.75-4.868 9.496-2.746 2.75-6.195 4.347-9.496 4.867m-6.347-20.738c4.379-4.344 9.445-8.497 11.433-6.493 2.852 2.871 4.606 5.368 10.926.325s1.492-8.438-1.266-11.219c-3.183-3.207-15.109-.223-26.929 11.508C-36.395-12.91-39.469-1.008-36.281 2.199c2.758 2.782 6.117 7.633 11.203 1.348 5.094-6.281 2.609-8.055-.238-10.922-1.993-2.004 2.199-7.042 6.578-11.39"/></g></g></g></g></g></svg>