<svg xmlns:osb="http://www.openswatchbook.org/uri/2009/osb" xmlns="http://www.w3.org/2000/svg" width="62.1" height="57" viewBox="0 0 62.099998 56.999749" id="svg2"><defs id="defs4"><linearGradient id="linearGradient6005" osb:paint="solid"><stop offset="0" id="stop6007" stop-color="#1e0f00"/></linearGradient><clipPath id="clipPath3350"><path id="path3352" d="M0 0h43.92v32.88H0V0z"/></clipPath><clipPath id="clipPath3362"><path id="path3364" d="M0 32.88h43.926V0H0v32.88z"/></clipPath><clipPath id="clipPath3409"><path id="path3411" d="M0 261.602h408.801V0H0v261.602z"/></clipPath><clipPath id="clipPath3462"><path id="path3464" d="M0 267.059h267.062V0H0v267.059z"/></clipPath><clipPath id="clipPath4291"><path id="path4293" d="M0 0h265.92v268.799H0V0z"/></clipPath><clipPath id="clipPath4349"><path id="path4351" d="M0 267.059h267.062V0H0v267.059z"/></clipPath><clipPath id="clipPath4378"><path id="path4380" d="M0 447.57h447.461V0H0v447.57z"/></clipPath><clipPath id="clipPath4425"><path id="path4427" d="M0 48h48V0H0v48z"/></clipPath><clipPath id="clipPath4445"><path id="path4447" d="M0 0h48v48H0V0z"/></clipPath><clipPath id="clipPath4469"><path id="path4471" d="M0 48h48V0H0v48z"/></clipPath><clipPath id="clipPath4520"><path id="path4522" d="M0 0h46.8v47.759H0V0z"/></clipPath><clipPath id="clipPath4536"><path id="path4538" d="M0 47.76h46.8V0H0v47.76z"/></clipPath><clipPath id="clipPath6025"><path id="path6027" d="M0 44h48V0H0v44z"/></clipPath></defs><g id="layer1" transform="translate(-2679.09 -1902.736)"><g transform="matrix(1.25 0 0 -1.25 2.939 313.78)" id="g3344"><g transform="translate(2141.8 -1315.965)" id="g6019" fill="#1e0f00"><g id="g6021"><g clip-path="url(#clipPath6025)" id="g6023"><g transform="translate(34.945 6.676)" id="g6029"><path id="path6031" d="M0 0a104.447 104.447 0 0 0-4.273-.648h-.004a72.431 72.431 0 0 0-1.715-.196h-.012a56.219 56.219 0 0 0-1.508-.129c-.09-.004-.183-.011-.277-.016-.426-.031-.852-.05-1.27-.066-.086-.004-.171-.011-.257-.011a40.934 40.934 0 0 0-2.973 0c-.09 0-.179.007-.265.011a49.921 49.921 0 0 0-1.555.082c-.477.036-.965.075-1.457.125-.02.004-.039.004-.055.004a68.96 68.96 0 0 0-1.699.196h-.008a96.623 96.623 0 0 0-4.289.651l-6.129 1.056c3.187 3.644 4.801 8.03 4.801 13.066v7.195c.027 4.348 3.109 7.707 6.152 9.113.907.414 1.844.727 2.797.945.008 0 .019 0 .028.004 1.968.442 4.066.461 6.062.051.011 0 .019.004.031.004a14.478 14.478 0 0 0 3.059-1c2.953-1.351 5.918-4.687 5.89-9.113v-7.199c0-4.829 1.739-9.316 5.051-13.066L0 0zm-10.801-5.075c-2.023 0-3.917 1.005-5.133 2.653a48.753 48.753 0 0 1 5.125-.278c1.676 0 3.352.091 5.145.278-1.215-1.648-3.109-2.653-5.137-2.653m-2.542 38.399a2.398 2.398 0 1 0 4.796 0v-.145a15.9 15.9 0 0 1-4.796-.039v.184zM2.676 14.125v7.195c.031 5.484-3.656 9.125-6.824 10.57-.911.418-1.844.738-2.797.973v.461c0 2.207-1.793 4-4 4s-4-1.793-4-4v-.528c-.855-.233-1.7-.535-2.516-.91-3.504-1.617-7.05-5.508-7.086-10.562v-7.199c0-5.109-1.805-9.497-5.363-13.036a.796.796 0 0 1-.199-.804.797.797 0 0 1 .629-.551l7.594-1.309a99.977 99.977 0 0 1 3.952-.609c1.399-2.738 4.141-4.492 7.133-4.492 2.996 0 5.739 1.758 7.133 4.492 1.234.164 2.531.364 3.938.609L7.863-.266a.798.798 0 0 1 .625.551.781.781 0 0 1-.199.804C4.562 4.796 2.676 9.18 2.676 14.125"/></g><g transform="translate(29.133 34.93)" id="g6033"><path id="path6035" d="M0 0c-3.098 1.418-6.895 1.418-9.973 0-1.758-.812-4.734-3.179-4.762-6.925 0-.442.356-.801.797-.805h.004a.8.8 0 0 1 .801.797c.02 2.941 2.414 4.828 3.828 5.48 2.664 1.227 5.957 1.227 8.641 0A.8.8 0 0 1 0 0"/></g><g transform="translate(3.84 27.765)" id="g6037"><path id="path6039" d="M0 0a.796.796 0 0 1-1.129 0A9.19 9.19 0 0 1-3.84-6.55a9.2 9.2 0 0 1 2.711-6.555.795.795 0 0 1 1.129 0 .796.796 0 0 1 0 1.133A7.613 7.613 0 0 0-2.238-6.55 7.6 7.6 0 0 0 0-1.132.802.802 0 0 1 0 0"/></g><g transform="translate(6.645 16.246)" id="g6041"><path id="path6043" d="M0 0c.203 0 .41.082.566.234a.803.803 0 0 1 0 1.133 5.253 5.253 0 0 0 0 7.422.798.798 0 0 1 0 1.129.803.803 0 0 1-1.133 0c-2.668-2.668-2.668-7.012 0-9.684A.797.797 0 0 1 0 0"/></g><g transform="translate(45.29 27.765)" id="g6045"><path id="path6047" d="M0 0a.796.796 0 0 1-1.129 0 .794.794 0 0 1 0-1.132A7.607 7.607 0 0 0 1.109-6.55a7.613 7.613 0 0 0-2.238-5.422.796.796 0 0 1 0-1.133.795.795 0 0 1 1.129 0A9.2 9.2 0 0 1 2.711-6.55 9.19 9.19 0 0 1 0 0"/></g><g transform="translate(40.79 26.164)" id="g6049"><path id="path6051" d="M0 0a.798.798 0 0 1 0-1.129 5.253 5.253 0 0 0 0-7.422.803.803 0 0 1 0-1.133.819.819 0 0 1 .566-.234c.207 0 .411.082.567.234 2.668 2.672 2.668 7.016 0 9.684A.803.803 0 0 1 0 0"/></g></g></g></g></g></g></svg>