<svg xmlns="http://www.w3.org/2000/svg" width="333.613" height="336.801" viewBox="0 0 333.61337 336.80101" id="svg2"><defs id="defs4"><clipPath id="clipPath3350"><path id="path3352" d="M0 0h43.92v32.88H0V0z"/></clipPath><clipPath id="clipPath3362"><path id="path3364" d="M0 32.88h43.926V0H0v32.88z"/></clipPath><clipPath id="clipPath3409"><path id="path3411" d="M0 261.602h408.801V0H0v261.602z"/></clipPath><clipPath id="clipPath3462"><path id="path3464" d="M0 267.059h267.062V0H0v267.059z"/></clipPath><clipPath id="clipPath4291"><path id="path4293" d="M0 0h265.92v268.799H0V0z"/></clipPath></defs><g id="layer1" transform="translate(-497.542 -951.156)"><g transform="matrix(1.25 0 0 -1.25 2.939 313.78)" id="g3344"><g transform="translate(396.563 -779.5)" id="g4285" fill="#18b5fa"><g id="g4287"><g clip-path="url(#clipPath4291)" id="g4289"><g transform="translate(220.223 110.865)" id="g4295"><path id="path4297" d="M0 0c0-6.274-5.078-11.353-11.352-11.353-6.273 0-11.351 5.079-11.351 11.353 0 6.269 5.082 11.351 11.351 11.351C-5.078 11.351 0 6.265 0 0m34.707-22.074h-50.453c-11.797 0-21.391 9.593-21.391 21.389v2.211c0 11.793 9.594 21.388 21.391 21.388h50.453v-44.988zM21.852-84.199c0-8.504-6.918-15.422-15.422-15.422h-200.946c-8.504 0-15.425 6.918-15.425 15.422V92.324c0 8.504 6.921 15.426 15.425 15.426h57.883l-24.659-13.715h-30.009a5.141 5.141 0 1 1 0-10.281H21.852V33.191h-37.598c-17.461 0-31.672-14.212-31.672-31.672V-.692c0-17.461 14.211-31.672 31.672-31.672h37.598v-51.835zM-44.77 147.066c2.411 1.352 5.657.406 6.985-1.996l28.383-51.027h-130.727l95.359 53.023zm51.2-39.316c7.918 0 14.382-6.016 15.254-13.715H2.363l-7.621 13.715H6.43zm38.558-74.555H32.137v59.129c0 14.176-11.532 25.707-25.707 25.707h-17.41l-17.817 32.031a15.424 15.424 0 0 1-20.976 5.992l-68.372-38.023h-76.371c-14.175 0-25.707-11.531-25.707-25.707V-84.199c0-14.172 11.532-25.708 25.707-25.708H6.43c14.175 0 25.707 11.536 25.707 25.708v51.843h12.851v65.551z"/></g></g></g></g></g></g></svg>