<svg xmlns="http://www.w3.org/2000/svg" width="235" height="102" viewBox="0 0 235 102" id="svg2"><defs id="defs4"><clipPath id="clipPath3350"><path id="path3352" d="M0 409.602h409.602V0H0v409.602z"/></clipPath><clipPath id="clipPath3385"><path id="path3387" d="M0 409.602h409.602V0H0v409.602z"/></clipPath><clipPath id="clipPath3420"><path id="path3422" d="M0 409.602h409.602V0H0v409.602z"/></clipPath><clipPath id="clipPath3455"><path id="path3457" d="M0 0h48.96v49H0V0z"/></clipPath><clipPath id="clipPath3484"><path id="path3486" d="M0 81.63h186.68V0H0v81.63z"/></clipPath></defs><g id="layer1" transform="translate(0 -950.362)"><g transform="matrix(1.25 0 0 -1.25 2.095 1053.79)" id="g3478" fill="#fff"><g id="g3480"><g clip-path="url(#clipPath3484)" id="g3482"><g transform="translate(177.03 39.172)" id="g3488"><path id="path3490" d="M0 0c0-.978-.79-1.767-1.768-1.767h-.13v1.241h.13c.283 0 .528.226.528.526v9.628a.54.54 0 0 1-.528.527h-.13v1.241h.13c.978 0 1.768-.79 1.768-1.768V0zm-2.857 10.155h-.152a.537.537 0 0 1-.525-.527V0c0-.3.243-.526.525-.526h.152v-1.241h-.152c-.959 0-1.766.789-1.766 1.767v9.628c0 .978.807 1.768 1.766 1.768h.152v-1.241zm-3.422-5.397h-3.555v-6.525h-1.24v7.672h3.553v5.491h1.242V4.758zm0-6.525H-7.52v5.565h1.241v-5.565zm-7.108 0l-1.523 5.321h1.26l1.542-5.321h-1.279zm-3.592 0h-1.297l2.011 7.052-.224.77h1.297l1.598 5.341h1.297l-1.843-6.111.227-.772h-1.279l-1.787-6.28zm-2.143 11.922h-3.592v1.241h3.592v-1.241zm-.019-11.922h-3.573v1.24h3.573v-1.24zm-4.795 11.922h-4.288v1.241h4.288v-1.241zm-1.523-11.922h-1.24V9.196h1.24V-1.767zm2.745 10.962h1.241v-3.29h2.05V4.758h-2.05V.432h-1.241v8.763zm5.923 2.201l1.316-4.382h-1.296l-1.298 4.382h1.278zm5.717 0h1.24V6.864h-1.24v4.532zm-28.883 3.996c2.24-3.829 4.08-7.819 5.327-11.849.227-.73.08-1.525-.391-2.13-.332-.424-1.484-2.234-2.914-8.116H9.65v22.095h-49.607z"/></g><g transform="translate(18.064 59.905)" id="g3492"><path id="path3494" d="M0 0c-4.004-4.202-7.319-9.212-8.962-14.305h2.924v-19.529C-4.71-39.15-2.614-43.412 0-46.957v31.16h3.198c2.261.091 3.449-1.288 3.537-4.167v-8.768c1.138-3.249 6.849-2.528 8.866-2.528-1.211.54-2.461 1.257-2.828 2.436v10.769c-.051 1.805-.971 3.136-3.803 3.75 2.715 2.039 3.807 3.858 3.803 5.884v20.33C10.33 9.677 8.217 7.225 6.735 4.354V-7.712c-.249-2.522-1.407-3.971-3.507-4.323H0V0zm20.964-10.021v6.198c3.563-4.341 7.45-7.89 8.108-12.548l-8.108 6.35zm-6.404 21.86v-39.006h8.726c-1.267.387-2.104 1.102-2.322 2.288v9.522l7.546-6.147c-.579-1.709-1.569-3.575-3.068-5.663h6.914c1.207 3.067 11.067 12.492-3.284 20.704C19.335-.892 15.627 8.668 14.56 11.839M103.89 0c4.003-4.202 7.319-9.212 8.965-14.305h-2.927v-19.529c-1.324-5.316-3.42-9.578-6.038-13.123v31.16h-6.731v-12.935c-1.142-3.249-6.854-2.528-8.866-2.528 1.206.54 2.461 1.257 2.823 2.436v40.733c2.447-2.232 4.561-4.684 6.043-7.555v-16.389h6.731V0zM82.751-10.021v6.198c-3.568-4.341-7.45-7.89-8.112-12.548l8.112 6.35zm6.399 21.86v-39.006h-8.726c1.267.387 2.104 1.102 2.327 2.288v9.522l-7.55-6.147c.578-1.709 1.568-3.575 3.067-5.663h-6.914C70.146-24.1 60.292-14.675 74.639-6.463 84.376-.892 88.084 8.668 89.15 11.839M17.253 9.612C21.194-4.497 42.369-5.311 41.885-15.297c-.353-7.294-7.38-8.338-9.868-16.859 4.183 3.711 8.435 6.155 12.886 4.915-.126 1.644-.805 2.362-2.133 2.68 2.187.8 4.338 2.888 5.816 6.05v-12.714c-.445-1.713-2.37-3.088-4.101-3.488 3.207-2.653 6.087-10.304 7.537-14.166 1.448 3.862 4.332 11.513 7.538 14.166-1.729.4-3.66 1.775-4.104 3.488v12.109c1.46-2.822 3.477-4.696 5.52-5.445-1.33-.318-2.008-1.036-2.135-2.68 4.453 1.24 8.705-1.204 12.887-4.915-2.487 8.521-9.514 9.565-9.868 16.859-.483 9.986 20.691 10.8 24.633 24.909C85.426 6.437 71.227.335 61.116-4.028c-3.015-1.3-4.676-3.001-5.66-5.032v19.816c.27 1.636 1.137 2.98 2.214 4.215-1.342-9.817 2.422-13.679 8.734-13.484 7.721.241 15.436 5.05 23.257 12.892 6.217-3.075 21.095-17.124 26.278-28.345 1.326-16.498-6.595-33.887-12.28-45.939 6.596 7.451 11.636 17.994 14.856 31.981.575 2.501 1.934 7.925 3.589 10.043-5.301 17.137-21.142 32.83-32.745 38.432-4.199-9.56-17.883-16.045-23.307-15.249-5.424.796-7.53 7.337-2.867 14.801-.537.366-1.346.078-1.695-.156-4.715-3.175-5.25 1.674-9.401 1.774v.004h-.131v-.004c-4.156-.1-4.692-4.949-9.406-1.774-.349.234-1.159.522-1.692.156 4.662-7.464 2.554-14.005-2.87-14.801-5.425-.796-19.108 5.689-23.308 15.249C3.08 14.949-12.762-.744-18.063-17.881c1.656-2.118 3.015-7.542 3.589-10.043 3.221-13.987 8.261-24.53 14.862-31.981-5.69 12.052-13.612 29.441-12.286 45.939 5.184 11.221 20.062 25.27 26.279 28.345C22.202 6.537 29.922 1.728 37.637 1.487c6.313-.195 10.078 3.667 8.736 13.484 1.076-1.235 1.942-2.579 2.213-4.215V-9.729c-.938 2.326-2.614 4.262-5.956 5.701C32.518.335 18.319 6.437 17.253 9.612" fill-rule="evenodd"/></g></g></g></g></g></svg>