<svg xmlns="http://www.w3.org/2000/svg" width="62.097" height="61.999" viewBox="0 0 62.097252 61.999502" id="svg2"><defs id="defs4"><clipPath id="clipPath3350"><path id="path3352" d="M0 0h43.92v32.88H0V0z"/></clipPath><clipPath id="clipPath3362"><path id="path3364" d="M0 32.88h43.926V0H0v32.88z"/></clipPath><clipPath id="clipPath3409"><path id="path3411" d="M0 261.602h408.801V0H0v261.602z"/></clipPath><clipPath id="clipPath3462"><path id="path3464" d="M0 267.059h267.062V0H0v267.059z"/></clipPath><clipPath id="clipPath4291"><path id="path4293" d="M0 0h265.92v268.799H0V0z"/></clipPath><clipPath id="clipPath4349"><path id="path4351" d="M0 267.059h267.062V0H0v267.059z"/></clipPath><clipPath id="clipPath4378"><path id="path4380" d="M0 447.57h447.461V0H0v447.57z"/></clipPath><clipPath id="clipPath4425"><path id="path4427" d="M0 48h48V0H0v48z"/></clipPath><clipPath id="clipPath4445"><path id="path4447" d="M0 0h48v48H0V0z"/></clipPath><clipPath id="clipPath4469"><path id="path4471" d="M0 48h48V0H0v48z"/></clipPath></defs><g id="layer1" transform="translate(-2282.429 -1917.731)"><g transform="matrix(1.25 0 0 -1.25 2.939 313.78)" id="g3344"><g transform="translate(1824.471 -1331.96)" id="g4419" fill="#1e0f00"><g id="g4421"><g clip-path="url(#clipPath4425)" id="g4423"><g transform="translate(34.074 1.602)" id="g4429"><path id="path4431" d="M0 0h-20.152a1.925 1.925 0 0 0-1.922 1.922V8h24V1.922A1.927 1.927 0 0 0 0 0m-20.152 44.796H0a1.926 1.926 0 0 0 1.926-1.921v-1.277h-24v1.277c0 1.059.863 1.921 1.922 1.921M-22.074 40h24V9.597h-24V40zM0 46.398h-20.152a3.53 3.53 0 0 1-3.524-3.523V1.922a3.53 3.53 0 0 1 3.524-3.524H0a3.527 3.527 0 0 1 3.523 3.524v40.953A3.526 3.526 0 0 1 0 46.398"/></g><g transform="translate(24 4)" id="g4433"><path id="path4435" d="M0 0c-.883 0-1.602.719-1.602 1.602A1.6 1.6 0 1 0 0 0m0 4.801a3.203 3.203 0 0 1-3.199-3.199A3.204 3.204 0 0 1 0-1.602a3.204 3.204 0 0 1 3.199 3.204A3.203 3.203 0 0 1 0 4.801"/></g><g transform="translate(20.8 44)" id="g4437"><path id="path4439" d="M0 0h3.199a.801.801 0 0 1 0 1.602H0A.8.8 0 0 1-.801.801C-.801.359-.446 0 0 0"/></g></g></g><g id="g4441"><g clip-path="url(#clipPath4445)" id="g4443"><g transform="translate(26.398 44)" id="g4449"><path id="path4451" d="M0 0h.801a.802.802 0 0 1 0 1.602H0A.802.802 0 0 1 0 0"/></g><g transform="translate(45.29 44.344)" id="g4453"><path id="path4455" d="M0 0a.803.803 0 0 1-1.133 0 .798.798 0 0 1 0-1.129c2.988-2.988 2.988-7.852 0-10.844a.798.798 0 0 1 .567-1.363c.207 0 .41.078.566.234C3.613-9.492 3.613-3.614 0 0"/></g><g transform="translate(41.922 42.523)" id="g4457"><path id="path4459" d="M0 0a.8.8 0 0 1-1.133 0 .797.797 0 0 1 0-1.128A5.23 5.23 0 0 0 .402-4.843 5.208 5.208 0 0 0-1.133-8.55a.803.803 0 0 1 .567-1.368c.203 0 .41.079.566.235a6.812 6.812 0 0 1 2 4.84A6.805 6.805 0 0 1 0 0"/></g><g transform="translate(3.84 43.215)" id="g4461"><path id="path4463" d="M0 0a.798.798 0 1 1-1.129 1.129c-3.613-3.614-3.613-9.489 0-13.102A.797.797 0 1 1 0-10.844C-2.988-7.856-2.988-2.992 0 0"/></g></g></g><g id="g4465"><g clip-path="url(#clipPath4469)" id="g4467"><g transform="translate(7.21 42.746)" id="g4473"><path id="path4475" d="M0 0a.8.8 0 0 1-1.133 0 6.802 6.802 0 0 1-2.004-4.844c0-1.828.711-3.55 2.004-4.84a.801.801 0 0 1 1.133 0 .798.798 0 0 1 0 1.129 5.204 5.204 0 0 0-1.535 3.711c0 1.403.543 2.723 1.535 3.711A.803.803 0 0 1 0 0"/></g></g></g></g></g></g></svg>