<svg xmlns="http://www.w3.org/2000/svg" width="33.148" height="33.148" viewBox="0 0 31.076251 31.076126" id="svg2"><defs id="defs4"><clipPath id="clipPath4150"><path id="path4152" d="M0 24.861h24.861V0H0v24.861z"/></clipPath><clipPath id="clipPath4179"><path id="path4181" d="M0 18.641h14.41V0H0v18.641z"/></clipPath><clipPath id="clipPath4208"><path id="path4210" d="M0 0h48.96v49H0V0z"/></clipPath></defs><g id="layer1" transform="translate(-631.605 -848.253)"><g transform="matrix(1.25 0 0 -1.25 631.605 879.329)" id="g4144" fill="#fff"><g id="g4146"><g clip-path="url(#clipPath4150)" id="g4148"><g transform="translate(18.186 15.871)" id="g4154"><path id="path4156" d="M0 0l-5.948-9.103h-.008l-.083-.145-.19-.137-.045-.03-.311-.129-.099-.03h-.265l-.184.03-.173.068-.153.061-.083.083-.037.023-3.467 3.209a1.084 1.084 0 1 0 1.473 1.593l2.511-2.321 5.241 8.018a1.095 1.095 0 0 0 1.509.313A1.08 1.08 0 0 0 0 0m-5.76 8.99c-6.856 0-12.426-5.567-12.426-12.427 0-6.866 5.57-12.434 12.426-12.434 6.867 0 12.436 5.568 12.436 12.434C6.676 3.423 1.107 8.99-5.76 8.99"/></g></g></g></g></g></svg>