<svg xmlns="http://www.w3.org/2000/svg" width="19.213" height="24.854" viewBox="0 0 18.012499 23.300749" id="svg2"><defs id="defs4"><clipPath id="clipPath4150"><path id="path4152" d="M0 24.861h24.861V0H0v24.861z"/></clipPath><clipPath id="clipPath4179"><path id="path4181" d="M0 18.641h14.41V0H0v18.641z"/></clipPath><clipPath id="clipPath4208"><path id="path4210" d="M0 0h48.96v49H0V0z"/></clipPath></defs><g id="layer1" transform="translate(-196.708 -574.998)"><g transform="matrix(1.25 0 0 -1.25 1024.462 1053.615)" id="g4144"><g id="g4146"><g clip-path="url(#clipPath4150)" id="g4148"><g transform="translate(18.186 15.871)" id="g4154"><path id="path4156" d="M0 0l-5.948-9.103h-.008l-.083-.145-.19-.137-.045-.03-.311-.129-.099-.03h-.265l-.184.03-.173.068-.153.061-.083.083-.037.023-3.467 3.209a1.084 1.084 0 1 0 1.473 1.593l2.511-2.321 5.241 8.018a1.095 1.095 0 0 0 1.509.313A1.08 1.08 0 0 0 0 0m-5.76 8.99c-6.856 0-12.426-5.567-12.426-12.427 0-6.866 5.57-12.434 12.426-12.434 6.867 0 12.436 5.568 12.436 12.434C6.676 3.423 1.107 8.99-5.76 8.99" fill="#686460"/></g></g></g></g><g transform="matrix(1.25 0 0 -1.25 196.708 598.298)" id="g4173" fill="#fff"><g id="g4175"><g clip-path="url(#clipPath4179)" id="g4177"><g transform="translate(7.207 16.434)" id="g4183"><path id="path4185" d="M0 0c-2.648 0-4.832-2.105-5.172-4.828-.09.102-.199.188-.316.254C-5.379-1.332-2.969 1.262 0 1.262c2.965 0 5.375-2.594 5.488-5.836a1.245 1.245 0 0 1-.32-.254C4.828-2.105 2.648 0 0 0m6.336-4.476C6.18-.754 3.406 2.207 0 2.207c-3.41 0-6.18-2.961-6.34-6.679a1.16 1.16 0 0 1-.867-1.121v-2.895c0-.645.52-1.164 1.164-1.164.645 0 1.164.519 1.164 1.164v.222c.551-2.562 1.887-5.879 4.879-5.879 2.988 0 4.324 3.313 4.875 5.875v-.218c0-.516.332-.946.793-1.098-.031-.59-.352-3.687-3.379-4.98a.726.726 0 0 1-.648.074l-1.332-.492a.749.749 0 0 1 .519-1.403l1.332.492a.737.737 0 0 1 .488.665c3.391 1.5 3.743 5.082 3.774 5.648.453.156.781.586.781 1.094v2.895c0 .535-.371.988-.867 1.117"/></g></g></g></g></g></svg>