<svg xmlns="http://www.w3.org/2000/svg" id="svg4136" width="1300" height="514.33" viewBox="0 0 1300 514.32977"><g id="g4164" transform="translate(0 .33)" fill="#f1f1f1"><path d="M672.75 513.253c7.287-.171 19.212-.171 26.5 0 7.287.17 1.325.31-13.25.31s-20.538-.14-13.25-.31zm-387-1c7.287-.171 19.212-.171 26.5 0 7.287.17 1.325.31-13.25.31s-20.538-.14-13.25-.31zM1125.825.25c24.38-.149 63.98-.149 88 0 24.021.15 4.075.272-44.325.271-48.4 0-68.054-.122-43.675-.27z" id="path4178"/><path d="M724.75 513.253c7.287-.171 19.212-.171 26.5 0 7.287.17 1.325.31-13.25.31s-20.538-.14-13.25-.31zm-387-1c7.287-.171 19.212-.171 26.5 0 7.287.17 1.325.31-13.25.31s-20.538-.14-13.25-.31zM951.25.25c24.063-.149 63.438-.149 87.5 0 24.063.15 4.375.272-43.75.272S927.187.399 951.25.25z" id="path4176"/><path d="M776.191 513.253c6.98-.171 18.68-.172 26 0 7.32.17 1.609.31-12.691.311-14.3 0-20.29-.14-13.309-.31zm-387-1c6.98-.171 18.68-.172 26 0 7.32.17 1.609.31-12.691.311-14.3 0-20.29-.14-13.309-.31zM776.825.25c24.38-.149 63.98-.149 88 0C888.846.4 868.9.522 820.5.521c-48.4 0-68.054-.122-43.675-.27z" id="path4174"/><path d="M833.684 513.252c10.55-.162 28.1-.163 39-.001 10.899.162 2.266.294-19.184.294-21.45 0-30.367-.132-19.816-.293zm-387-1c10.55-.162 28.1-.163 39-.001 10.899.162 2.266.294-19.184.294-21.45 0-30.367-.132-19.816-.293zM537.328.25c36.205-.145 95.155-.145 131 0 35.845.146 6.222.265-65.828.265S501.123.395 537.328.25z" id="path4172"/><path d="M904.75 513.253c7.287-.171 19.212-.171 26.5 0 7.287.17 1.325.31-13.25.31s-20.538-.14-13.25-.31zm-387-1c7.287-.171 19.212-.171 26.5 0 7.287.17 1.325.31-13.25.31s-20.538-.14-13.25-.31zM341.25.25c24.063-.149 63.438-.149 87.5 0 24.063.15 4.375.272-43.75.272S317.187.399 341.25.25z" id="path4170"/><path d="M956.191 513.253c6.98-.171 18.68-.172 26 0 7.32.17 1.609.31-12.691.311-14.3 0-20.29-.14-13.309-.31zm-387-1c6.98-.171 18.68-.172 26 0 7.32.17 1.609.31-12.691.311-14.3 0-20.29-.14-13.309-.31zM167.25.25c24.063-.149 63.438-.149 87.5 0 24.063.15 4.375.272-43.75.272S143.187.399 167.25.25z" id="path4168"/><path d="M777.5 512.945c-119.9-.358-285.07-.717-367.044-.798L261.412 512l-14.869-25.75A30433.247 30433.247 0 0 0 224.425 448c-3.988-6.875-18.151-31.4-31.474-54.5s-27.602-47.85-31.732-55c-4.13-7.15-10.748-18.625-14.707-25.5-14.198-24.654-56.953-98.726-63.493-110-3.669-6.325-10.308-17.8-14.753-25.5-14-24.251-56.295-97.557-62.408-108.168L0 59.165V-.33l93.165.665c51.241.366 343.741.665 650 .665H1300v30.25c0 29.147-.082 30.378-2.143 33.75-1.799 2.942-37.24 63.392-80.617 137.5-5.794 9.9-13.326 22.725-16.736 28.5a8533.262 8533.262 0 0 0-17 29 7633.7 7633.7 0 0 1-17.009 29c-3.415 5.775-7.775 13.2-9.69 16.5-2.923 5.04-32.811 56.075-82.577 141-15.747 26.872-25.026 42.672-32.742 55.75l-6.933 11.75-19.525-.202c-10.742-.11-117.628-.495-237.528-.853z" id="path4166"/></g></svg>