<svg xmlns:osb="http://www.openswatchbook.org/uri/2009/osb" xmlns="http://www.w3.org/2000/svg" width="79.334" height="77.716" viewBox="0 0 79.333663 77.715924" id="svg2"><defs id="defs4"><linearGradient id="linearGradient6005" osb:paint="solid"><stop offset="0" id="stop6007" stop-color="#1e0f00"/></linearGradient><clipPath id="clipPath3350"><path id="path3352" d="M0 0h43.92v32.88H0V0z"/></clipPath><clipPath id="clipPath3362"><path id="path3364" d="M0 32.88h43.926V0H0v32.88z"/></clipPath><clipPath id="clipPath3409"><path id="path3411" d="M0 261.602h408.801V0H0v261.602z"/></clipPath><clipPath id="clipPath3462"><path id="path3464" d="M0 267.059h267.062V0H0v267.059z"/></clipPath><clipPath id="clipPath4291"><path id="path4293" d="M0 0h265.92v268.799H0V0z"/></clipPath><clipPath id="clipPath4349"><path id="path4351" d="M0 267.059h267.062V0H0v267.059z"/></clipPath><clipPath id="clipPath4378"><path id="path4380" d="M0 447.57h447.461V0H0v447.57z"/></clipPath><clipPath id="clipPath4425"><path id="path4427" d="M0 48h48V0H0v48z"/></clipPath><clipPath id="clipPath4445"><path id="path4447" d="M0 0h48v48H0V0z"/></clipPath><clipPath id="clipPath4469"><path id="path4471" d="M0 48h48V0H0v48z"/></clipPath><clipPath id="clipPath4520"><path id="path4522" d="M0 0h46.8v47.759H0V0z"/></clipPath><clipPath id="clipPath4536"><path id="path4538" d="M0 47.76h46.8V0H0v47.76z"/></clipPath><clipPath id="clipPath6025"><path id="path6027" d="M0 44h48V0H0v44z"/></clipPath><clipPath id="clipPath6118"><path id="path6120" d="M0 258.832h364.672V0H0v258.832z"/></clipPath></defs><g id="layer1" transform="translate(-2906.055 -2044.877)"><g transform="matrix(.94418 0 0 -.89821 695.745 741.615)" id="g3344"><ellipse id="path6153" cx="2370.943" cy="1261.786" transform="scale(1 -1)" rx="34.083" ry="21.363" fill="#fff"/><ellipse id="path6155" cx="2373.783" cy="1256.879" transform="scale(1 -1)" rx="24.994" ry="17.032" fill="#fff"/><ellipse id="path6159" cx="2383.042" cy="1494.212" transform="scale(1 -1)" rx="40.9" ry="42.148" fill="#30ceab"/><text style="line-height:125%" x="2089.495" y="1375.784" id="text6169" transform="matrix(1.0502 .01144 .11324 -.95097 0 0)" font-weight="400" font-size="40.502" font-family="sans-serif" letter-spacing="0" word-spacing="0" fill="#fff"><tspan id="tspan6171" x="2089.495" y="1375.784" font-size="60.754">?</tspan></text><text style="line-height:125%" x="2425.731" y="1480.963" id="text6173" transform="scale(.97535 -1.02527)" font-weight="400" font-size="65.153" font-family="sans-serif" letter-spacing="0" word-spacing="0" fill="#fff"><tspan id="tspan6175" x="2425.731" y="1480.963">?</tspan></text></g></g></svg>