<svg xmlns:osb="http://www.openswatchbook.org/uri/2009/osb" xmlns="http://www.w3.org/2000/svg" width="52.529" height="83.762" viewBox="0 0 52.528751 83.762498" id="svg2"><defs id="defs4"><linearGradient id="linearGradient6005" osb:paint="solid"><stop offset="0" id="stop6007" stop-color="#1e0f00"/></linearGradient><clipPath id="clipPath3350"><path id="path3352" d="M0 0h43.92v32.88H0V0z"/></clipPath><clipPath id="clipPath3362"><path id="path3364" d="M0 32.88h43.926V0H0v32.88z"/></clipPath><clipPath id="clipPath3409"><path id="path3411" d="M0 261.602h408.801V0H0v261.602z"/></clipPath><clipPath id="clipPath3462"><path id="path3464" d="M0 267.059h267.062V0H0v267.059z"/></clipPath><clipPath id="clipPath4291"><path id="path4293" d="M0 0h265.92v268.799H0V0z"/></clipPath><clipPath id="clipPath4349"><path id="path4351" d="M0 267.059h267.062V0H0v267.059z"/></clipPath><clipPath id="clipPath4378"><path id="path4380" d="M0 447.57h447.461V0H0v447.57z"/></clipPath><clipPath id="clipPath4425"><path id="path4427" d="M0 48h48V0H0v48z"/></clipPath><clipPath id="clipPath4445"><path id="path4447" d="M0 0h48v48H0V0z"/></clipPath><clipPath id="clipPath4469"><path id="path4471" d="M0 48h48V0H0v48z"/></clipPath><clipPath id="clipPath4520"><path id="path4522" d="M0 0h46.8v47.759H0V0z"/></clipPath><clipPath id="clipPath4536"><path id="path4538" d="M0 47.76h46.8V0H0v47.76z"/></clipPath><clipPath id="clipPath6025"><path id="path6027" d="M0 44h48V0H0v44z"/></clipPath></defs><g id="layer1" transform="translate(-2790.032 -1991.164)"><g transform="matrix(1.25 0 0 -1.25 2.939 313.78)" id="g3344"><g transform="matrix(-1 0 0 1 2270.898 -1408.118)" id="g6095" fill="#fff"><g transform="translate(7.638 65.41)" id="g6097"><path id="path6099" d="M0 0l-7.638-7.637L17.43-32.709-7.638-57.774 0-65.41l32.705 32.701L0 0z"/></g></g></g></g></svg>