<svg xmlns="http://www.w3.org/2000/svg" width="561.426" height="561.462" viewBox="0 0 561.42627 561.4623" id="svg2"><defs id="defs4"><clipPath id="clipPath3350"><path id="path3352" d="M0 0h43.92v32.88H0V0z"/></clipPath><clipPath id="clipPath3362"><path id="path3364" d="M0 32.88h43.926V0H0v32.88z"/></clipPath><clipPath id="clipPath3409"><path id="path3411" d="M0 261.602h408.801V0H0v261.602z"/></clipPath><clipPath id="clipPath3462"><path id="path3464" d="M0 267.059h267.062V0H0v267.059z"/></clipPath><clipPath id="clipPath4291"><path id="path4293" d="M0 0h265.92v268.799H0V0z"/></clipPath><clipPath id="clipPath4349"><path id="path4351" d="M0 267.059h267.062V0H0v267.059z"/></clipPath><clipPath id="clipPath4378"><path id="path4380" d="M0 447.57h447.461V0H0v447.57z"/></clipPath></defs><g id="layer1" transform="translate(-1473.08 -1401.41)"><g transform="matrix(1.25 0 0 -1.25 2.939 313.78)" id="g3344"><g transform="translate(1176.994 -1318.475)" id="g4372" fill="#18b5fa"><g id="g4374"><g clip-path="url(#clipPath4378)" id="g4376"><g transform="translate(251.68 104.356)" id="g4382"><path id="path4384" d="M0 0h-38.782c-49.519 0-88.323 38.172-88.323 86.906 0 5.949 4.827 10.778 10.773 10.778 5.949 0 10.777-4.829 10.777-10.778 0-36.648 29.328-65.351 66.773-65.351H0c37.445 0 66.773 28.07 66.773 63.91 0 5.953 4.821 10.773 10.774 10.773 5.949 0 10.773-4.82 10.773-10.773C88.324 37.538 49.52 0 0 0"/></g><g transform="translate(181.71 283.66)" id="g4386"><path id="path4388" d="M0 0a10.74 10.74 0 0 0-7.621 3.16c-10.215 10.207-27.09 10.574-36.887.781-4.211-4.207-11.027-4.207-15.234 0-4.211 4.211-4.211 11.036 0 15.243 18.043 18.047 48.886 17.695 67.355-.789 4.211-4.204 4.211-11.032 0-15.235A10.742 10.742 0 0 0 0 0"/></g><g transform="translate(328.266 283.66)" id="g4390"><path id="path4392" d="M0 0a10.747 10.747 0 0 0-7.621 3.16c-10.215 10.207-27.086 10.574-36.883.781-4.203-4.207-11.027-4.207-15.238 0-4.199 4.211-4.199 11.036 0 15.243 18.047 18.047 48.89 17.695 67.355-.789 4.211-4.204 4.211-11.032 0-15.235A10.722 10.722 0 0 0 0 0"/></g><g transform="translate(223.73 426.012)" id="g4394"><path id="path4396" d="M0 0c-111.48 0-202.183-90.719-202.183-202.231 0-111.513 90.703-202.234 202.183-202.234 111.489 0 202.184 90.721 202.184 202.234C202.184-90.719 111.481 0 0 0m0-426.012c-123.367 0-223.73 100.39-223.73 223.781C-223.73-78.832-123.375 21.558 0 21.558c123.364 0 223.731-100.39 223.731-223.789C223.727-325.622 123.356-426.012 0-426.012"/></g></g></g></g></g></g></svg>