<svg xmlns="http://www.w3.org/2000/svg" width="53.117" height="51.036" viewBox="0 0 49.797337 47.846249" id="svg2"><defs id="defs4"><clipPath id="clipPath4150"><path id="path4152" d="M0 0h26.88v21.839H0V0z"/></clipPath><clipPath id="clipPath4150-6"><path id="path4152-0" d="M0 0h26.88v21.839H0V0z"/></clipPath><clipPath id="clipPath4231"><path id="path4233" d="M0 47.211h32.785V0H0v47.211z"/></clipPath><clipPath id="clipPath4260"><path id="path4262" d="M0 0h39.839v39.839H0V0z"/></clipPath></defs><g id="layer1" transform="translate(-409.694 -433.961)"><g transform="rotate(180 185.524 195.47) scale(1.25)" id="g4144"><g transform="matrix(-1 0 0 1 -30.917 -73.653)" id="g4254"><g id="g4256"><g clip-path="url(#clipPath4260)" id="g4258"><g transform="translate(30.145 13.675)" id="g4264"><path id="path4266" d="M0 0l1.652-9.633a1.247 1.247 0 0 0-.504-1.238 1.24 1.24 0 0 0-1.332-.094l-8.652 4.547a2.867 2.867 0 0 1-2.667 0l-8.649-4.547a1.24 1.24 0 0 0-1.332.094 1.247 1.247 0 0 0-.504 1.238L-20.335 0a2.87 2.87 0 0 1-.826 2.539l-7 6.82a1.244 1.244 0 0 0-.319 1.297c.151.469.535.793 1.02.863l9.674 1.406c.934.133 1.74.719 2.158 1.567l4.323 8.765c.22.442.644.704 1.138.704.491 0 .913-.262 1.132-.704l4.328-8.765a2.846 2.846 0 0 1 2.156-1.567l9.672-1.406c.488-.07.871-.394 1.02-.863a1.244 1.244 0 0 0-.317-1.297l-7-6.82A2.865 2.865 0 0 1 0 0m8.941 8.215a2.845 2.845 0 0 1 .723 2.937 2.84 2.84 0 0 1-2.312 1.949l-9.676 1.406c-.41.059-.766.321-.949.692l-4.325 8.766a2.853 2.853 0 0 1-2.569 1.597 2.853 2.853 0 0 1-2.571-1.597l-4.324-8.766a1.274 1.274 0 0 0-.954-.692l-9.675-1.406a2.838 2.838 0 0 1-2.312-1.949 2.856 2.856 0 0 1 .726-2.937l7-6.82c.297-.293.433-.711.362-1.122l-1.651-9.637a2.848 2.848 0 0 1 1.14-2.8 2.843 2.843 0 0 1 3.015-.219l8.653 4.551c.367.191.809.191 1.18 0l8.648-4.551a2.887 2.887 0 0 1 1.336-.332c.594 0 1.18.188 1.684.551a2.854 2.854 0 0 1 1.14 2.8L1.574.273c-.07.411.067.829.367 1.118l7 6.824z"/></g></g></g></g></g></g></svg>