<svg xmlns="http://www.w3.org/2000/svg" id="svg2" viewBox="0 0 540.09449 540.36219" height="540.362" width="540.094"><defs id="defs4"><clipPath id="clipPath3350"><path d="M0 409.602h409.602V0H0v409.602z" id="path3352"/></clipPath></defs><g transform="translate(0 -512)" id="layer1"><g id="g3344" transform="matrix(1.25 0 0 -1.25 13.285 1040.077)" fill="#fff"><g id="g3346"><g id="g3348" clip-path="url(#clipPath3350)"><g id="g3354" transform="translate(204.8 33.21)"><path d="M0 0c-94.613 0-171.59 76.977-171.59 171.589 0 94.615 76.977 171.591 171.59 171.591s171.59-76.976 171.59-171.591C171.59 76.977 94.613 0 0 0m0 376.391c-112.93 0-204.801-91.871-204.801-204.802 0-112.925 91.871-204.8 204.801-204.8 112.926 0 204.801 91.875 204.801 204.8 0 112.931-91.875 204.802-204.801 204.802" id="path3356"/></g><g id="g3358" transform="translate(221.406 211.68)"><path d="M0 0v125.965h-33.211V-13.754l98.797-98.801L89.07-89.07 0 0z" id="path3360"/></g></g></g></g></g></svg>