<svg xmlns="http://www.w3.org/2000/svg" width="43.713" height="62.948" viewBox="0 0 40.980626 59.013497" id="svg2"><defs id="defs4"><clipPath id="clipPath4150"><path id="path4152" d="M0 0h26.88v21.839H0V0z"/></clipPath><clipPath id="clipPath4150-6"><path id="path4152-0" d="M0 0h26.88v21.839H0V0z"/></clipPath><clipPath id="clipPath4231"><path id="path4233" d="M0 47.211h32.785V0H0v47.211z"/></clipPath></defs><g id="layer1" transform="translate(-387.368 -407.33)"><g transform="rotate(180 185.524 195.47) scale(1.25)" id="g4144"><g transform="matrix(-1 0 0 1 -13.057 -60.323)" id="g4225"><g id="g4227"><g clip-path="url(#clipPath4231)" id="g4229"><g transform="translate(26.855 25.969)" id="g4235"><path id="path4237" d="M0 0h-20.984v6.664c0 1.965 1.621 3.563 3.616 3.563h13.747C-1.625 10.227 0 8.629 0 6.664V0zm1.613 6.664c0 2.844-2.347 5.153-5.234 5.153h-13.747c-2.885 0-5.23-2.309-5.23-5.153V-1.59H1.613v8.254zM-2.52-17.215l5.258-8.754 1.391.809-5.258 8.755-1.391-.81zm-22.597-7.945l1.39-.809 5.258 8.754-1.39.81-5.258-8.755zM-.406-8.726c-.797 0-1.446.636-1.446 1.422 0 .785.649 1.425 1.446 1.425.797 0 1.445-.64 1.445-1.425 0-.786-.648-1.422-1.445-1.422m0 4.437c-1.688 0-3.059-1.351-3.059-3.015 0-1.661 1.371-3.011 3.059-3.011 1.687 0 3.058 1.35 3.058 3.011 0 1.664-1.371 3.015-3.058 3.015m-20.177-4.437c-.795 0-1.444.636-1.444 1.422 0 .785.649 1.425 1.444 1.425.797 0 1.446-.64 1.446-1.425 0-.786-.649-1.422-1.446-1.422m0 4.437c-1.687 0-3.062-1.351-3.062-3.015 0-1.661 1.375-3.011 3.062-3.011 1.688 0 3.06 1.35 3.06 3.011 0 1.664-1.372 3.015-3.06 3.015M-2.82 21.242h-15.332v-1.589h15.336v1.589h-.004zm7.136-35.039h-29.559V6.946c0 4.683 3.868 8.492 8.621 8.492h12.317c4.754 0 8.621-3.809 8.621-8.492v-20.743zm-8.621 30.825h-12.317c-5.644 0-10.233-4.524-10.233-10.082v-22.333H5.93V6.946c0 5.558-4.59 10.082-10.235 10.082" fill-rule="evenodd"/></g></g></g></g></g></g></svg>