<svg xmlns="http://www.w3.org/2000/svg" width="58.56" height="41.741" viewBox="0 0 54.900002 39.131748" id="svg2"><defs id="defs4"><clipPath id="clipPath4150"><path id="path4152" d="M0 0h26.88v21.839H0V0z"/></clipPath><clipPath id="clipPath4150-6"><path id="path4152-0" d="M0 0h26.88v21.839H0V0z"/></clipPath><clipPath id="clipPath4231"><path id="path4233" d="M0 47.211h32.785V0H0v47.211z"/></clipPath><clipPath id="clipPath4260"><path id="path4262" d="M0 0h39.839v39.839H0V0z"/></clipPath><clipPath id="clipPath4289"><path id="path4291" d="M0 0h43.92v32.88H0V0z"/></clipPath><clipPath id="clipPath4301"><path id="path4303" d="M0 32.88h43.926V0H0v32.88z"/></clipPath></defs><g id="layer1" transform="translate(-412.17 -437.62)"><g transform="rotate(180 185.524 195.47) scale(1.25)" id="g4144"><g transform="matrix(-1 0 0 1 -32.899 -69.607)" id="g4283"><g id="g4285"><g clip-path="url(#clipPath4289)" id="g4287"><g transform="translate(43.691 23.276)" id="g4293"><path id="path4295" d="M0 0c-5.793 5.797-13.512 8.988-21.727 8.988-8.218 0-15.933-3.191-21.731-8.988a.798.798 0 0 1 0-1.129.802.802 0 0 1 1.134 0C-36.833 4.363-29.52 7.39-21.727 7.39c7.789 0 15.102-3.027 20.598-8.519a.794.794 0 0 1 1.129 0A.798.798 0 0 1 0 0"/></g></g></g><g id="g4297"><g clip-path="url(#clipPath4301)" id="g4299"><g transform="translate(4.938 18.577)" id="g4305"><path id="path4307" d="M0 0a.8.8 0 0 1 .566-1.368c.203 0 .41.078.562.235 8.766 8.765 23.028 8.765 31.793 0A.8.8 0 0 1 34.05 0C24.664 9.386 9.386 9.386 0 0"/></g><g transform="translate(21.965 18.971)" id="g4309"><path id="path4311" d="M0 0c-4.66 0-9.039-1.812-12.324-5.098a.8.8 0 0 1 1.129-1.132A15.736 15.736 0 0 0 0-1.602c4.23 0 8.207-1.645 11.191-4.628a.795.795 0 0 1 1.129 0 .8.8 0 0 1 0 1.132A17.304 17.304 0 0 1 0 0"/></g><g transform="translate(21.965 2.56)" id="g4313"><path id="path4315" d="M0 0a3.646 3.646 0 0 0-3.641 3.642A3.644 3.644 0 0 0 0 7.281a3.647 3.647 0 0 0 3.641-3.639A3.646 3.646 0 0 0 0 0m0 8.884a5.249 5.249 0 0 1-5.242-5.242A5.248 5.248 0 0 1 0-1.602a5.245 5.245 0 0 1 5.238 5.244A5.245 5.245 0 0 1 0 8.884"/></g></g></g></g></g></g></svg>