<?xml version="1.0" encoding="UTF-8" standalone="no"?>
<svg
   xmlns:dc="http://purl.org/dc/elements/1.1/"
   xmlns:cc="http://creativecommons.org/ns#"
   xmlns:rdf="http://www.w3.org/1999/02/22-rdf-syntax-ns#"
   xmlns:svg="http://www.w3.org/2000/svg"
   xmlns="http://www.w3.org/2000/svg"
   version="1.1"
   id="svg2"
   viewBox="0 0 513.10077 329.00251"
   height="329.0025"
   width="513.10077">
  <defs
     id="defs4">
    <clipPath
       clipPathUnits="userSpaceOnUse"
       id="clipPath3350">
      <path
         d="m 0,0 43.92,0 0,32.88 L 0,32.88 0,0 Z"
         id="path3352" />
    </clipPath>
    <clipPath
       clipPathUnits="userSpaceOnUse"
       id="clipPath3362">
      <path
         d="m 0,32.88 43.926,0 L 43.926,0 0,0 0,32.88 Z"
         id="path3364" />
    </clipPath>
    <clipPath
       clipPathUnits="userSpaceOnUse"
       id="clipPath3409">
      <path
         d="m 0,261.602 408.801,0 L 408.801,0 0,0 0,261.602 Z"
         id="path3411" />
    </clipPath>
  </defs>
  <metadata
     id="metadata7">
    <rdf:RDF>
      <cc:Work
         rdf:about="">
        <dc:format>image/svg+xml</dc:format>
        <dc:type
           rdf:resource="http://purl.org/dc/dcmitype/StillImage" />
        <dc:title></dc:title>
      </cc:Work>
    </rdf:RDF>
  </metadata>
  <g
     transform="translate(-2.9565774,-721.93174)"
     id="layer1">
    <g
       id="g3344"
       transform="matrix(1.25,0,0,-1.25,2.9386541,313.78018)">
      <g
         id="g3403"
         transform="translate(0.89433865,-588.92325)">
        <g
           id="g3405">
          <g
             id="g3407"
             clip-path="url(#clipPath3409)">
            <g
               id="g3413"
               transform="translate(319.6016,12)">
              <path
                 d="m 0,0 c -42.57,0 -77.203,34.633 -77.203,77.203 0,42.567 34.633,77.199 77.203,77.199 21.383,0 40.762,-8.741 54.758,-22.84 L 58.938,127 C 70.324,113.547 77.199,96.164 77.199,77.203 77.199,34.633 42.566,0 0,0 m -58.82,156.128 c 1.754,1.715 2.285,4.329 1.343,6.595 -0.945,2.265 -3.168,3.711 -5.625,3.692 l -0.941,-0.013 -13.16,0 0,26 c 0,17.864 14.535,32.398 32.402,32.398 8.344,0 16.242,-3.152 22.289,-8.883 l 0.028,-0.031 49.023,-53.514 c -8.387,2.616 -17.301,4.03 -26.539,4.03 -32.215,0 -60.496,-17.168 -76.176,-42.836 2.25,12.312 8.211,23.605 17.356,32.562 M -89.203,96 l -52.001,0 0,16.402 c 0,15.269 -4.625,29.789 -13.217,42 l 78.441,0 c -8.598,-12.211 -13.223,-26.731 -13.223,-42 l 0,-16.402 z m -141.199,70.402 c -9.239,0 -18.153,-1.414 -26.539,-4.03 l 49.024,53.514 0.026,0.031 c 6.043,5.731 13.946,8.883 22.289,8.883 17.868,0 32.398,-14.534 32.398,-32.398 l 0,-26 -13.198,0 c -0.138,0 -0.274,-0.004 -0.407,-0.016 -1.746,0.169 -3.543,-0.426 -4.862,-1.773 -2.322,-2.366 -2.279,-6.168 0.089,-8.485 9.145,-8.957 15.102,-20.25 17.355,-32.558 -15.68,25.664 -43.96,42.832 -76.175,42.832 m 0,-166.402 c -42.567,0 -77.2,34.633 -77.2,77.203 0,18.961 6.875,36.344 18.258,49.797 l 4.183,4.562 c 13.994,14.099 33.375,22.84 54.759,22.84 42.57,0 77.198,-34.632 77.198,-77.199 C -153.204,34.633 -187.832,0 -230.402,0 m 77.198,224.402 0,-1.688 c -5.543,5.922 -12.683,10.326 -20.73,12.52 2.164,1.504 4.777,2.368 7.532,2.368 7.277,0 13.198,-5.922 13.198,-13.2 m 76.001,0 c 0,7.278 5.922,13.2 13.203,13.2 2.754,0 5.367,-0.864 7.531,-2.368 -8.047,-2.194 -15.187,-6.598 -20.734,-12.52 l 0,1.688 z M 68.98,133.687 c -0.167,0.25 -0.347,0.497 -0.558,0.724 l -0.574,0.629 c -1.36,1.588 -2.774,3.131 -4.239,4.627 l -76.953,84.004 c -0.16,0.204 -0.336,0.399 -0.527,0.582 -7.66,7.442 -17.57,11.797 -28.149,12.454 -4.398,7.852 -12.769,12.895 -21.98,12.895 -13.898,0 -25.203,-11.306 -25.203,-25.2 l 0,-58 -52.001,0 0,58 c 0,13.894 -11.304,25.2 -25.198,25.2 -9.212,0 -17.582,-5.047 -21.985,-12.895 -10.578,-0.657 -20.485,-5.012 -28.149,-12.454 -0.187,-0.183 -0.362,-0.378 -0.523,-0.582 l -76.953,-84.004 c -1.465,-1.496 -2.883,-3.039 -4.241,-4.627 l -0.576,-0.629 c -0.207,-0.227 -0.39,-0.474 -0.558,-0.724 -12.625,-15.39 -20.215,-35.07 -20.215,-56.484 0,-49.187 40.017,-89.203 89.2,-89.203 49.187,0 89.198,40.016 89.198,89.203 0,2.285 -0.086,4.555 -0.256,6.797 l 52.515,0 c -0.168,-2.242 -0.258,-4.512 -0.258,-6.797 0,-49.187 40.015,-89.203 89.199,-89.203 49.188,0 89.203,40.016 89.203,89.203 0,21.414 -7.59,41.094 -20.219,56.484"
                 style="fill:#686460;fill-opacity:1;fill-rule:nonzero;stroke:none"
                 id="path3415" />
            </g>
            <g
               id="g3417"
               transform="translate(89.1992,37.6016)">
              <path
                 d="m 0,0 c -28.453,0 -51.597,23.148 -51.597,51.602 0,28.449 23.144,51.597 51.597,51.597 28.453,0 51.602,-23.148 51.602,-51.597 C 51.602,23.148 28.453,0 0,0 m 0,115.199 c -35.066,0 -63.597,-28.531 -63.597,-63.597 C -63.597,16.531 -35.066,-12 0,-12 c 35.071,0 63.602,28.531 63.602,63.602 0,35.066 -28.531,63.597 -63.602,63.597"
                 style="fill:#686460;fill-opacity:1;fill-rule:nonzero;stroke:none"
                 id="path3419" />
            </g>
            <g
               id="g3421"
               transform="translate(319.6016,37.6016)">
              <path
                 d="m 0,0 c -28.453,0 -51.602,23.148 -51.602,51.602 0,28.449 23.149,51.597 51.602,51.597 28.449,0 51.598,-23.148 51.598,-51.597 C 51.598,23.148 28.449,0 0,0 m 0,115.199 c -35.07,0 -63.602,-28.531 -63.602,-63.597 C -63.602,16.531 -35.07,-12 0,-12 c 35.066,0 63.598,28.531 63.598,63.602 0,35.066 -28.532,63.597 -63.598,63.597"
                 style="fill:#686460;fill-opacity:1;fill-rule:nonzero;stroke:none"
                 id="path3423" />
            </g>
            <g
               id="g3425"
               transform="translate(319.6016,127.2031)">
              <path
                 d="m 0,0 c -3.316,0 -6,-2.688 -6,-6 0,-3.316 2.684,-6 6,-6 14.336,0 26,-11.664 26,-26 0,-3.316 2.684,-6 6,-6 3.313,0 6,2.684 6,6 C 38,-17.047 20.953,0 0,0"
                 style="fill:#686460;fill-opacity:1;fill-rule:nonzero;stroke:none"
                 id="path3427" />
            </g>
            <g
               id="g3429"
               transform="translate(89.1992,127.2031)">
              <path
                 d="m 0,0 c -3.313,0 -6,-2.688 -6,-6 0,-3.316 2.687,-6 6,-6 14.336,0 26,-11.664 26,-26 0,-3.316 2.687,-6 6,-6 3.313,0 6,2.684 6,6 C 38,-17.047 20.953,0 0,0"
                 style="fill:#686460;fill-opacity:1;fill-rule:nonzero;stroke:none"
                 id="path3431" />
            </g>
          </g>
        </g>
      </g>
    </g>
  </g>
</svg>
