<?xml version="1.0" encoding="UTF-8" standalone="no"?>
<!-- Created with Inkscape (http://www.inkscape.org/) -->

<svg
   xmlns:osb="http://www.openswatchbook.org/uri/2009/osb"
   xmlns:dc="http://purl.org/dc/elements/1.1/"
   xmlns:cc="http://creativecommons.org/ns#"
   xmlns:rdf="http://www.w3.org/1999/02/22-rdf-syntax-ns#"
   xmlns:svg="http://www.w3.org/2000/svg"
   xmlns="http://www.w3.org/2000/svg"
   xmlns:sodipodi="http://sodipodi.sourceforge.net/DTD/sodipodi-0.dtd"
   xmlns:inkscape="http://www.inkscape.org/namespaces/inkscape"
   width="60.093498"
   height="60.153126"
   viewBox="0 0 60.093498 60.153127"
   id="svg2"
   version="1.1"
   inkscape:version="0.91 r13725"
   sodipodi:docname="budilnik.svg">
  <defs
     id="defs4">
    <linearGradient
       id="linearGradient6005"
       osb:paint="solid">
      <stop
         style="stop-color:#1e0f00;stop-opacity:1;"
         offset="0"
         id="stop6007" />
    </linearGradient>
    <clipPath
       id="clipPath3350"
       clipPathUnits="userSpaceOnUse">
      <path
         inkscape:connector-curvature="0"
         id="path3352"
         d="m 0,0 43.92,0 0,32.88 L 0,32.88 0,0 Z" />
    </clipPath>
    <clipPath
       id="clipPath3362"
       clipPathUnits="userSpaceOnUse">
      <path
         inkscape:connector-curvature="0"
         id="path3364"
         d="m 0,32.88 43.926,0 L 43.926,0 0,0 0,32.88 Z" />
    </clipPath>
    <clipPath
       id="clipPath3409"
       clipPathUnits="userSpaceOnUse">
      <path
         inkscape:connector-curvature="0"
         id="path3411"
         d="m 0,261.602 408.801,0 L 408.801,0 0,0 0,261.602 Z" />
    </clipPath>
    <clipPath
       id="clipPath3462"
       clipPathUnits="userSpaceOnUse">
      <path
         inkscape:connector-curvature="0"
         id="path3464"
         d="m 0,267.059 267.062,0 L 267.062,0 0,0 0,267.059 Z" />
    </clipPath>
    <clipPath
       id="clipPath4291"
       clipPathUnits="userSpaceOnUse">
      <path
         inkscape:connector-curvature="0"
         id="path4293"
         d="m 0,0 265.92,0 0,268.799 L 0,268.799 0,0 Z" />
    </clipPath>
    <clipPath
       id="clipPath4349"
       clipPathUnits="userSpaceOnUse">
      <path
         inkscape:connector-curvature="0"
         id="path4351"
         d="m 0,267.059 267.062,0 L 267.062,0 0,0 0,267.059 Z" />
    </clipPath>
    <clipPath
       id="clipPath4378"
       clipPathUnits="userSpaceOnUse">
      <path
         inkscape:connector-curvature="0"
         id="path4380"
         d="m 0,447.57 447.461,0 L 447.461,0 0,0 0,447.57 Z" />
    </clipPath>
    <clipPath
       id="clipPath4425"
       clipPathUnits="userSpaceOnUse">
      <path
         inkscape:connector-curvature="0"
         id="path4427"
         d="M 0,48 48,48 48,0 0,0 0,48 Z" />
    </clipPath>
    <clipPath
       id="clipPath4445"
       clipPathUnits="userSpaceOnUse">
      <path
         inkscape:connector-curvature="0"
         id="path4447"
         d="M 0,0 48,0 48,48 0,48 0,0 Z" />
    </clipPath>
    <clipPath
       id="clipPath4469"
       clipPathUnits="userSpaceOnUse">
      <path
         inkscape:connector-curvature="0"
         id="path4471"
         d="M 0,48 48,48 48,0 0,0 0,48 Z" />
    </clipPath>
    <clipPath
       id="clipPath4520"
       clipPathUnits="userSpaceOnUse">
      <path
         inkscape:connector-curvature="0"
         id="path4522"
         d="m 0,0 46.8,0 0,47.759 -46.8,0 L 0,0 Z" />
    </clipPath>
    <clipPath
       id="clipPath4536"
       clipPathUnits="userSpaceOnUse">
      <path
         inkscape:connector-curvature="0"
         id="path4538"
         d="m 0,47.76 46.8,0 L 46.8,0 0,0 0,47.76 Z" />
    </clipPath>
  </defs>
  <sodipodi:namedview
     id="base"
     pagecolor="#ffffff"
     bordercolor="#666666"
     borderopacity="1.0"
     inkscape:pageopacity="0.0"
     inkscape:pageshadow="2"
     inkscape:zoom="1.4"
     inkscape:cx="-5.4997551"
     inkscape:cy="138.8846"
     inkscape:document-units="px"
     inkscape:current-layer="g3344"
     showgrid="false"
     units="px"
     inkscape:window-width="1366"
     inkscape:window-height="706"
     inkscape:window-x="-8"
     inkscape:window-y="-8"
     inkscape:window-maximized="1"
     fit-margin-top="1"
     fit-margin-left="1.1"
     fit-margin-right="1"
     fit-margin-bottom="1" />
  <metadata
     id="metadata7">
    <rdf:RDF>
      <cc:Work
         rdf:about="">
        <dc:format>image/svg+xml</dc:format>
        <dc:type
           rdf:resource="http://purl.org/dc/dcmitype/StillImage" />
        <dc:title></dc:title>
      </cc:Work>
    </rdf:RDF>
  </metadata>
  <g
     inkscape:label="Layer 1"
     inkscape:groupmode="layer"
     id="layer1"
     transform="translate(-2535.9037,-1899.6542)">
    <g
       transform="matrix(1.25,0,0,-1.25,2.9386541,313.78018)"
       inkscape:label="smallwifi"
       id="g3344">
      <g
         transform="translate(2027.252,-1316.981)"
         inkscape:label="timer"
         id="g4514"
         style="fill-opacity:1;fill:#1e0f00">
        <g
           id="g4516"
           style="fill-opacity:1;fill:#1e0f00">
          <g
             clip-path="url(#clipPath4520)"
             id="g4518"
             style="fill-opacity:1;fill:#1e0f00">
            <g
               transform="translate(23.1948,21.7588)"
               id="g4524"
               style="fill-opacity:1;fill:#1e0f00">
              <path
                 inkscape:connector-curvature="0"
                 id="path4526"
                 style="fill:#1e0f00;fill-opacity:1;fill-rule:nonzero;stroke:none"
                 d="M 0,0 C -0.879,0 -1.597,0.719 -1.597,1.603 -1.597,2.485 -0.879,3.2 0,3.2 0.883,3.2 1.602,2.485 1.602,1.603 1.602,0.719 0.883,0 0,0 m 8.801,2.403 -5.711,0 C 2.797,3.52 1.922,4.395 0.801,4.688 l 0,8.113 c 0,0.442 -0.359,0.801 -0.801,0.801 -0.441,0 -0.797,-0.359 -0.797,-0.801 l 0,-8.113 c -1.378,-0.36 -2.402,-1.602 -2.402,-3.085 0,-1.767 1.438,-3.2 3.199,-3.2 1.489,0 2.731,1.023 3.09,2.398 l 5.711,0 c 0.442,0 0.801,0.359 0.801,0.802 0,0.44 -0.359,0.8 -0.801,0.8" />
            </g>
            <g
               transform="translate(23.1948,3.3613)"
               id="g4528"
               style="fill-opacity:1;fill:#1e0f00">
              <path
                 inkscape:connector-curvature="0"
                 id="path4530"
                 style="fill:#1e0f00;fill-opacity:1;fill-rule:nonzero;stroke:none"
                 d="m 0,0 c -11.027,0 -20,8.973 -20,20 0,11.027 8.973,20 20,20 C 11.032,40 20,31.027 20,20 20,8.973 11.032,0 0,0 m -20.683,34.777 c -1.371,1.91 -1.196,4.598 0.519,6.313 1.719,1.718 4.403,1.889 6.313,0.518 l -6.832,-6.831 z m 40.851,6.313 c 1.715,-1.715 1.891,-4.403 0.52,-6.313 l -6.832,6.831 c 1.91,1.371 4.594,1.2 6.312,-0.518 m -3.277,-4.782 3.277,-3.273 c 0.153,-0.152 0.356,-0.234 0.567,-0.234 0.211,0 0.414,0.082 0.566,0.234 2.532,2.53 2.532,6.652 0,9.188 -2.535,2.53 -6.656,2.53 -9.191,0 -0.149,-0.153 -0.235,-0.356 -0.235,-0.567 0,-0.216 0.086,-0.418 0.235,-0.566 l 3.652,-3.65 -1.359,-1.358 c -3.824,3.426 -8.871,5.516 -14.399,5.516 -5.527,0 -10.574,-2.09 -14.398,-5.516 l -1.363,1.358 3.652,3.65 c 0.148,0.152 0.234,0.35 0.234,0.566 0,0.211 -0.086,0.414 -0.234,0.567 -2.535,2.53 -6.656,2.53 -9.192,0 -2.531,-2.536 -2.531,-6.658 0,-9.188 0.153,-0.152 0.356,-0.234 0.567,-0.234 0.215,0 0.418,0.082 0.566,0.234 l 3.278,3.273 1.339,-1.339 c -3.742,-3.887 -6.05,-9.161 -6.05,-14.969 0,-7.918 4.285,-14.853 10.656,-18.613 l -2.422,-2.422 c -0.312,-0.314 -0.312,-0.821 0,-1.133 0.156,-0.156 0.359,-0.234 0.566,-0.234 0.204,0 0.407,0.078 0.563,0.234 l 2.762,2.762 C -6.609,-0.81 -3.394,-1.603 0,-1.603 c 3.399,0 6.614,0.793 9.477,2.197 l 2.758,-2.762 c 0.156,-0.156 0.363,-0.234 0.566,-0.234 0.207,0 0.41,0.078 0.567,0.234 0.312,0.312 0.312,0.819 0,1.133 l -2.422,2.422 c 6.371,3.76 10.656,10.695 10.656,18.613 0,5.808 -2.309,11.082 -6.051,14.969 l 1.34,1.339 z" />
            </g>
          </g>
        </g>
        <g
           id="g4532"
           style="fill-opacity:1;fill:#1e0f00">
          <g
             clip-path="url(#clipPath4536)"
             id="g4534"
             style="fill-opacity:1;fill:#1e0f00">
            <g
               transform="translate(32.2695,9.2441)"
               id="g4540"
               style="fill-opacity:1;fill:#1e0f00">
              <path
                 inkscape:connector-curvature="0"
                 id="path4542"
                 style="fill:#1e0f00;fill-opacity:1;fill-rule:nonzero;stroke:none"
                 d="M 0,0 -0.379,0.66 C -0.602,1.043 -1.09,1.175 -1.473,0.953 -1.855,0.729 -1.984,0.242 -1.766,-0.142 l 0.383,-0.664 c -2.082,-1.073 -4.414,-1.718 -6.89,-1.84 l 0,0.763 c 0,0.441 -0.356,0.801 -0.797,0.801 -0.442,0 -0.802,-0.36 -0.802,-0.801 l 0,-0.763 c -2.472,0.118 -4.808,0.767 -6.89,1.84 l 0.384,0.664 c 0.221,0.384 0.088,0.871 -0.293,1.095 -0.384,0.222 -0.871,0.09 -1.095,-0.293 L -18.145,0 c -2.02,1.3 -3.742,3.022 -5.042,5.043 l 0.66,0.379 c 0.382,0.222 0.515,0.711 0.293,1.093 -0.224,0.382 -0.711,0.516 -1.095,0.293 l -0.659,-0.383 c -1.078,2.083 -1.722,4.418 -1.844,6.89 l 0.762,0 c 0.442,0 0.8,0.357 0.8,0.802 0,0.441 -0.358,0.797 -0.8,0.797 l -0.762,0 c 0.118,2.476 0.762,4.808 1.839,6.89 l 0.664,-0.382 c 0.125,-0.075 0.263,-0.106 0.399,-0.106 0.278,0 0.547,0.141 0.696,0.399 0.218,0.382 0.089,0.871 -0.293,1.093 l -0.66,0.383 c 1.3,2.02 3.02,3.738 5.039,5.043 l 0.382,-0.66 c 0.148,-0.258 0.418,-0.402 0.696,-0.402 0.133,0 0.269,0.035 0.399,0.109 0.381,0.219 0.51,0.707 0.293,1.09 l -0.384,0.664 c 2.082,1.078 4.414,1.723 6.887,1.84 l 0,-0.758 c 0,-0.442 0.359,-0.801 0.8,-0.801 0.442,0 0.802,0.359 0.802,0.801 l 0,0.758 c 2.472,-0.117 4.808,-0.762 6.89,-1.84 l -0.383,-0.664 c -0.222,-0.383 -0.089,-0.871 0.293,-1.09 0.125,-0.074 0.262,-0.109 0.399,-0.109 0.277,0 0.543,0.144 0.691,0.402 L 0,28.234 C 2.02,26.929 3.742,25.211 5.043,23.191 L 4.383,22.808 C 4,22.59 3.867,22.097 4.09,21.715 c 0.148,-0.254 0.418,-0.399 0.691,-0.399 0.137,0 0.274,0.035 0.403,0.106 l 0.66,0.386 c 1.078,-2.086 1.722,-4.418 1.84,-6.89 l -0.758,0 c -0.442,0 -0.801,-0.36 -0.801,-0.801 0,-0.442 0.359,-0.802 0.801,-0.802 l 0.758,0 C 7.566,10.843 6.922,8.508 5.844,6.425 L 5.184,6.812 C 4.797,7.031 4.309,6.897 4.09,6.519 3.867,6.133 4,5.644 4.383,5.425 L 5.043,5.043 C 3.742,3.022 2.023,1.3 0,0 m 6.832,23.351 c -1.605,2.758 -3.91,5.063 -6.668,6.668 -0.016,0.012 -0.023,0.024 -0.035,0.031 -0.016,0.008 -0.031,0.008 -0.043,0.016 -2.699,1.555 -5.824,2.449 -9.156,2.449 -3.332,0 -6.461,-0.894 -9.157,-2.449 -0.016,-0.008 -0.031,-0.008 -0.046,-0.016 -0.013,-0.007 -0.019,-0.019 -0.032,-0.031 -2.761,-1.605 -5.063,-3.91 -6.672,-6.668 -0.007,-0.015 -0.023,-0.023 -0.031,-0.035 -0.008,-0.016 -0.008,-0.031 -0.012,-0.043 -1.559,-2.699 -2.453,-5.824 -2.453,-9.156 0,-3.332 0.894,-6.457 2.453,-9.156 0.004,-0.016 0.004,-0.032 0.012,-0.043 0.011,-0.024 0.028,-0.035 0.044,-0.055 1.605,-2.75 3.905,-5.048 6.659,-6.652 0.013,-0.008 0.019,-0.024 0.032,-0.032 0.023,-0.011 0.043,-0.015 0.065,-0.023 2.696,-1.552 5.813,-2.441 9.138,-2.441 3.324,0 6.441,0.889 9.132,2.441 0.024,0.008 0.047,0.012 0.067,0.023 0.012,0.008 0.019,0.024 0.035,0.032 2.75,1.604 5.051,3.902 6.66,6.652 0.012,0.02 0.028,0.031 0.039,0.055 0.008,0.011 0.008,0.027 0.016,0.043 1.555,2.699 2.449,5.824 2.449,9.156 0,3.332 -0.894,6.457 -2.449,9.156 -0.008,0.012 -0.008,0.027 -0.016,0.043 -0.008,0.012 -0.023,0.02 -0.031,0.035" />
            </g>
          </g>
        </g>
      </g>
    </g>
  </g>
</svg>
