<?xml version="1.0" encoding="UTF-8" standalone="no"?>
<!-- Created with Inkscape (http://www.inkscape.org/) -->

<svg
   xmlns:dc="http://purl.org/dc/elements/1.1/"
   xmlns:cc="http://creativecommons.org/ns#"
   xmlns:rdf="http://www.w3.org/1999/02/22-rdf-syntax-ns#"
   xmlns:svg="http://www.w3.org/2000/svg"
   xmlns="http://www.w3.org/2000/svg"
   xmlns:sodipodi="http://sodipodi.sourceforge.net/DTD/sodipodi-0.dtd"
   xmlns:inkscape="http://www.inkscape.org/namespaces/inkscape"
   width="540.09448"
   height="540.36218"
   viewBox="0 0 540.09449 540.36219"
   id="svg2"
   version="1.1"
   inkscape:version="0.91 r13725"
   sodipodi:docname="call.svg">
  <defs
     id="defs4">
    <clipPath
       id="clipPath3350"
       clipPathUnits="userSpaceOnUse">
      <path
         inkscape:connector-curvature="0"
         id="path3352"
         d="m 0,409.602 409.602,0 L 409.602,0 0,0 0,409.602 Z" />
    </clipPath>
    <clipPath
       id="clipPath3385"
       clipPathUnits="userSpaceOnUse">
      <path
         inkscape:connector-curvature="0"
         id="path3387"
         d="m 0,409.602 409.602,0 L 409.602,0 0,0 0,409.602 Z" />
    </clipPath>
    <clipPath
       id="clipPath3420"
       clipPathUnits="userSpaceOnUse">
      <path
         inkscape:connector-curvature="0"
         id="path3422"
         d="m 0,409.602 409.602,0 L 409.602,0 0,0 0,409.602 Z" />
    </clipPath>
    <clipPath
       id="clipPath3455"
       clipPathUnits="userSpaceOnUse">
      <path
         inkscape:connector-curvature="0"
         id="path3457"
         d="m 0,0 48.96,0 0,49 L 0,49 0,0 Z" />
    </clipPath>
  </defs>
  <sodipodi:namedview
     id="base"
     pagecolor="#ffffff"
     bordercolor="#666666"
     borderopacity="1.0"
     inkscape:pageopacity="0.0"
     inkscape:pageshadow="2"
     inkscape:zoom="0.35"
     inkscape:cx="728.23736"
     inkscape:cy="520"
     inkscape:document-units="px"
     inkscape:current-layer="layer1"
     showgrid="false"
     inkscape:snap-nodes="false"
     inkscape:window-width="1366"
     inkscape:window-height="706"
     inkscape:window-x="-8"
     inkscape:window-y="-8"
     inkscape:window-maximized="1"
     units="px" />
  <metadata
     id="metadata7">
    <rdf:RDF>
      <cc:Work
         rdf:about="">
        <dc:format>image/svg+xml</dc:format>
        <dc:type
           rdf:resource="http://purl.org/dc/dcmitype/StillImage" />
        <dc:title></dc:title>
      </cc:Work>
    </rdf:RDF>
  </metadata>
  <g
     inkscape:label="Layer 1"
     inkscape:groupmode="layer"
     id="layer1"
     transform="translate(0,-511.99996)">
    <g
       transform="matrix(10.848749,0,0,-10.927752,3.4330517,1051.6607)"
       inkscape:label="Векторный смарт-объект1"
       id="g3449"
       style="fill:#ffffff">
      <g
         id="g3451"
         style="fill:#ffffff">
        <g
           clip-path="url(#clipPath3455)"
           id="g3453"
           style="fill:#ffffff">
          <g
             transform="translate(37.4609,37.644)"
             id="g3459"
             style="fill:#ffffff">
            <path
               inkscape:connector-curvature="0"
               id="path3461"
               style="fill:#ffffff;fill-opacity:1;fill-rule:nonzero;stroke:none"
               d="m 0,0 c 4.789,-4.789 6.832,-10.226 6.168,-14.633 0,0 -0.231,-1.394 0.68,-2.304 1.023,-1.028 2.648,-0.969 3.609,-0.008 0.617,0.617 0.754,1.621 0.754,1.621 0.547,3.805 -0.145,11.465 -7.606,18.93 -7.464,7.461 -15.125,8.152 -18.929,7.605 0,0 -1.004,-0.133 -1.621,-0.754 -0.961,-0.957 -1.02,-2.582 0.004,-3.609 0.914,-0.91 2.308,-0.68 2.308,-0.68 C -10.227,6.832 -4.789,4.789 0,0 m -12.391,1.973 c 0,0 -1.32,0.207 -2.246,-0.719 -0.949,-0.953 -0.992,-2.594 0.012,-3.598 0.594,-0.589 1.43,-0.718 1.43,-0.718 1.629,-0.305 4.082,-0.821 6.699,-3.434 2.609,-2.613 3.129,-5.07 3.433,-6.699 0,0 0.125,-0.836 0.719,-1.43 1.004,-1.003 2.645,-0.96 3.594,-0.012 0.926,0.927 0.723,2.247 0.723,2.247 -0.52,3.3 -2.121,6.75 -4.868,9.496 -2.746,2.75 -6.195,4.347 -9.496,4.867 m -6.347,-20.738 c 4.379,-4.344 9.445,-8.497 11.433,-6.493 2.852,2.871 4.606,5.368 10.926,0.325 6.32,-5.043 1.492,-8.438 -1.266,-11.219 -3.183,-3.207 -15.109,-0.223 -26.929,11.508 -11.821,11.734 -14.895,23.636 -11.707,26.843 2.758,2.782 6.117,7.633 11.203,1.348 5.094,-6.281 2.609,-8.055 -0.238,-10.922 -1.993,-2.004 2.199,-7.042 6.578,-11.39" />
          </g>
        </g>
      </g>
    </g>
  </g>
</svg>
