<?xml version="1.0" encoding="UTF-8" standalone="no"?>
<!-- Created with Inkscape (http://www.inkscape.org/) -->

<svg
   xmlns:osb="http://www.openswatchbook.org/uri/2009/osb"
   xmlns:dc="http://purl.org/dc/elements/1.1/"
   xmlns:cc="http://creativecommons.org/ns#"
   xmlns:rdf="http://www.w3.org/1999/02/22-rdf-syntax-ns#"
   xmlns:svg="http://www.w3.org/2000/svg"
   xmlns="http://www.w3.org/2000/svg"
   xmlns:sodipodi="http://sodipodi.sourceforge.net/DTD/sodipodi-0.dtd"
   xmlns:inkscape="http://www.inkscape.org/namespaces/inkscape"
   width="62.099998"
   height="56.999748"
   viewBox="0 0 62.099998 56.999749"
   id="svg2"
   version="1.1"
   inkscape:version="0.91 r13725"
   sodipodi:docname="dindon.svg">
  <defs
     id="defs4">
    <linearGradient
       id="linearGradient6005"
       osb:paint="solid">
      <stop
         style="stop-color:#1e0f00;stop-opacity:1;"
         offset="0"
         id="stop6007" />
    </linearGradient>
    <clipPath
       id="clipPath3350"
       clipPathUnits="userSpaceOnUse">
      <path
         inkscape:connector-curvature="0"
         id="path3352"
         d="m 0,0 43.92,0 0,32.88 L 0,32.88 0,0 Z" />
    </clipPath>
    <clipPath
       id="clipPath3362"
       clipPathUnits="userSpaceOnUse">
      <path
         inkscape:connector-curvature="0"
         id="path3364"
         d="m 0,32.88 43.926,0 L 43.926,0 0,0 0,32.88 Z" />
    </clipPath>
    <clipPath
       id="clipPath3409"
       clipPathUnits="userSpaceOnUse">
      <path
         inkscape:connector-curvature="0"
         id="path3411"
         d="m 0,261.602 408.801,0 L 408.801,0 0,0 0,261.602 Z" />
    </clipPath>
    <clipPath
       id="clipPath3462"
       clipPathUnits="userSpaceOnUse">
      <path
         inkscape:connector-curvature="0"
         id="path3464"
         d="m 0,267.059 267.062,0 L 267.062,0 0,0 0,267.059 Z" />
    </clipPath>
    <clipPath
       id="clipPath4291"
       clipPathUnits="userSpaceOnUse">
      <path
         inkscape:connector-curvature="0"
         id="path4293"
         d="m 0,0 265.92,0 0,268.799 L 0,268.799 0,0 Z" />
    </clipPath>
    <clipPath
       id="clipPath4349"
       clipPathUnits="userSpaceOnUse">
      <path
         inkscape:connector-curvature="0"
         id="path4351"
         d="m 0,267.059 267.062,0 L 267.062,0 0,0 0,267.059 Z" />
    </clipPath>
    <clipPath
       id="clipPath4378"
       clipPathUnits="userSpaceOnUse">
      <path
         inkscape:connector-curvature="0"
         id="path4380"
         d="m 0,447.57 447.461,0 L 447.461,0 0,0 0,447.57 Z" />
    </clipPath>
    <clipPath
       id="clipPath4425"
       clipPathUnits="userSpaceOnUse">
      <path
         inkscape:connector-curvature="0"
         id="path4427"
         d="M 0,48 48,48 48,0 0,0 0,48 Z" />
    </clipPath>
    <clipPath
       id="clipPath4445"
       clipPathUnits="userSpaceOnUse">
      <path
         inkscape:connector-curvature="0"
         id="path4447"
         d="M 0,0 48,0 48,48 0,48 0,0 Z" />
    </clipPath>
    <clipPath
       id="clipPath4469"
       clipPathUnits="userSpaceOnUse">
      <path
         inkscape:connector-curvature="0"
         id="path4471"
         d="M 0,48 48,48 48,0 0,0 0,48 Z" />
    </clipPath>
    <clipPath
       id="clipPath4520"
       clipPathUnits="userSpaceOnUse">
      <path
         inkscape:connector-curvature="0"
         id="path4522"
         d="m 0,0 46.8,0 0,47.759 -46.8,0 L 0,0 Z" />
    </clipPath>
    <clipPath
       id="clipPath4536"
       clipPathUnits="userSpaceOnUse">
      <path
         inkscape:connector-curvature="0"
         id="path4538"
         d="m 0,47.76 46.8,0 L 46.8,0 0,0 0,47.76 Z" />
    </clipPath>
    <clipPath
       id="clipPath6025"
       clipPathUnits="userSpaceOnUse">
      <path
         inkscape:connector-curvature="0"
         id="path6027"
         d="M 0,44 48,44 48,0 0,0 0,44 Z" />
    </clipPath>
  </defs>
  <sodipodi:namedview
     id="base"
     pagecolor="#ffffff"
     bordercolor="#666666"
     borderopacity="1.0"
     inkscape:pageopacity="0.0"
     inkscape:pageshadow="2"
     inkscape:zoom="1.4"
     inkscape:cx="-148.68546"
     inkscape:cy="138.81308"
     inkscape:document-units="px"
     inkscape:current-layer="g3344"
     showgrid="false"
     units="px"
     inkscape:window-width="1366"
     inkscape:window-height="706"
     inkscape:window-x="-8"
     inkscape:window-y="-8"
     inkscape:window-maximized="1"
     fit-margin-top="1"
     fit-margin-left="1.1"
     fit-margin-right="1"
     fit-margin-bottom="1" />
  <metadata
     id="metadata7">
    <rdf:RDF>
      <cc:Work
         rdf:about="">
        <dc:format>image/svg+xml</dc:format>
        <dc:type
           rdf:resource="http://purl.org/dc/dcmitype/StillImage" />
        <dc:title></dc:title>
      </cc:Work>
    </rdf:RDF>
  </metadata>
  <g
     inkscape:label="Layer 1"
     inkscape:groupmode="layer"
     id="layer1"
     transform="translate(-2679.0894,-1902.7361)">
    <g
       transform="matrix(1.25,0,0,-1.25,2.9386541,313.78018)"
       inkscape:label="smallwifi"
       id="g3344">
      <g
         transform="translate(2141.8006,-1315.9645)"
         inkscape:label="dindon"
         id="g6019"
         style="fill:#1e0f00;fill-opacity:1">
        <g
           id="g6021"
           style="fill:#1e0f00;fill-opacity:1">
          <g
             clip-path="url(#clipPath6025)"
             id="g6023"
             style="fill:#1e0f00;fill-opacity:1">
            <g
               transform="translate(34.9453,6.6758)"
               id="g6029"
               style="fill:#1e0f00;fill-opacity:1">
              <path
                 inkscape:connector-curvature="0"
                 id="path6031"
                 style="fill:#1e0f00;fill-opacity:1;fill-rule:nonzero;stroke:none"
                 d="m 0,0 c -1.535,-0.262 -2.941,-0.477 -4.273,-0.648 l -0.004,0 c -0.586,-0.075 -1.157,-0.138 -1.715,-0.196 l -0.012,0 c -0.512,-0.051 -1.012,-0.093 -1.508,-0.129 -0.09,-0.004 -0.183,-0.011 -0.277,-0.016 -0.426,-0.031 -0.852,-0.05 -1.27,-0.066 -0.086,-0.004 -0.171,-0.011 -0.257,-0.011 -0.997,-0.036 -1.977,-0.036 -2.973,0 -0.09,0 -0.179,0.007 -0.265,0.011 -0.414,0.016 -0.832,0.035 -1.255,0.062 -0.097,0.009 -0.198,0.016 -0.3,0.02 -0.477,0.036 -0.965,0.075 -1.457,0.125 -0.02,0.004 -0.039,0.004 -0.055,0.004 -0.554,0.058 -1.121,0.121 -1.699,0.196 l -0.008,0 c -1.336,0.168 -2.746,0.386 -4.289,0.651 l -6.129,1.056 c 3.187,3.644 4.801,8.03 4.801,13.066 l 0,7.195 c 0.027,4.348 3.109,7.707 6.152,9.113 0.907,0.414 1.844,0.727 2.797,0.945 0.008,0 0.019,0 0.028,0.004 1.968,0.442 4.066,0.461 6.062,0.051 0.011,0 0.019,0.004 0.031,0.004 1.043,-0.219 2.07,-0.547 3.059,-1 2.953,-1.351 5.918,-4.687 5.89,-9.113 l 0,-7.199 C 1.074,9.296 2.813,4.809 6.125,1.059 L 0,0 Z m -10.801,-5.075 c -2.023,0 -3.917,1.005 -5.133,2.653 1.789,-0.187 3.457,-0.278 5.125,-0.278 1.676,0 3.352,0.091 5.145,0.278 -1.215,-1.648 -3.109,-2.653 -5.137,-2.653 m -2.542,38.399 c 0,1.324 1.073,2.398 2.398,2.398 1.324,0 2.398,-1.074 2.398,-2.398 l 0,-0.145 c -1.594,0.227 -3.21,0.219 -4.796,-0.039 l 0,0.184 z m 16.019,-19.199 0,7.195 c 0.031,5.484 -3.656,9.125 -6.824,10.57 -0.911,0.418 -1.844,0.738 -2.797,0.973 l 0,0.461 c 0,2.207 -1.793,4 -4,4 -2.207,0 -4,-1.793 -4,-4 l 0,-0.528 c -0.855,-0.233 -1.7,-0.535 -2.516,-0.91 -3.504,-1.617 -7.05,-5.508 -7.086,-10.562 l 0,-7.199 c 0,-5.109 -1.805,-9.497 -5.363,-13.036 -0.211,-0.211 -0.289,-0.519 -0.199,-0.804 0.089,-0.289 0.332,-0.5 0.629,-0.551 l 7.594,-1.309 c 1.414,-0.245 2.714,-0.445 3.952,-0.609 1.399,-2.738 4.141,-4.492 7.133,-4.492 2.996,0 5.739,1.758 7.133,4.492 1.234,0.164 2.531,0.364 3.938,0.609 l 7.593,1.309 C 8.156,-0.215 8.398,-0.004 8.488,0.285 8.582,0.566 8.504,0.878 8.289,1.089 4.562,4.796 2.676,9.18 2.676,14.125" />
            </g>
            <g
               transform="translate(29.1328,34.9292)"
               id="g6033"
               style="fill:#1e0f00;fill-opacity:1">
              <path
                 inkscape:connector-curvature="0"
                 id="path6035"
                 style="fill:#1e0f00;fill-opacity:1;fill-rule:nonzero;stroke:none"
                 d="m 0,0 c -3.098,1.418 -6.895,1.418 -9.973,0 -1.758,-0.812 -4.734,-3.179 -4.762,-6.925 0,-0.442 0.356,-0.801 0.797,-0.805 l 0.004,0 c 0.442,0 0.797,0.355 0.801,0.797 0.02,2.941 2.414,4.828 3.828,5.48 2.664,1.227 5.957,1.227 8.641,0 0.402,-0.183 0.875,-0.007 1.059,0.395 C 0.578,-0.656 0.402,-0.183 0,0" />
            </g>
            <g
               transform="translate(3.8398,27.7651)"
               id="g6037"
               style="fill:#1e0f00;fill-opacity:1">
              <path
                 inkscape:connector-curvature="0"
                 id="path6039"
                 style="fill:#1e0f00;fill-opacity:1;fill-rule:nonzero;stroke:none"
                 d="m 0,0 c -0.313,0.313 -0.817,0.313 -1.129,0 -1.75,-1.746 -2.711,-4.074 -2.711,-6.55 0,-2.481 0.961,-4.805 2.711,-6.555 0.156,-0.156 0.359,-0.234 0.566,-0.234 0.203,0 0.411,0.078 0.563,0.234 0.316,0.312 0.316,0.82 0,1.133 -1.445,1.445 -2.238,3.371 -2.238,5.422 0,2.05 0.793,3.976 2.238,5.418 0.312,0.312 0.312,0.82 0,1.132" />
            </g>
            <g
               transform="translate(6.645,16.2461)"
               id="g6041"
               style="fill:#1e0f00;fill-opacity:1">
              <path
                 inkscape:connector-curvature="0"
                 id="path6043"
                 style="fill:#1e0f00;fill-opacity:1;fill-rule:nonzero;stroke:none"
                 d="m 0,0 c 0.203,0 0.41,0.082 0.566,0.234 0.312,0.317 0.312,0.821 0,1.133 -2.047,2.047 -2.047,5.375 0,7.422 0.312,0.312 0.312,0.816 0,1.129 -0.313,0.312 -0.82,0.312 -1.133,0 -2.668,-2.668 -2.668,-7.012 0,-9.684 C -0.411,0.078 -0.207,0 0,0" />
            </g>
            <g
               transform="translate(45.2891,27.7651)"
               id="g6045"
               style="fill:#1e0f00;fill-opacity:1">
              <path
                 inkscape:connector-curvature="0"
                 id="path6047"
                 style="fill:#1e0f00;fill-opacity:1;fill-rule:nonzero;stroke:none"
                 d="m 0,0 c -0.312,0.313 -0.816,0.313 -1.129,0 -0.316,-0.312 -0.316,-0.82 0,-1.132 1.445,-1.446 2.238,-3.368 2.238,-5.418 0,-2.051 -0.793,-3.977 -2.238,-5.422 -0.316,-0.313 -0.316,-0.821 0,-1.133 0.152,-0.156 0.359,-0.234 0.563,-0.234 0.207,0 0.41,0.078 0.566,0.234 1.75,1.75 2.711,4.074 2.711,6.555 C 2.711,-4.074 1.75,-1.746 0,0" />
            </g>
            <g
               transform="translate(40.7891,26.1641)"
               id="g6049"
               style="fill:#1e0f00;fill-opacity:1">
              <path
                 inkscape:connector-curvature="0"
                 id="path6051"
                 style="fill:#1e0f00;fill-opacity:1;fill-rule:nonzero;stroke:none"
                 d="m 0,0 c -0.312,-0.313 -0.312,-0.817 0,-1.129 2.047,-2.047 2.047,-5.375 0,-7.422 -0.312,-0.312 -0.312,-0.816 0,-1.133 0.156,-0.152 0.363,-0.234 0.566,-0.234 0.207,0 0.411,0.082 0.567,0.234 2.668,2.672 2.668,7.016 0,9.684 C 0.82,0.312 0.312,0.312 0,0" />
            </g>
          </g>
        </g>
      </g>
    </g>
  </g>
</svg>
