<?xml version="1.0" encoding="UTF-8" standalone="no"?>
<!-- Created with Inkscape (http://www.inkscape.org/) -->

<svg
   xmlns:dc="http://purl.org/dc/elements/1.1/"
   xmlns:cc="http://creativecommons.org/ns#"
   xmlns:rdf="http://www.w3.org/1999/02/22-rdf-syntax-ns#"
   xmlns:svg="http://www.w3.org/2000/svg"
   xmlns="http://www.w3.org/2000/svg"
   xmlns:sodipodi="http://sodipodi.sourceforge.net/DTD/sodipodi-0.dtd"
   xmlns:inkscape="http://www.inkscape.org/namespaces/inkscape"
   width="333.61337"
   height="336.80099"
   viewBox="0 0 333.61337 336.80101"
   id="svg2"
   version="1.1"
   inkscape:version="0.91 r13725"
   sodipodi:docname="koshelek.svg">
  <defs
     id="defs4">
    <clipPath
       id="clipPath3350"
       clipPathUnits="userSpaceOnUse">
      <path
         inkscape:connector-curvature="0"
         id="path3352"
         d="m 0,0 43.92,0 0,32.88 L 0,32.88 0,0 Z" />
    </clipPath>
    <clipPath
       id="clipPath3362"
       clipPathUnits="userSpaceOnUse">
      <path
         inkscape:connector-curvature="0"
         id="path3364"
         d="m 0,32.88 43.926,0 L 43.926,0 0,0 0,32.88 Z" />
    </clipPath>
    <clipPath
       id="clipPath3409"
       clipPathUnits="userSpaceOnUse">
      <path
         inkscape:connector-curvature="0"
         id="path3411"
         d="m 0,261.602 408.801,0 L 408.801,0 0,0 0,261.602 Z" />
    </clipPath>
    <clipPath
       id="clipPath3462"
       clipPathUnits="userSpaceOnUse">
      <path
         inkscape:connector-curvature="0"
         id="path3464"
         d="m 0,267.059 267.062,0 L 267.062,0 0,0 0,267.059 Z" />
    </clipPath>
    <clipPath
       id="clipPath4291"
       clipPathUnits="userSpaceOnUse">
      <path
         inkscape:connector-curvature="0"
         id="path4293"
         d="m 0,0 265.92,0 0,268.799 L 0,268.799 0,0 Z" />
    </clipPath>
  </defs>
  <sodipodi:namedview
     id="base"
     pagecolor="#ffffff"
     bordercolor="#666666"
     borderopacity="1.0"
     inkscape:pageopacity="0.0"
     inkscape:pageshadow="2"
     inkscape:zoom="0.49497475"
     inkscape:cx="70.3723"
     inkscape:cy="349.96657"
     inkscape:document-units="px"
     inkscape:current-layer="g3344"
     showgrid="false"
     units="px"
     inkscape:window-width="1366"
     inkscape:window-height="706"
     inkscape:window-x="-8"
     inkscape:window-y="-8"
     inkscape:window-maximized="1"
     fit-margin-top="1"
     fit-margin-left="1.1"
     fit-margin-right="1"
     fit-margin-bottom="1" />
  <metadata
     id="metadata7">
    <rdf:RDF>
      <cc:Work
         rdf:about="">
        <dc:format>image/svg+xml</dc:format>
        <dc:type
           rdf:resource="http://purl.org/dc/dcmitype/StillImage" />
        <dc:title></dc:title>
      </cc:Work>
    </rdf:RDF>
  </metadata>
  <g
     inkscape:label="Layer 1"
     inkscape:groupmode="layer"
     id="layer1"
     transform="translate(-497.54243,-951.15568)">
    <g
       transform="matrix(1.25,0,0,-1.25,2.9386541,313.78018)"
       inkscape:label="smallwifi"
       id="g3344">
      <g
         transform="translate(396.56302,-779.4994)"
         inkscape:label="money"
         id="g4285"
         style="fill:#18b5fa;fill-opacity:1">
        <g
           id="g4287"
           style="fill:#18b5fa;fill-opacity:1">
          <g
             clip-path="url(#clipPath4291)"
             id="g4289"
             style="fill:#18b5fa;fill-opacity:1">
            <g
               transform="translate(220.2227,110.8652)"
               id="g4295"
               style="fill:#18b5fa;fill-opacity:1">
              <path
                 inkscape:connector-curvature="0"
                 id="path4297"
                 style="fill:#18b5fa;fill-opacity:1;fill-rule:nonzero;stroke:none"
                 d="m 0,0 c 0,-6.274 -5.078,-11.353 -11.352,-11.353 -6.273,0 -11.351,5.079 -11.351,11.353 0,6.269 5.082,11.351 11.351,11.351 C -5.078,11.351 0,6.265 0,0 m 34.707,-22.074 -50.453,0 c -11.797,0 -21.391,9.593 -21.391,21.389 l 0,2.211 c 0,11.793 9.594,21.388 21.391,21.388 l 50.453,0 0,-44.988 z M 21.852,-84.199 c 0,-8.504 -6.918,-15.422 -15.422,-15.422 l -200.946,0 c -8.504,0 -15.425,6.918 -15.425,15.422 l 0,176.523 c 0,8.504 6.921,15.426 15.425,15.426 l 57.883,0 -24.659,-13.715 -30.009,0 c -2.844,0 -5.145,-2.301 -5.145,-5.141 0,-2.84 2.301,-5.14 5.145,-5.14 l 213.153,0 0,-50.563 -37.598,0 c -17.461,0 -31.672,-14.212 -31.672,-31.672 l 0,-2.211 c 0,-17.461 14.211,-31.672 31.672,-31.672 l 37.598,0 0,-51.835 z M -44.77,147.066 c 2.411,1.352 5.657,0.406 6.985,-1.996 l 28.383,-51.027 -130.727,0 95.359,53.023 z M 6.43,107.75 c 7.918,0 14.382,-6.016 15.254,-13.715 l -19.321,0 -7.621,13.715 11.688,0 z m 38.558,-74.555 -12.851,0 0,59.129 c 0,14.176 -11.532,25.707 -25.707,25.707 l -17.41,0 -17.817,32.031 c -2.715,4.895 -7.883,7.934 -13.484,7.934 -2.614,0 -5.203,-0.672 -7.492,-1.942 l -68.372,-38.023 -76.371,0 c -14.175,0 -25.707,-11.531 -25.707,-25.707 l 0,-176.523 c 0,-14.172 11.532,-25.708 25.707,-25.708 l 200.946,0 c 14.175,0 25.707,11.536 25.707,25.708 l 0,51.843 12.851,0 0,65.551 z" />
            </g>
          </g>
        </g>
      </g>
    </g>
  </g>
</svg>
