<?xml version="1.0" encoding="UTF-8" standalone="no"?>
<!-- Created with Inkscape (http://www.inkscape.org/) -->

<svg
   xmlns:dc="http://purl.org/dc/elements/1.1/"
   xmlns:cc="http://creativecommons.org/ns#"
   xmlns:rdf="http://www.w3.org/1999/02/22-rdf-syntax-ns#"
   xmlns:svg="http://www.w3.org/2000/svg"
   xmlns="http://www.w3.org/2000/svg"
   xmlns:sodipodi="http://sodipodi.sourceforge.net/DTD/sodipodi-0.dtd"
   xmlns:inkscape="http://www.inkscape.org/namespaces/inkscape"
   width="235"
   height="102"
   viewBox="0 0 235 102"
   id="svg2"
   version="1.1"
   inkscape:version="0.91 r13725"
   sodipodi:docname="logo.svg">
  <defs
     id="defs4">
    <clipPath
       id="clipPath3350"
       clipPathUnits="userSpaceOnUse">
      <path
         inkscape:connector-curvature="0"
         id="path3352"
         d="m 0,409.602 409.602,0 L 409.602,0 0,0 0,409.602 Z" />
    </clipPath>
    <clipPath
       id="clipPath3385"
       clipPathUnits="userSpaceOnUse">
      <path
         inkscape:connector-curvature="0"
         id="path3387"
         d="m 0,409.602 409.602,0 L 409.602,0 0,0 0,409.602 Z" />
    </clipPath>
    <clipPath
       id="clipPath3420"
       clipPathUnits="userSpaceOnUse">
      <path
         inkscape:connector-curvature="0"
         id="path3422"
         d="m 0,409.602 409.602,0 L 409.602,0 0,0 0,409.602 Z" />
    </clipPath>
    <clipPath
       id="clipPath3455"
       clipPathUnits="userSpaceOnUse">
      <path
         inkscape:connector-curvature="0"
         id="path3457"
         d="m 0,0 48.96,0 0,49 L 0,49 0,0 Z" />
    </clipPath>
    <clipPath
       id="clipPath3484"
       clipPathUnits="userSpaceOnUse">
      <path
         inkscape:connector-curvature="0"
         id="path3486"
         d="m 0,81.63 186.68,0 L 186.68,0 0,0 0,81.63 Z" />
    </clipPath>
  </defs>
  <sodipodi:namedview
     id="base"
     pagecolor="#ffffff"
     bordercolor="#666666"
     borderopacity="1"
     inkscape:pageopacity="0.0"
     inkscape:pageshadow="2"
     inkscape:zoom="0.98994949"
     inkscape:cx="197.17306"
     inkscape:cy="-5.4295426"
     inkscape:document-units="px"
     inkscape:current-layer="layer1"
     showgrid="false"
     inkscape:snap-nodes="false"
     inkscape:window-width="1366"
     inkscape:window-height="706"
     inkscape:window-x="-8"
     inkscape:window-y="-8"
     inkscape:window-maximized="1"
     units="px" />
  <metadata
     id="metadata7">
    <rdf:RDF>
      <cc:Work
         rdf:about="">
        <dc:format>image/svg+xml</dc:format>
        <dc:type
           rdf:resource="http://purl.org/dc/dcmitype/StillImage" />
        <dc:title></dc:title>
      </cc:Work>
    </rdf:RDF>
  </metadata>
  <g
     inkscape:label="Layer 1"
     inkscape:groupmode="layer"
     id="layer1"
     transform="translate(0,-950.36214)">
    <g
       transform="matrix(1.25,0,0,-1.25,2.0947416,1053.7901)"
       inkscape:label="логото"
       id="g3478"
       style="fill:#ffffff">
      <g
         id="g3480"
         style="fill:#ffffff">
        <g
           clip-path="url(#clipPath3484)"
           id="g3482"
           style="fill:#ffffff">
          <g
             transform="translate(177.0293,39.1719)"
             id="g3488"
             style="fill:#ffffff">
            <path
               inkscape:connector-curvature="0"
               id="path3490"
               style="fill:#ffffff;fill-opacity:1;fill-rule:nonzero;stroke:none"
               d="m 0,0 c 0,-0.978 -0.79,-1.767 -1.768,-1.767 l -0.13,0 0,1.241 0.13,0 c 0.283,0 0.528,0.226 0.528,0.526 l 0,9.628 c 0,0.282 -0.245,0.527 -0.528,0.527 l -0.13,0 0,1.241 0.13,0 C -0.79,11.396 0,10.606 0,9.628 L 0,0 Z m -2.857,10.155 -0.152,0 c -0.282,0 -0.525,-0.245 -0.525,-0.527 l 0,-9.628 c 0,-0.3 0.243,-0.526 0.525,-0.526 l 0.152,0 0,-1.241 -0.152,0 c -0.959,0 -1.766,0.789 -1.766,1.767 l 0,9.628 c 0,0.978 0.807,1.768 1.766,1.768 l 0.152,0 0,-1.241 z m -3.422,-5.397 -3.555,0 0,-6.525 -1.24,0 0,7.672 3.553,0 0,5.491 1.242,0 0,-6.638 z m 0,-6.525 -1.241,0 0,5.565 1.241,0 0,-5.565 z m -7.108,0 -1.523,5.321 1.26,0 1.542,-5.321 -1.279,0 z m -3.592,0 -1.297,0 2.011,7.052 -0.224,0.77 1.297,0 1.598,5.341 1.297,0 -1.843,-6.111 0.227,-0.772 -1.279,0 -1.787,-6.28 z m -2.143,11.922 -3.592,0 0,1.241 3.592,0 0,-1.241 z m -0.019,-11.922 -3.573,0 0,1.24 3.573,0 0,-1.24 z m -4.795,11.922 -4.288,0 0,1.241 4.288,0 0,-1.241 z m -1.523,-11.922 -1.24,0 0,10.963 1.24,0 0,-10.963 z m 2.745,10.962 1.241,0 0,-3.29 2.05,0 0,-1.147 -2.05,0 0,-4.326 -1.241,0 0,8.763 z m 5.923,2.201 1.316,-4.382 -1.296,0 -1.298,4.382 1.278,0 z m 5.717,0 1.24,0 0,-4.532 -1.24,0 0,4.532 z m -28.883,3.996 c 2.24,-3.829 4.08,-7.819 5.327,-11.849 0.227,-0.73 0.08,-1.525 -0.391,-2.13 -0.332,-0.424 -1.484,-2.234 -2.914,-8.116 l 47.585,0 0,22.095 -49.607,0 z" />
          </g>
          <g
             transform="translate(18.0635,59.9053)"
             id="g3492"
             style="fill:#ffffff">
            <path
               inkscape:connector-curvature="0"
               id="path3494"
               style="fill:#ffffff;fill-opacity:1;fill-rule:evenodd;stroke:none"
               d="m 0,0 c -4.004,-4.202 -7.319,-9.212 -8.962,-14.305 l 2.924,0 0,-19.529 C -4.71,-39.15 -2.614,-43.412 0,-46.957 l 0,31.16 3.198,0 c 2.261,0.091 3.449,-1.288 3.537,-4.167 l 0,-8.768 c 1.138,-3.249 6.849,-2.528 8.866,-2.528 -1.211,0.54 -2.461,1.257 -2.828,2.436 l 0,10.769 c -0.051,1.805 -0.971,3.136 -3.803,3.75 2.715,2.039 3.807,3.858 3.803,5.884 l 0,20.33 C 10.33,9.677 8.217,7.225 6.735,4.354 l 0,-12.066 C 6.486,-10.234 5.328,-11.683 3.228,-12.035 L 0,-12.035 0,0 Z m 20.964,-10.021 0,6.198 c 3.563,-4.341 7.45,-7.89 8.108,-12.548 l -8.108,6.35 z m -6.404,21.86 0,-12.695 0,-26.311 8.726,0 c -1.267,0.387 -2.104,1.102 -2.322,2.288 l 0,9.522 7.546,-6.147 c -0.579,-1.709 -1.569,-3.575 -3.068,-5.663 l 6.914,0 C 33.563,-24.1 43.423,-14.675 29.072,-6.463 19.335,-0.892 15.627,8.668 14.56,11.839 M 103.89,0 c 4.003,-4.202 7.319,-9.212 8.965,-14.305 l -2.927,0 0,-19.529 c -1.324,-5.316 -3.42,-9.578 -6.038,-13.123 l 0,31.16 -6.731,0 0,-12.935 c -1.142,-3.249 -6.854,-2.528 -8.866,-2.528 1.206,0.54 2.461,1.257 2.823,2.436 l 0,40.733 c 2.447,-2.232 4.561,-4.684 6.043,-7.555 l 0,-16.389 6.731,0 0,12.035 z m -21.139,-10.021 0,6.198 c -3.568,-4.341 -7.45,-7.89 -8.112,-12.548 l 8.112,6.35 z m 6.399,21.86 0,-12.695 0,-26.311 -8.726,0 c 1.267,0.387 2.104,1.102 2.327,2.288 l 0,9.522 -7.55,-6.147 c 0.578,-1.709 1.568,-3.575 3.067,-5.663 l -6.914,0 c -1.208,3.067 -11.062,12.492 3.285,20.704 9.737,5.571 13.445,15.131 14.511,18.302 M 17.253,9.612 c 3.941,-14.109 25.116,-14.923 24.632,-24.909 -0.353,-7.294 -7.38,-8.338 -9.868,-16.859 4.183,3.711 8.435,6.155 12.886,4.915 -0.126,1.644 -0.805,2.362 -2.133,2.68 2.187,0.8 4.338,2.888 5.816,6.05 l 0,-12.714 c -0.445,-1.713 -2.37,-3.088 -4.101,-3.488 3.207,-2.653 6.087,-10.304 7.537,-14.166 1.448,3.862 4.332,11.513 7.538,14.166 -1.729,0.4 -3.66,1.775 -4.104,3.488 l 0,12.109 c 1.46,-2.822 3.477,-4.696 5.52,-5.445 -1.33,-0.318 -2.008,-1.036 -2.135,-2.68 4.453,1.24 8.705,-1.204 12.887,-4.915 -2.487,8.521 -9.514,9.565 -9.868,16.859 -0.483,9.986 20.691,10.8 24.633,24.909 C 85.426,6.437 71.227,0.335 61.116,-4.028 58.101,-5.328 56.44,-7.029 55.456,-9.06 l 0,19.816 c 0.27,1.636 1.137,2.98 2.214,4.215 -1.342,-9.817 2.422,-13.679 8.734,-13.484 7.721,0.241 15.436,5.05 23.257,12.892 6.217,-3.075 21.095,-17.124 26.278,-28.345 1.326,-16.498 -6.595,-33.887 -12.28,-45.939 6.596,7.451 11.636,17.994 14.856,31.981 0.575,2.501 1.934,7.925 3.589,10.043 -5.301,17.137 -21.142,32.83 -32.745,38.432 C 85.16,10.991 71.476,4.506 66.052,5.302 c -5.424,0.796 -7.53,7.337 -2.867,14.801 -0.537,0.366 -1.346,0.078 -1.695,-0.156 -4.715,-3.175 -5.25,1.674 -9.401,1.774 l 0,0.004 -0.067,0 -0.064,0 0,-0.004 c -4.156,-0.1 -4.692,-4.949 -9.406,-1.774 -0.349,0.234 -1.159,0.522 -1.692,0.156 C 45.522,12.639 43.414,6.098 37.99,5.302 32.565,4.506 18.882,10.991 14.682,20.551 3.08,14.949 -12.762,-0.744 -18.063,-17.881 c 1.656,-2.118 3.015,-7.542 3.589,-10.043 3.221,-13.987 8.261,-24.53 14.862,-31.981 -5.69,12.052 -13.612,29.441 -12.286,45.939 5.184,11.221 20.062,25.27 26.279,28.345 7.821,-7.842 15.541,-12.651 23.256,-12.892 6.313,-0.195 10.078,3.667 8.736,13.484 1.076,-1.235 1.942,-2.579 2.213,-4.215 l 0,-20.485 C 47.648,-7.403 45.972,-5.467 42.63,-4.028 32.518,0.335 18.319,6.437 17.253,9.612" />
          </g>
        </g>
      </g>
    </g>
  </g>
</svg>
