<?xml version="1.0" encoding="UTF-8" standalone="no"?>
<!-- Created with Inkscape (http://www.inkscape.org/) -->

<svg
   xmlns:dc="http://purl.org/dc/elements/1.1/"
   xmlns:cc="http://creativecommons.org/ns#"
   xmlns:rdf="http://www.w3.org/1999/02/22-rdf-syntax-ns#"
   xmlns:svg="http://www.w3.org/2000/svg"
   xmlns="http://www.w3.org/2000/svg"
   xmlns:sodipodi="http://sodipodi.sourceforge.net/DTD/sodipodi-0.dtd"
   xmlns:inkscape="http://www.inkscape.org/namespaces/inkscape"
   width="62.097252"
   height="61.9995"
   viewBox="0 0 62.097252 61.999502"
   id="svg2"
   version="1.1"
   inkscape:version="0.91 r13725"
   sodipodi:docname="mobile.svg">
  <defs
     id="defs4">
    <clipPath
       id="clipPath3350"
       clipPathUnits="userSpaceOnUse">
      <path
         inkscape:connector-curvature="0"
         id="path3352"
         d="m 0,0 43.92,0 0,32.88 L 0,32.88 0,0 Z" />
    </clipPath>
    <clipPath
       id="clipPath3362"
       clipPathUnits="userSpaceOnUse">
      <path
         inkscape:connector-curvature="0"
         id="path3364"
         d="m 0,32.88 43.926,0 L 43.926,0 0,0 0,32.88 Z" />
    </clipPath>
    <clipPath
       id="clipPath3409"
       clipPathUnits="userSpaceOnUse">
      <path
         inkscape:connector-curvature="0"
         id="path3411"
         d="m 0,261.602 408.801,0 L 408.801,0 0,0 0,261.602 Z" />
    </clipPath>
    <clipPath
       id="clipPath3462"
       clipPathUnits="userSpaceOnUse">
      <path
         inkscape:connector-curvature="0"
         id="path3464"
         d="m 0,267.059 267.062,0 L 267.062,0 0,0 0,267.059 Z" />
    </clipPath>
    <clipPath
       id="clipPath4291"
       clipPathUnits="userSpaceOnUse">
      <path
         inkscape:connector-curvature="0"
         id="path4293"
         d="m 0,0 265.92,0 0,268.799 L 0,268.799 0,0 Z" />
    </clipPath>
    <clipPath
       id="clipPath4349"
       clipPathUnits="userSpaceOnUse">
      <path
         inkscape:connector-curvature="0"
         id="path4351"
         d="m 0,267.059 267.062,0 L 267.062,0 0,0 0,267.059 Z" />
    </clipPath>
    <clipPath
       id="clipPath4378"
       clipPathUnits="userSpaceOnUse">
      <path
         inkscape:connector-curvature="0"
         id="path4380"
         d="m 0,447.57 447.461,0 L 447.461,0 0,0 0,447.57 Z" />
    </clipPath>
    <clipPath
       id="clipPath4425"
       clipPathUnits="userSpaceOnUse">
      <path
         inkscape:connector-curvature="0"
         id="path4427"
         d="M 0,48 48,48 48,0 0,0 0,48 Z" />
    </clipPath>
    <clipPath
       id="clipPath4445"
       clipPathUnits="userSpaceOnUse">
      <path
         inkscape:connector-curvature="0"
         id="path4447"
         d="M 0,0 48,0 48,48 0,48 0,0 Z" />
    </clipPath>
    <clipPath
       id="clipPath4469"
       clipPathUnits="userSpaceOnUse">
      <path
         inkscape:connector-curvature="0"
         id="path4471"
         d="M 0,48 48,48 48,0 0,0 0,48 Z" />
    </clipPath>
  </defs>
  <sodipodi:namedview
     id="base"
     pagecolor="#ffffff"
     bordercolor="#666666"
     borderopacity="1.0"
     inkscape:pageopacity="0.0"
     inkscape:pageshadow="2"
     inkscape:zoom="1.4"
     inkscape:cx="64.382288"
     inkscape:cy="158.8081"
     inkscape:document-units="px"
     inkscape:current-layer="g3344"
     showgrid="false"
     units="px"
     inkscape:window-width="1366"
     inkscape:window-height="706"
     inkscape:window-x="-8"
     inkscape:window-y="-8"
     inkscape:window-maximized="1"
     fit-margin-top="1"
     fit-margin-left="1.1"
     fit-margin-right="1"
     fit-margin-bottom="1" />
  <metadata
     id="metadata7">
    <rdf:RDF>
      <cc:Work
         rdf:about="">
        <dc:format>image/svg+xml</dc:format>
        <dc:type
           rdf:resource="http://purl.org/dc/dcmitype/StillImage" />
        <dc:title></dc:title>
      </cc:Work>
    </rdf:RDF>
  </metadata>
  <g
     inkscape:label="Layer 1"
     inkscape:groupmode="layer"
     id="layer1"
     transform="translate(-2282.429,-1917.7313)">
    <g
       transform="matrix(1.25,0,0,-1.25,2.9386541,313.78018)"
       inkscape:label="smallwifi"
       id="g3344">
      <g
         transform="translate(1824.4712,-1331.9605)"
         inkscape:label="mobile"
         id="g4419"
         style="fill:#1e0f00;fill-opacity:1">
        <g
           id="g4421"
           style="fill:#1e0f00;fill-opacity:1">
          <g
             clip-path="url(#clipPath4425)"
             id="g4423"
             style="fill:#1e0f00;fill-opacity:1">
            <g
               transform="translate(34.0742,1.6016)"
               id="g4429"
               style="fill:#1e0f00;fill-opacity:1">
              <path
                 inkscape:connector-curvature="0"
                 id="path4431"
                 style="fill:#1e0f00;fill-opacity:1;fill-rule:nonzero;stroke:none"
                 d="m 0,0 -20.152,0 c -1.059,0 -1.922,0.863 -1.922,1.922 l 0,6.078 24,0 0,-6.078 C 1.926,0.863 1.062,0 0,0 m -20.152,44.796 20.152,0 c 1.062,0 1.926,-0.862 1.926,-1.921 l 0,-1.277 -24,0 0,1.277 c 0,1.059 0.863,1.921 1.922,1.921 M -22.074,40 l 24,0 0,-30.403 -24,0 0,30.403 z M 0,46.398 l -20.152,0 c -1.942,0 -3.524,-1.582 -3.524,-3.523 l 0,-40.953 c 0,-1.942 1.582,-3.524 3.524,-3.524 l 20.152,0 c 1.945,0 3.523,1.582 3.523,3.524 l 0,40.953 c 0,1.941 -1.578,3.523 -3.523,3.523" />
            </g>
            <g
               transform="translate(24,4)"
               id="g4433"
               style="fill:#1e0f00;fill-opacity:1">
              <path
                 inkscape:connector-curvature="0"
                 id="path4435"
                 style="fill:#1e0f00;fill-opacity:1;fill-rule:nonzero;stroke:none"
                 d="M 0,0 C -0.883,0 -1.602,0.719 -1.602,1.602 -1.602,2.48 -0.883,3.199 0,3.199 0.883,3.199 1.598,2.48 1.598,1.602 1.598,0.719 0.883,0 0,0 m 0,4.801 c -1.766,0 -3.199,-1.438 -3.199,-3.199 0,-1.766 1.433,-3.204 3.199,-3.204 1.766,0 3.199,1.438 3.199,3.204 0,1.761 -1.433,3.199 -3.199,3.199" />
            </g>
            <g
               transform="translate(20.8008,44)"
               id="g4437"
               style="fill:#1e0f00;fill-opacity:1">
              <path
                 inkscape:connector-curvature="0"
                 id="path4439"
                 style="fill:#1e0f00;fill-opacity:1;fill-rule:nonzero;stroke:none"
                 d="M 0,0 3.199,0 C 3.641,0 4,0.359 4,0.801 4,1.242 3.641,1.602 3.199,1.602 L 0,1.602 c -0.446,0 -0.801,-0.36 -0.801,-0.801 C -0.801,0.359 -0.446,0 0,0" />
            </g>
          </g>
        </g>
        <g
           id="g4441"
           style="fill:#1e0f00;fill-opacity:1">
          <g
             clip-path="url(#clipPath4445)"
             id="g4443"
             style="fill:#1e0f00;fill-opacity:1">
            <g
               transform="translate(26.3984,44)"
               id="g4449"
               style="fill:#1e0f00;fill-opacity:1">
              <path
                 inkscape:connector-curvature="0"
                 id="path4451"
                 style="fill:#1e0f00;fill-opacity:1;fill-rule:nonzero;stroke:none"
                 d="m 0,0 0.801,0 c 0.441,0 0.801,0.359 0.801,0.801 0,0.441 -0.36,0.801 -0.801,0.801 L 0,1.602 c -0.441,0 -0.801,-0.36 -0.801,-0.801 C -0.801,0.359 -0.441,0 0,0" />
            </g>
            <g
               transform="translate(45.2891,44.3438)"
               id="g4453"
               style="fill:#1e0f00;fill-opacity:1">
              <path
                 inkscape:connector-curvature="0"
                 id="path4455"
                 style="fill:#1e0f00;fill-opacity:1;fill-rule:nonzero;stroke:none"
                 d="m 0,0 c -0.312,0.312 -0.82,0.312 -1.133,0 -0.312,-0.312 -0.312,-0.817 0,-1.129 2.988,-2.988 2.988,-7.852 0,-10.844 -0.312,-0.312 -0.312,-0.816 0,-1.129 0.156,-0.156 0.363,-0.234 0.567,-0.234 0.207,0 0.41,0.078 0.566,0.234 3.613,3.61 3.613,9.488 0,13.102" />
            </g>
            <g
               transform="translate(41.9219,42.5229)"
               id="g4457"
               style="fill:#1e0f00;fill-opacity:1">
              <path
                 inkscape:connector-curvature="0"
                 id="path4459"
                 style="fill:#1e0f00;fill-opacity:1;fill-rule:nonzero;stroke:none"
                 d="m 0,0 c -0.316,0.313 -0.82,0.313 -1.133,0 -0.312,-0.312 -0.312,-0.816 0,-1.128 0.988,-0.993 1.535,-2.309 1.535,-3.715 0,-1.403 -0.547,-2.719 -1.535,-3.707 -0.312,-0.313 -0.312,-0.821 0,-1.133 0.156,-0.156 0.36,-0.235 0.567,-0.235 0.203,0 0.41,0.079 0.566,0.235 1.289,1.293 2,3.012 2,4.84 C 2,-3.011 1.289,-1.289 0,0" />
            </g>
            <g
               transform="translate(3.8398,43.2148)"
               id="g4461"
               style="fill:#1e0f00;fill-opacity:1">
              <path
                 inkscape:connector-curvature="0"
                 id="path4463"
                 style="fill:#1e0f00;fill-opacity:1;fill-rule:nonzero;stroke:none"
                 d="m 0,0 c 0.312,0.312 0.312,0.816 0,1.129 -0.313,0.312 -0.817,0.312 -1.129,0 -3.613,-3.614 -3.613,-9.489 0,-13.102 0.156,-0.156 0.359,-0.234 0.562,-0.234 0.207,0 0.411,0.078 0.567,0.234 0.312,0.313 0.312,0.817 0,1.129 C -2.988,-7.856 -2.988,-2.992 0,0" />
            </g>
          </g>
        </g>
        <g
           id="g4465"
           style="fill:#1e0f00;fill-opacity:1">
          <g
             clip-path="url(#clipPath4469)"
             id="g4467"
             style="fill:#1e0f00;fill-opacity:1">
            <g
               transform="translate(7.2109,42.7461)"
               id="g4473"
               style="fill:#1e0f00;fill-opacity:1">
              <path
                 inkscape:connector-curvature="0"
                 id="path4475"
                 style="fill:#1e0f00;fill-opacity:1;fill-rule:nonzero;stroke:none"
                 d="m 0,0 c -0.313,0.313 -0.82,0.313 -1.133,0 -1.293,-1.293 -2.004,-3.012 -2.004,-4.844 0,-1.828 0.711,-3.55 2.004,-4.84 0.156,-0.156 0.36,-0.234 0.567,-0.234 0.203,0 0.41,0.078 0.566,0.234 0.312,0.313 0.312,0.817 0,1.129 -0.992,0.989 -1.535,2.309 -1.535,3.711 0,1.403 0.543,2.723 1.535,3.711 C 0.312,-0.82 0.312,-0.312 0,0" />
            </g>
          </g>
        </g>
      </g>
    </g>
  </g>
</svg>
