<?xml version="1.0" encoding="UTF-8" standalone="no"?>
<!-- Created with Inkscape (http://www.inkscape.org/) -->

<svg
   xmlns:dc="http://purl.org/dc/elements/1.1/"
   xmlns:cc="http://creativecommons.org/ns#"
   xmlns:rdf="http://www.w3.org/1999/02/22-rdf-syntax-ns#"
   xmlns:svg="http://www.w3.org/2000/svg"
   xmlns="http://www.w3.org/2000/svg"
   xmlns:sodipodi="http://sodipodi.sourceforge.net/DTD/sodipodi-0.dtd"
   xmlns:inkscape="http://www.inkscape.org/namespaces/inkscape"
   width="5.0835276mm"
   height="6.5759892mm"
   viewBox="0 0 18.012499 23.300749"
   id="svg2"
   version="1.1"
   inkscape:version="0.91 r13725"
   sodipodi:docname="operator.svg">
  <defs
     id="defs4">
    <clipPath
       id="clipPath4150"
       clipPathUnits="userSpaceOnUse">
      <path
         inkscape:connector-curvature="0"
         id="path4152"
         d="m 0,24.861 24.861,0 L 24.861,0 0,0 0,24.861 Z" />
    </clipPath>
    <clipPath
       id="clipPath4179"
       clipPathUnits="userSpaceOnUse">
      <path
         inkscape:connector-curvature="0"
         id="path4181"
         d="m 0,18.641 14.41,0 L 14.41,0 0,0 0,18.641 Z" />
    </clipPath>
    <clipPath
       id="clipPath4208"
       clipPathUnits="userSpaceOnUse">
      <path
         inkscape:connector-curvature="0"
         id="path4210"
         d="m 0,0 48.96,0 0,49 L 0,49 0,0 Z" />
    </clipPath>
  </defs>
  <sodipodi:namedview
     id="base"
     pagecolor="#ffffff"
     bordercolor="#666666"
     borderopacity="1.0"
     inkscape:pageopacity="0.0"
     inkscape:pageshadow="2"
     inkscape:zoom="0.7"
     inkscape:cx="281.45484"
     inkscape:cy="-304.34863"
     inkscape:document-units="px"
     inkscape:current-layer="layer1"
     showgrid="false"
     fit-margin-top="0"
     fit-margin-left="0"
     fit-margin-right="0"
     fit-margin-bottom="0"
     inkscape:window-width="1366"
     inkscape:window-height="706"
     inkscape:window-x="-8"
     inkscape:window-y="-8"
     inkscape:window-maximized="1" />
  <metadata
     id="metadata7">
    <rdf:RDF>
      <cc:Work
         rdf:about="">
        <dc:format>image/svg+xml</dc:format>
        <dc:type
           rdf:resource="http://purl.org/dc/dcmitype/StillImage" />
        <dc:title></dc:title>
      </cc:Work>
    </rdf:RDF>
  </metadata>
  <g
     inkscape:label="Layer 1"
     inkscape:groupmode="layer"
     id="layer1"
     transform="translate(-196.70803,-574.99755)">
    <g
       transform="matrix(1.25,0,0,-1.25,1024.4619,1053.6147)"
       inkscape:label="значок окей"
       id="g4144">
      <g
         id="g4146">
        <g
           clip-path="url(#clipPath4150)"
           id="g4148">
          <g
             transform="translate(18.1855,15.8711)"
             id="g4154">
            <path
               inkscape:connector-curvature="0"
               id="path4156"
               style="fill:#686460;fill-opacity:1;fill-rule:nonzero;stroke:none"
               d="m 0,0 -5.948,-9.103 -0.008,0 -0.083,-0.145 -0.19,-0.137 -0.045,-0.03 -0.311,-0.129 -0.099,-0.03 -0.265,0 -0.184,0.03 -0.173,0.068 -0.153,0.061 -0.083,0.083 -0.037,0.023 -3.467,3.209 c -0.44,0.404 -0.47,1.093 -0.06,1.535 0.408,0.438 1.091,0.468 1.533,0.058 l 2.511,-2.321 5.241,8.018 c 0.334,0.501 1.002,0.639 1.509,0.313 C 0.189,1.177 0.334,0.502 0,0 m -5.76,8.99 c -6.856,0 -12.426,-5.567 -12.426,-12.427 0,-6.866 5.57,-12.434 12.426,-12.434 6.867,0 12.436,5.568 12.436,12.434 0,6.86 -5.569,12.427 -12.436,12.427" />
          </g>
        </g>
      </g>
    </g>
    <g
       transform="matrix(1.25,0,0,-1.25,196.70803,598.2983)"
       inkscape:label="консультация бесплатня"
       id="g4173"
       style="fill:#ffffff">
      <g
         id="g4175"
         style="fill:#ffffff">
        <g
           clip-path="url(#clipPath4179)"
           id="g4177"
           style="fill:#ffffff">
          <g
             transform="translate(7.207,16.4336)"
             id="g4183"
             style="fill:#ffffff">
            <path
               inkscape:connector-curvature="0"
               id="path4185"
               style="fill:#ffffff;fill-opacity:1;fill-rule:nonzero;stroke:none"
               d="m 0,0 c -2.648,0 -4.832,-2.105 -5.172,-4.828 -0.09,0.102 -0.199,0.188 -0.316,0.254 0.109,3.242 2.519,5.836 5.488,5.836 2.965,0 5.375,-2.594 5.488,-5.836 C 5.367,-4.64 5.262,-4.726 5.168,-4.828 4.828,-2.105 2.648,0 0,0 M 6.336,-4.476 C 6.18,-0.754 3.406,2.207 0,2.207 c -3.41,0 -6.18,-2.961 -6.34,-6.679 -0.5,-0.133 -0.867,-0.582 -0.867,-1.121 l 0,-2.895 c 0,-0.645 0.52,-1.164 1.164,-1.164 0.645,0 1.164,0.519 1.164,1.164 l 0,0.222 c 0.551,-2.562 1.887,-5.879 4.879,-5.879 2.988,0 4.324,3.313 4.875,5.875 l 0,-0.218 c 0,-0.516 0.332,-0.946 0.793,-1.098 -0.031,-0.59 -0.352,-3.687 -3.379,-4.98 -0.187,0.117 -0.422,0.16 -0.648,0.074 l -1.332,-0.492 c -0.387,-0.145 -0.582,-0.575 -0.442,-0.961 0.145,-0.387 0.574,-0.586 0.961,-0.442 l 1.332,0.492 c 0.293,0.106 0.477,0.375 0.488,0.665 3.391,1.5 3.743,5.082 3.774,5.648 0.453,0.156 0.781,0.586 0.781,1.094 l 0,2.895 c 0,0.535 -0.371,0.988 -0.867,1.117" />
          </g>
        </g>
      </g>
    </g>
  </g>
</svg>
