<?xml version="1.0" encoding="UTF-8" standalone="no"?>
<!-- Created with Inkscape (http://www.inkscape.org/) -->

<svg
   xmlns:dc="http://purl.org/dc/elements/1.1/"
   xmlns:cc="http://creativecommons.org/ns#"
   xmlns:rdf="http://www.w3.org/1999/02/22-rdf-syntax-ns#"
   xmlns:svg="http://www.w3.org/2000/svg"
   xmlns="http://www.w3.org/2000/svg"
   xmlns:sodipodi="http://sodipodi.sourceforge.net/DTD/sodipodi-0.dtd"
   xmlns:inkscape="http://www.inkscape.org/namespaces/inkscape"
   id="svg4136"
   version="1.1"
   inkscape:version="0.91 r13725"
   width="1300"
   height="514.32977"
   viewBox="0 0 1300 514.32977"
   sodipodi:docname="phone5.svg">
  <metadata
     id="metadata4142">
    <rdf:RDF>
      <cc:Work
         rdf:about="">
        <dc:format>image/svg+xml</dc:format>
        <dc:type
           rdf:resource="http://purl.org/dc/dcmitype/StillImage" />
        <dc:title />
      </cc:Work>
    </rdf:RDF>
  </metadata>
  <defs
     id="defs4140" />
  <sodipodi:namedview
     pagecolor="#ffffff"
     bordercolor="#666666"
     borderopacity="1"
     objecttolerance="10"
     gridtolerance="10"
     guidetolerance="10"
     inkscape:pageopacity="0"
     inkscape:pageshadow="2"
     inkscape:window-width="1366"
     inkscape:window-height="706"
     id="namedview4138"
     showgrid="false"
     fit-margin-top="0"
     fit-margin-left="0"
     fit-margin-right="0"
     fit-margin-bottom="0"
     inkscape:zoom="0.70384615"
     inkscape:cx="416.99454"
     inkscape:cy="254.15847"
     inkscape:window-x="-8"
     inkscape:window-y="-8"
     inkscape:window-maximized="1"
     inkscape:current-layer="svg4136" />
  <g
     id="g4164"
     transform="translate(0,0.32977909)"
     style="fill:#f1f1f1;fill-opacity:1">
    <path
       style="fill:#f1f1f1;fill-opacity:1"
       d="m 672.75,513.2526 c 7.2875,-0.17086 19.2125,-0.17086 26.5,0 7.2875,0.17086 1.325,0.31066 -13.25,0.31066 -14.575,0 -20.5375,-0.1398 -13.25,-0.31066 z m -387,-1 c 7.2875,-0.17086 19.2125,-0.17086 26.5,0 7.2875,0.17086 1.325,0.31066 -13.25,0.31066 -14.575,0 -20.5375,-0.1398 -13.25,-0.31066 z M 1125.8253,0.25021496 c 24.3788,-0.14911978 63.9788,-0.14906796 88,1.1515e-4 24.0211,0.14918311 4.0747,0.27119021 -44.3253,0.27112687 -48.4,-6.333e-5 -68.0536,-0.12212224 -43.6747,-0.27124202 z"
       id="path4178"
       inkscape:connector-curvature="0" />
    <path
       style="fill:#f1f1f1;fill-opacity:1"
       d="m 724.75,513.2526 c 7.2875,-0.17086 19.2125,-0.17086 26.5,0 7.2875,0.17086 1.325,0.31066 -13.25,0.31066 -14.575,0 -20.5375,-0.1398 -13.25,-0.31066 z m -387,-1 c 7.2875,-0.17086 19.2125,-0.17086 26.5,0 7.2875,0.17086 1.325,0.31066 -13.25,0.31066 -14.575,0 -20.5375,-0.1398 -13.25,-0.31066 z M 951.25,0.25027493 c 24.0625,-0.14921347 63.4375,-0.14921347 87.5,0 24.0625,0.14921346 4.375,0.2712972 -43.75,0.2712972 -48.125,0 -67.8125,-0.12208374 -43.75,-0.2712972 z"
       id="path4176"
       inkscape:connector-curvature="0" />
    <path
       style="fill:#f1f1f1;fill-opacity:1"
       d="m 776.19097,513.25323 c 6.98004,-0.17166 18.68004,-0.17212 26,-10e-4 7.31997,0.17109 1.60903,0.31154 -12.69097,0.31211 -14.3,5.7e-4 -20.28906,-0.13941 -13.30903,-0.31107 z m -387,-1 c 6.98004,-0.17166 18.68004,-0.17212 26,-10e-4 7.31997,0.17109 1.60903,0.31154 -12.69097,0.31211 -14.3,5.7e-4 -20.28906,-0.13941 -13.30903,-0.31107 z M 776.82525,0.25021496 c 24.37889,-0.14911978 63.97889,-0.14906796 88,1.1515e-4 C 888.84636,0.39951322 868.9,0.52152032 820.5,0.52145698 772.1,0.52139365 752.44636,0.39933474 776.82525,0.25021496 Z"
       id="path4174"
       inkscape:connector-curvature="0" />
    <path
       style="fill:#f1f1f1;fill-opacity:1"
       d="m 833.68378,513.25154 c 10.55108,-0.16184 28.10108,-0.16207 39,-5.1e-4 10.89892,0.16156 2.26622,0.29398 -19.18378,0.29426 -21.45,2.9e-4 -30.3673,-0.1319 -19.81622,-0.29375 z m -387,-1 c 10.55108,-0.16184 28.10108,-0.16207 39,-5.1e-4 10.89892,0.16156 2.26622,0.29398 -19.18378,0.29426 -21.45,2.9e-4 -30.3673,-0.1319 -19.81622,-0.29375 z M 537.32781,0.2500986 c 36.2053,-0.14549111 95.1553,-0.14546685 131,5.39e-5 C 704.17251,0.39567325 674.55,0.51471143 602.5,0.51468179 530.45,0.51465214 501.12251,0.39558971 537.32781,0.2500986 Z"
       id="path4172"
       inkscape:connector-curvature="0" />
    <path
       style="fill:#f1f1f1;fill-opacity:1"
       d="m 904.75,513.2526 c 7.2875,-0.17086 19.2125,-0.17086 26.5,0 7.2875,0.17086 1.325,0.31066 -13.25,0.31066 -14.575,0 -20.5375,-0.1398 -13.25,-0.31066 z m -387,-1 c 7.2875,-0.17086 19.2125,-0.17086 26.5,0 7.2875,0.17086 1.325,0.31066 -13.25,0.31066 -14.575,0 -20.5375,-0.1398 -13.25,-0.31066 z M 341.25,0.25027493 c 24.0625,-0.14921347 63.4375,-0.14921347 87.5,0 24.0625,0.14921346 4.375,0.2712972 -43.75,0.2712972 -48.125,0 -67.8125,-0.12208374 -43.75,-0.2712972 z"
       id="path4170"
       inkscape:connector-curvature="0" />
    <path
       style="fill:#f1f1f1;fill-opacity:1"
       d="m 956.19097,513.25323 c 6.98004,-0.17166 18.68004,-0.17212 26,-10e-4 7.31997,0.17109 1.60903,0.31154 -12.69097,0.31211 -14.3,5.7e-4 -20.28906,-0.13941 -13.30903,-0.31107 z m -387,-1 c 6.98004,-0.17166 18.68004,-0.17212 26,-10e-4 7.31997,0.17109 1.60903,0.31154 -12.69097,0.31211 -14.3,5.7e-4 -20.28906,-0.13941 -13.30903,-0.31107 z M 167.25,0.25027493 c 24.0625,-0.14921347 63.4375,-0.14921347 87.5,0 24.0625,0.14921346 4.375,0.2712972 -43.75,0.2712972 -48.125,0 -67.8125,-0.12208374 -43.75,-0.2712972 z"
       id="path4168"
       inkscape:connector-curvature="0" />
    <path
       style="fill:#f1f1f1;fill-opacity:1"
       d="M 777.5,512.94513 C 657.6,512.58681 492.43015,512.22758 410.45588,512.14682 L 261.41176,512 246.54339,486.25 c -8.1776,-14.1625 -18.13102,-31.375 -22.1187,-38.25 -3.98768,-6.875 -18.1508,-31.4 -31.47361,-54.5 -13.32281,-23.1 -27.60218,-47.85 -31.73195,-55 C 157.08937,331.35 150.47112,319.875 146.51192,313 132.31417,288.34617 89.559253,214.27402 83.01922,203 79.350103,196.675 72.711018,185.2 68.265698,177.5 54.265246,153.249 11.971239,79.943378 5.8578974,69.332372 L 0,59.164745 0,29.417483 0,-0.32977909 93.165465,0.33511046 C 144.40647,0.70079971 436.90647,1 743.16546,1 L 1300,1 l 0,30.25 c 0,29.147256 -0.082,30.37759 -2.1434,33.75 -1.7984,2.941841 -37.2402,63.39189 -80.6162,137.5 -5.7946,9.9 -13.3261,22.725 -16.7367,28.5 -3.4106,5.775 -11.0606,18.825 -17,29 -5.9394,10.175 -13.5931,23.225 -17.0084,29 -3.4153,5.775 -7.7756,13.2 -9.6897,16.5 -2.9238,5.0409 -32.812,56.0746 -82.5775,141 -15.747,26.8725 -25.0262,42.67195 -32.7426,55.75 l -6.9327,11.75 -19.5246,-0.20169 C 1004.286,513.68737 897.4,513.30344 777.5,512.94513 Z"
       id="path4166"
       inkscape:connector-curvature="0" />
  </g>
</svg>
