<?xml version="1.0" encoding="UTF-8" standalone="no"?>
<!-- Created with Inkscape (http://www.inkscape.org/) -->

<svg
   xmlns:osb="http://www.openswatchbook.org/uri/2009/osb"
   xmlns:dc="http://purl.org/dc/elements/1.1/"
   xmlns:cc="http://creativecommons.org/ns#"
   xmlns:rdf="http://www.w3.org/1999/02/22-rdf-syntax-ns#"
   xmlns:svg="http://www.w3.org/2000/svg"
   xmlns="http://www.w3.org/2000/svg"
   xmlns:sodipodi="http://sodipodi.sourceforge.net/DTD/sodipodi-0.dtd"
   xmlns:inkscape="http://www.inkscape.org/namespaces/inkscape"
   width="52.528751"
   height="83.762497"
   viewBox="0 0 52.528751 83.762498"
   id="svg2"
   version="1.1"
   inkscape:version="0.91 r13725"
   sodipodi:docname="slideDown.svg">
  <defs
     id="defs4">
    <linearGradient
       id="linearGradient6005"
       osb:paint="solid">
      <stop
         style="stop-color:#1e0f00;stop-opacity:1;"
         offset="0"
         id="stop6007" />
    </linearGradient>
    <clipPath
       id="clipPath3350"
       clipPathUnits="userSpaceOnUse">
      <path
         inkscape:connector-curvature="0"
         id="path3352"
         d="m 0,0 43.92,0 0,32.88 L 0,32.88 0,0 Z" />
    </clipPath>
    <clipPath
       id="clipPath3362"
       clipPathUnits="userSpaceOnUse">
      <path
         inkscape:connector-curvature="0"
         id="path3364"
         d="m 0,32.88 43.926,0 L 43.926,0 0,0 0,32.88 Z" />
    </clipPath>
    <clipPath
       id="clipPath3409"
       clipPathUnits="userSpaceOnUse">
      <path
         inkscape:connector-curvature="0"
         id="path3411"
         d="m 0,261.602 408.801,0 L 408.801,0 0,0 0,261.602 Z" />
    </clipPath>
    <clipPath
       id="clipPath3462"
       clipPathUnits="userSpaceOnUse">
      <path
         inkscape:connector-curvature="0"
         id="path3464"
         d="m 0,267.059 267.062,0 L 267.062,0 0,0 0,267.059 Z" />
    </clipPath>
    <clipPath
       id="clipPath4291"
       clipPathUnits="userSpaceOnUse">
      <path
         inkscape:connector-curvature="0"
         id="path4293"
         d="m 0,0 265.92,0 0,268.799 L 0,268.799 0,0 Z" />
    </clipPath>
    <clipPath
       id="clipPath4349"
       clipPathUnits="userSpaceOnUse">
      <path
         inkscape:connector-curvature="0"
         id="path4351"
         d="m 0,267.059 267.062,0 L 267.062,0 0,0 0,267.059 Z" />
    </clipPath>
    <clipPath
       id="clipPath4378"
       clipPathUnits="userSpaceOnUse">
      <path
         inkscape:connector-curvature="0"
         id="path4380"
         d="m 0,447.57 447.461,0 L 447.461,0 0,0 0,447.57 Z" />
    </clipPath>
    <clipPath
       id="clipPath4425"
       clipPathUnits="userSpaceOnUse">
      <path
         inkscape:connector-curvature="0"
         id="path4427"
         d="M 0,48 48,48 48,0 0,0 0,48 Z" />
    </clipPath>
    <clipPath
       id="clipPath4445"
       clipPathUnits="userSpaceOnUse">
      <path
         inkscape:connector-curvature="0"
         id="path4447"
         d="M 0,0 48,0 48,48 0,48 0,0 Z" />
    </clipPath>
    <clipPath
       id="clipPath4469"
       clipPathUnits="userSpaceOnUse">
      <path
         inkscape:connector-curvature="0"
         id="path4471"
         d="M 0,48 48,48 48,0 0,0 0,48 Z" />
    </clipPath>
    <clipPath
       id="clipPath4520"
       clipPathUnits="userSpaceOnUse">
      <path
         inkscape:connector-curvature="0"
         id="path4522"
         d="m 0,0 46.8,0 0,47.759 -46.8,0 L 0,0 Z" />
    </clipPath>
    <clipPath
       id="clipPath4536"
       clipPathUnits="userSpaceOnUse">
      <path
         inkscape:connector-curvature="0"
         id="path4538"
         d="m 0,47.76 46.8,0 L 46.8,0 0,0 0,47.76 Z" />
    </clipPath>
    <clipPath
       id="clipPath6025"
       clipPathUnits="userSpaceOnUse">
      <path
         inkscape:connector-curvature="0"
         id="path6027"
         d="M 0,44 48,44 48,0 0,0 0,44 Z" />
    </clipPath>
  </defs>
  <sodipodi:namedview
     id="base"
     pagecolor="#ffffff"
     bordercolor="#666666"
     borderopacity="1.0"
     inkscape:pageopacity="0.0"
     inkscape:pageshadow="2"
     inkscape:zoom="1.4"
     inkscape:cx="-162.5824"
     inkscape:cy="168.28991"
     inkscape:document-units="px"
     inkscape:current-layer="g3344"
     showgrid="false"
     units="px"
     inkscape:window-width="1366"
     inkscape:window-height="706"
     inkscape:window-x="-8"
     inkscape:window-y="-8"
     inkscape:window-maximized="1"
     fit-margin-top="1"
     fit-margin-left="1.1"
     fit-margin-right="1"
     fit-margin-bottom="1" />
  <metadata
     id="metadata7">
    <rdf:RDF>
      <cc:Work
         rdf:about="">
        <dc:format>image/svg+xml</dc:format>
        <dc:type
           rdf:resource="http://purl.org/dc/dcmitype/StillImage" />
        <dc:title></dc:title>
      </cc:Work>
    </rdf:RDF>
  </metadata>
  <g
     inkscape:label="Layer 1"
     inkscape:groupmode="layer"
     id="layer1"
     transform="translate(-2790.032,-1991.1644)">
    <g
       transform="matrix(1.25,0,0,-1.25,2.9386541,313.78018)"
       inkscape:label="smallwifi"
       id="g3344">
      <g
         transform="matrix(-1,0,0,1,2270.898,-1408.1176)"
         inkscape:label="sideDown"
         id="g6095"
         style="fill:#ffffff">
        <g
           transform="translate(7.6383,65.4102)"
           id="g6097"
           style="fill:#ffffff">
          <path
             inkscape:connector-curvature="0"
             id="path6099"
             style="fill:#ffffff;fill-opacity:1;fill-rule:nonzero;stroke:none"
             d="M 0,0 -7.638,-7.637 17.43,-32.709 -7.638,-57.774 0,-65.41 32.705,-32.709 0,0 Z" />
        </g>
      </g>
    </g>
  </g>
</svg>
