<?xml version="1.0" encoding="UTF-8" standalone="no"?>
<!-- Created with Inkscape (http://www.inkscape.org/) -->

<svg
   xmlns:dc="http://purl.org/dc/elements/1.1/"
   xmlns:cc="http://creativecommons.org/ns#"
   xmlns:rdf="http://www.w3.org/1999/02/22-rdf-syntax-ns#"
   xmlns:svg="http://www.w3.org/2000/svg"
   xmlns="http://www.w3.org/2000/svg"
   xmlns:sodipodi="http://sodipodi.sourceforge.net/DTD/sodipodi-0.dtd"
   xmlns:inkscape="http://www.inkscape.org/namespaces/inkscape"
   width="55.09449"
   height="40"
   viewBox="0 0 55.09449 40.000001"
   id="svg2"
   version="1.1"
   inkscape:version="0.91 r13725"
   sodipodi:docname="smallwifi.svg">
  <defs
     id="defs4">
    <clipPath
       id="clipPath3350"
       clipPathUnits="userSpaceOnUse">
      <path
         inkscape:connector-curvature="0"
         id="path3352"
         d="m 0,0 43.92,0 0,32.88 L 0,32.88 0,0 Z" />
    </clipPath>
    <clipPath
       id="clipPath3362"
       clipPathUnits="userSpaceOnUse">
      <path
         inkscape:connector-curvature="0"
         id="path3364"
         d="m 0,32.88 43.926,0 L 43.926,0 0,0 0,32.88 Z" />
    </clipPath>
  </defs>
  <sodipodi:namedview
     id="base"
     pagecolor="#ffffff"
     bordercolor="#666666"
     borderopacity="1.0"
     inkscape:pageopacity="0.0"
     inkscape:pageshadow="2"
     inkscape:zoom="7.9195959"
     inkscape:cx="55.997876"
     inkscape:cy="23.117304"
     inkscape:document-units="px"
     inkscape:current-layer="g3344"
     showgrid="false"
     units="px"
     inkscape:window-width="1366"
     inkscape:window-height="706"
     inkscape:window-x="-8"
     inkscape:window-y="-8"
     inkscape:window-maximized="1" />
  <metadata
     id="metadata7">
    <rdf:RDF>
      <cc:Work
         rdf:about="">
        <dc:format>image/svg+xml</dc:format>
        <dc:type
           rdf:resource="http://purl.org/dc/dcmitype/StillImage" />
        <dc:title></dc:title>
      </cc:Work>
    </rdf:RDF>
  </metadata>
  <g
     inkscape:label="Layer 1"
     inkscape:groupmode="layer"
     id="layer1"
     transform="translate(0,-1012.3602)">
    <g
       transform="matrix(1.25,0,0,-1.25,2.9386541,313.78018)"
       inkscape:label="smallwifi"
       id="g3344">
      <g
         id="g3346"
         transform="translate(-2.4243661,-591.54533)">
        <g
           clip-path="url(#clipPath3350)"
           id="g3348">
          <g
             transform="translate(43.6914,23.2759)"
             id="g3354">
            <path
               inkscape:connector-curvature="0"
               id="path3356"
               style="fill:#686460;fill-opacity:1;fill-rule:nonzero;stroke:none"
               d="m 0,0 c -5.793,5.797 -13.512,8.988 -21.727,8.988 -8.218,0 -15.933,-3.191 -21.731,-8.988 -0.312,-0.313 -0.312,-0.817 0,-1.129 0.313,-0.313 0.822,-0.313 1.134,0 5.491,5.492 12.804,8.519 20.597,8.519 7.789,0 15.102,-3.027 20.598,-8.519 0.156,-0.156 0.359,-0.235 0.563,-0.235 0.207,0 0.41,0.079 0.566,0.235 0.312,0.312 0.312,0.82 0,1.129" />
          </g>
        </g>
      </g>
      <g
         id="g3358"
         transform="translate(-2.4243661,-591.54533)">
        <g
           clip-path="url(#clipPath3362)"
           id="g3360">
          <g
             transform="translate(4.938,18.5771)"
             id="g3366">
            <path
               inkscape:connector-curvature="0"
               id="path3368"
               style="fill:#686460;fill-opacity:1;fill-rule:nonzero;stroke:none"
               d="m 0,0 c -0.313,-0.313 -0.313,-0.821 0,-1.133 0.156,-0.157 0.359,-0.235 0.566,-0.235 0.203,0 0.41,0.078 0.562,0.235 8.766,8.765 23.028,8.765 31.793,0 0.313,-0.313 0.817,-0.313 1.129,0 0.313,0.312 0.313,0.82 0,1.133 C 24.664,9.386 9.386,9.386 0,0" />
          </g>
          <g
             transform="translate(21.9648,18.9712)"
             id="g3370">
            <path
               inkscape:connector-curvature="0"
               id="path3372"
               style="fill:#686460;fill-opacity:1;fill-rule:nonzero;stroke:none"
               d="m 0,0 c -4.66,0 -9.039,-1.812 -12.324,-5.098 -0.313,-0.313 -0.313,-0.82 0,-1.132 0.312,-0.313 0.816,-0.313 1.129,0 2.988,2.983 6.96,4.628 11.195,4.628 4.23,0 8.207,-1.645 11.191,-4.628 0.157,-0.157 0.36,-0.235 0.567,-0.235 0.203,0 0.406,0.078 0.562,0.235 0.313,0.312 0.313,0.819 0,1.132 C 9.035,-1.812 4.66,0 0,0" />
          </g>
          <g
             transform="translate(21.9648,2.5605)"
             id="g3374">
            <path
               inkscape:connector-curvature="0"
               id="path3376"
               style="fill:#686460;fill-opacity:1;fill-rule:nonzero;stroke:none"
               d="m 0,0 c -2.008,0 -3.641,1.634 -3.641,3.642 0,2.006 1.633,3.639 3.641,3.639 2.004,0 3.641,-1.633 3.641,-3.639 C 3.641,1.634 2.008,0 0,0 m 0,8.884 c -2.891,0 -5.242,-2.353 -5.242,-5.242 0,-2.892 2.351,-5.244 5.242,-5.244 2.891,0 5.238,2.352 5.238,5.244 0,2.889 -2.347,5.242 -5.238,5.242" />
          </g>
        </g>
      </g>
    </g>
  </g>
</svg>
