<?xml version="1.0" encoding="UTF-8" standalone="no"?>
<!-- Created with Inkscape (http://www.inkscape.org/) -->

<svg
   xmlns:dc="http://purl.org/dc/elements/1.1/"
   xmlns:cc="http://creativecommons.org/ns#"
   xmlns:rdf="http://www.w3.org/1999/02/22-rdf-syntax-ns#"
   xmlns:svg="http://www.w3.org/2000/svg"
   xmlns="http://www.w3.org/2000/svg"
   xmlns:sodipodi="http://sodipodi.sourceforge.net/DTD/sodipodi-0.dtd"
   xmlns:inkscape="http://www.inkscape.org/namespaces/inkscape"
   width="561.42627"
   height="561.46228"
   viewBox="0 0 561.42627 561.4623"
   id="svg2"
   version="1.1"
   inkscape:version="0.91 r13725"
   sodipodi:docname="smile.svg">
  <defs
     id="defs4">
    <clipPath
       id="clipPath3350"
       clipPathUnits="userSpaceOnUse">
      <path
         inkscape:connector-curvature="0"
         id="path3352"
         d="m 0,0 43.92,0 0,32.88 L 0,32.88 0,0 Z" />
    </clipPath>
    <clipPath
       id="clipPath3362"
       clipPathUnits="userSpaceOnUse">
      <path
         inkscape:connector-curvature="0"
         id="path3364"
         d="m 0,32.88 43.926,0 L 43.926,0 0,0 0,32.88 Z" />
    </clipPath>
    <clipPath
       id="clipPath3409"
       clipPathUnits="userSpaceOnUse">
      <path
         inkscape:connector-curvature="0"
         id="path3411"
         d="m 0,261.602 408.801,0 L 408.801,0 0,0 0,261.602 Z" />
    </clipPath>
    <clipPath
       id="clipPath3462"
       clipPathUnits="userSpaceOnUse">
      <path
         inkscape:connector-curvature="0"
         id="path3464"
         d="m 0,267.059 267.062,0 L 267.062,0 0,0 0,267.059 Z" />
    </clipPath>
    <clipPath
       id="clipPath4291"
       clipPathUnits="userSpaceOnUse">
      <path
         inkscape:connector-curvature="0"
         id="path4293"
         d="m 0,0 265.92,0 0,268.799 L 0,268.799 0,0 Z" />
    </clipPath>
    <clipPath
       id="clipPath4349"
       clipPathUnits="userSpaceOnUse">
      <path
         inkscape:connector-curvature="0"
         id="path4351"
         d="m 0,267.059 267.062,0 L 267.062,0 0,0 0,267.059 Z" />
    </clipPath>
    <clipPath
       id="clipPath4378"
       clipPathUnits="userSpaceOnUse">
      <path
         inkscape:connector-curvature="0"
         id="path4380"
         d="m 0,447.57 447.461,0 L 447.461,0 0,0 0,447.57 Z" />
    </clipPath>
  </defs>
  <sodipodi:namedview
     id="base"
     pagecolor="#ffffff"
     bordercolor="#666666"
     borderopacity="1.0"
     inkscape:pageopacity="0.0"
     inkscape:pageshadow="2"
     inkscape:zoom="0.49497475"
     inkscape:cx="924.42843"
     inkscape:cy="378.38546"
     inkscape:document-units="px"
     inkscape:current-layer="g3344"
     showgrid="false"
     units="px"
     inkscape:window-width="1366"
     inkscape:window-height="706"
     inkscape:window-x="-8"
     inkscape:window-y="-8"
     inkscape:window-maximized="1"
     fit-margin-top="1"
     fit-margin-left="1.1"
     fit-margin-right="1"
     fit-margin-bottom="1" />
  <metadata
     id="metadata7">
    <rdf:RDF>
      <cc:Work
         rdf:about="">
        <dc:format>image/svg+xml</dc:format>
        <dc:type
           rdf:resource="http://purl.org/dc/dcmitype/StillImage" />
        <dc:title></dc:title>
      </cc:Work>
    </rdf:RDF>
  </metadata>
  <g
     inkscape:label="Layer 1"
     inkscape:groupmode="layer"
     id="layer1"
     transform="translate(-1473.0807,-1401.4109)">
    <g
       transform="matrix(1.25,0,0,-1.25,2.9386541,313.78018)"
       inkscape:label="smallwifi"
       id="g3344">
      <g
         transform="translate(1176.9936,-1318.4746)"
         inkscape:label="smile"
         id="g4372"
         style="fill:#18b5fa;fill-opacity:1">
        <g
           id="g4374"
           style="fill:#18b5fa;fill-opacity:1">
          <g
             clip-path="url(#clipPath4378)"
             id="g4376"
             style="fill:#18b5fa;fill-opacity:1">
            <g
               transform="translate(251.6797,104.3555)"
               id="g4382"
               style="fill:#18b5fa;fill-opacity:1">
              <path
                 inkscape:connector-curvature="0"
                 id="path4384"
                 style="fill:#18b5fa;fill-opacity:1;fill-rule:nonzero;stroke:none"
                 d="m 0,0 -38.782,0 c -49.519,0 -88.323,38.172 -88.323,86.906 0,5.949 4.827,10.778 10.773,10.778 5.949,0 10.777,-4.829 10.777,-10.778 0,-36.648 29.328,-65.351 66.773,-65.351 l 38.782,0 c 37.445,0 66.773,28.07 66.773,63.91 0,5.953 4.821,10.773 10.774,10.773 5.949,0 10.773,-4.82 10.773,-10.773 C 88.324,37.538 49.52,0 0,0" />
            </g>
            <g
               transform="translate(181.7109,283.6602)"
               id="g4386"
               style="fill:#18b5fa;fill-opacity:1">
              <path
                 inkscape:connector-curvature="0"
                 id="path4388"
                 style="fill:#18b5fa;fill-opacity:1;fill-rule:nonzero;stroke:none"
                 d="m 0,0 c -2.758,0 -5.52,1.055 -7.621,3.16 -10.215,10.207 -27.09,10.574 -36.887,0.781 -4.211,-4.207 -11.027,-4.207 -15.234,0 -4.211,4.211 -4.211,11.036 0,15.243 18.043,18.047 48.886,17.695 67.355,-0.789 4.211,-4.204 4.211,-11.032 0,-15.235 C 5.508,1.055 2.75,0 0,0" />
            </g>
            <g
               transform="translate(328.2656,283.6602)"
               id="g4390"
               style="fill:#18b5fa;fill-opacity:1">
              <path
                 inkscape:connector-curvature="0"
                 id="path4392"
                 style="fill:#18b5fa;fill-opacity:1;fill-rule:nonzero;stroke:none"
                 d="m 0,0 c -2.758,0 -5.516,1.055 -7.621,3.16 -10.215,10.207 -27.086,10.574 -36.883,0.781 -4.203,-4.207 -11.027,-4.207 -15.238,0 -4.199,4.211 -4.199,11.036 0,15.243 18.047,18.047 48.89,17.695 67.355,-0.789 4.211,-4.204 4.211,-11.032 0,-15.235 C 5.512,1.055 2.758,0 0,0" />
            </g>
            <g
               transform="translate(223.73,426.0122)"
               id="g4394"
               style="fill:#18b5fa;fill-opacity:1">
              <path
                 inkscape:connector-curvature="0"
                 id="path4396"
                 style="fill:#18b5fa;fill-opacity:1;fill-rule:nonzero;stroke:none"
                 d="m 0,0 c -111.48,0 -202.183,-90.719 -202.183,-202.231 0,-111.513 90.703,-202.234 202.183,-202.234 111.489,0 202.184,90.721 202.184,202.234 C 202.184,-90.719 111.481,0 0,0 m 0,-426.012 c -123.367,0 -223.73,100.39 -223.73,223.781 0,123.399 100.355,223.789 223.73,223.789 123.364,0 223.731,-100.39 223.731,-223.789 C 223.727,-325.622 123.356,-426.012 0,-426.012" />
            </g>
          </g>
        </g>
      </g>
    </g>
  </g>
</svg>
