<?xml version="1.0" encoding="UTF-8" standalone="no"?>
<!-- Created with Inkscape (http://www.inkscape.org/) -->

<svg
   xmlns:dc="http://purl.org/dc/elements/1.1/"
   xmlns:cc="http://creativecommons.org/ns#"
   xmlns:rdf="http://www.w3.org/1999/02/22-rdf-syntax-ns#"
   xmlns:svg="http://www.w3.org/2000/svg"
   xmlns="http://www.w3.org/2000/svg"
   xmlns:sodipodi="http://sodipodi.sourceforge.net/DTD/sodipodi-0.dtd"
   xmlns:inkscape="http://www.inkscape.org/namespaces/inkscape"
   width="14.053915mm"
   height="13.503275mm"
   viewBox="0 0 49.797337 47.846249"
   id="svg2"
   version="1.1"
   inkscape:version="0.91 r13725"
   sodipodi:docname="star.svg">
  <defs
     id="defs4">
    <clipPath
       id="clipPath4150"
       clipPathUnits="userSpaceOnUse">
      <path
         inkscape:connector-curvature="0"
         id="path4152"
         d="m 0,0 26.88,0 0,21.839 L 0,21.839 0,0 Z" />
    </clipPath>
    <clipPath
       id="clipPath4150-6"
       clipPathUnits="userSpaceOnUse">
      <path
         inkscape:connector-curvature="0"
         id="path4152-0"
         d="m 0,0 26.88,0 0,21.839 L 0,21.839 0,0 Z" />
    </clipPath>
    <clipPath
       id="clipPath4231"
       clipPathUnits="userSpaceOnUse">
      <path
         inkscape:connector-curvature="0"
         id="path4233"
         d="m 0,47.211 32.785,0 L 32.785,0 0,0 0,47.211 Z" />
    </clipPath>
    <clipPath
       id="clipPath4260"
       clipPathUnits="userSpaceOnUse">
      <path
         inkscape:connector-curvature="0"
         id="path4262"
         d="m 0,0 39.839,0 0,39.839 L 0,39.839 0,0 Z" />
    </clipPath>
  </defs>
  <sodipodi:namedview
     id="base"
     pagecolor="#ffffff"
     bordercolor="#666666"
     borderopacity="1.0"
     inkscape:pageopacity="0.0"
     inkscape:pageshadow="2"
     inkscape:zoom="7.9195959"
     inkscape:cx="-20.420899"
     inkscape:cy="46.657564"
     inkscape:document-units="px"
     inkscape:current-layer="g4144"
     showgrid="false"
     fit-margin-top="0"
     fit-margin-left="0"
     fit-margin-right="0"
     fit-margin-bottom="0"
     inkscape:window-width="1366"
     inkscape:window-height="706"
     inkscape:window-x="-8"
     inkscape:window-y="-8"
     inkscape:window-maximized="1" />
  <metadata
     id="metadata7">
    <rdf:RDF>
      <cc:Work
         rdf:about="">
        <dc:format>image/svg+xml</dc:format>
        <dc:type
           rdf:resource="http://purl.org/dc/dcmitype/StillImage" />
        <dc:title></dc:title>
      </cc:Work>
    </rdf:RDF>
  </metadata>
  <g
     inkscape:label="Layer 1"
     inkscape:groupmode="layer"
     id="layer1"
     transform="translate(-409.69444,-433.96117)">
    <g
       transform="matrix(-1.25,0,0,-1.25,371.04705,390.94034)"
       inkscape:label="стрелки"
       id="g4144">
      <g
         transform="matrix(-1,0,0,1,-30.916784,-73.653468)"
         inkscape:label="звезда"
         id="g4254"
         style="fill:#000000">
        <g
           id="g4256"
           style="fill:#000000">
          <g
             clip-path="url(#clipPath4260)"
             id="g4258"
             style="fill:#000000">
            <g
               transform="translate(30.1445,13.6748)"
               id="g4264"
               style="fill:#000000">
              <path
                 inkscape:connector-curvature="0"
                 id="path4266"
                 style="fill:#000000;fill-opacity:1;fill-rule:nonzero;stroke:none"
                 d="m 0,0 1.652,-9.633 c 0.082,-0.485 -0.105,-0.945 -0.504,-1.238 -0.398,-0.289 -0.894,-0.324 -1.332,-0.094 l -8.652,4.547 c -0.414,0.218 -0.875,0.328 -1.331,0.328 -0.458,0 -0.918,-0.11 -1.336,-0.328 l -8.649,-4.547 c -0.437,-0.23 -0.933,-0.195 -1.332,0.094 -0.399,0.293 -0.586,0.753 -0.504,1.238 L -20.335,0 c 0.159,0.929 -0.149,1.879 -0.826,2.539 l -7,6.82 c -0.351,0.344 -0.472,0.832 -0.319,1.297 0.151,0.469 0.535,0.793 1.02,0.863 l 9.674,1.406 c 0.934,0.133 1.74,0.719 2.158,1.567 l 4.323,8.765 c 0.22,0.442 0.644,0.704 1.138,0.704 0.491,0 0.913,-0.262 1.132,-0.704 l 4.328,-8.765 c 0.414,-0.848 1.223,-1.434 2.156,-1.567 L 7.121,11.519 C 7.609,11.449 7.992,11.125 8.141,10.656 8.293,10.191 8.176,9.703 7.824,9.359 l -7,-6.82 C 0.148,1.879 -0.16,0.934 0,0 m 8.941,8.215 c 0.786,0.765 1.063,1.89 0.723,2.937 -0.34,1.047 -1.226,1.793 -2.312,1.949 l -9.676,1.406 c -0.41,0.059 -0.766,0.321 -0.949,0.692 l -4.325,8.766 c -0.488,0.984 -1.472,1.597 -2.569,1.597 -1.099,0 -2.083,-0.613 -2.571,-1.597 l -4.324,-8.766 c -0.185,-0.371 -0.543,-0.633 -0.954,-0.692 l -9.675,-1.406 c -1.086,-0.156 -1.974,-0.902 -2.312,-1.949 -0.336,-1.047 -0.059,-2.172 0.726,-2.937 l 7,-6.82 c 0.297,-0.293 0.433,-0.711 0.362,-1.122 l -1.651,-9.637 c -0.184,-1.081 0.25,-2.152 1.14,-2.8 0.886,-0.645 2.043,-0.731 3.015,-0.219 l 8.653,4.551 c 0.367,0.191 0.809,0.191 1.18,0 l 8.648,-4.551 c 0.426,-0.222 0.883,-0.332 1.336,-0.332 0.594,0 1.18,0.188 1.684,0.551 0.887,0.648 1.324,1.719 1.14,2.8 L 1.574,0.273 c -0.07,0.411 0.067,0.829 0.367,1.118 l 7,6.824 z" />
            </g>
          </g>
        </g>
      </g>
    </g>
  </g>
</svg>
