<?xml version="1.0" encoding="UTF-8" standalone="no"?>
<!-- Created with Inkscape (http://www.inkscape.org/) -->

<svg
   xmlns:dc="http://purl.org/dc/elements/1.1/"
   xmlns:cc="http://creativecommons.org/ns#"
   xmlns:rdf="http://www.w3.org/1999/02/22-rdf-syntax-ns#"
   xmlns:svg="http://www.w3.org/2000/svg"
   xmlns="http://www.w3.org/2000/svg"
   xmlns:sodipodi="http://sodipodi.sourceforge.net/DTD/sodipodi-0.dtd"
   xmlns:inkscape="http://www.inkscape.org/namespaces/inkscape"
   width="15.494mm"
   height="11.043849mm"
   viewBox="0 0 54.900002 39.131748"
   id="svg2"
   version="1.1"
   inkscape:version="0.91 r13725"
   sodipodi:docname="wifi3.svg">
  <defs
     id="defs4">
    <clipPath
       id="clipPath4150"
       clipPathUnits="userSpaceOnUse">
      <path
         inkscape:connector-curvature="0"
         id="path4152"
         d="m 0,0 26.88,0 0,21.839 L 0,21.839 0,0 Z" />
    </clipPath>
    <clipPath
       id="clipPath4150-6"
       clipPathUnits="userSpaceOnUse">
      <path
         inkscape:connector-curvature="0"
         id="path4152-0"
         d="m 0,0 26.88,0 0,21.839 L 0,21.839 0,0 Z" />
    </clipPath>
    <clipPath
       id="clipPath4231"
       clipPathUnits="userSpaceOnUse">
      <path
         inkscape:connector-curvature="0"
         id="path4233"
         d="m 0,47.211 32.785,0 L 32.785,0 0,0 0,47.211 Z" />
    </clipPath>
    <clipPath
       id="clipPath4260"
       clipPathUnits="userSpaceOnUse">
      <path
         inkscape:connector-curvature="0"
         id="path4262"
         d="m 0,0 39.839,0 0,39.839 L 0,39.839 0,0 Z" />
    </clipPath>
    <clipPath
       id="clipPath4289"
       clipPathUnits="userSpaceOnUse">
      <path
         inkscape:connector-curvature="0"
         id="path4291"
         d="m 0,0 43.92,0 0,32.88 L 0,32.88 0,0 Z" />
    </clipPath>
    <clipPath
       id="clipPath4301"
       clipPathUnits="userSpaceOnUse">
      <path
         inkscape:connector-curvature="0"
         id="path4303"
         d="m 0,32.88 43.926,0 L 43.926,0 0,0 0,32.88 Z" />
    </clipPath>
  </defs>
  <sodipodi:namedview
     id="base"
     pagecolor="#ffffff"
     bordercolor="#666666"
     borderopacity="1.0"
     inkscape:pageopacity="0.0"
     inkscape:pageshadow="2"
     inkscape:zoom="7.9195959"
     inkscape:cx="-22.896668"
     inkscape:cy="41.60097"
     inkscape:document-units="px"
     inkscape:current-layer="g4144"
     showgrid="false"
     fit-margin-top="0"
     fit-margin-left="0"
     fit-margin-right="0"
     fit-margin-bottom="0"
     inkscape:window-width="1366"
     inkscape:window-height="706"
     inkscape:window-x="-8"
     inkscape:window-y="-8"
     inkscape:window-maximized="1" />
  <metadata
     id="metadata7">
    <rdf:RDF>
      <cc:Work
         rdf:about="">
        <dc:format>image/svg+xml</dc:format>
        <dc:type
           rdf:resource="http://purl.org/dc/dcmitype/StillImage" />
        <dc:title></dc:title>
      </cc:Work>
    </rdf:RDF>
  </metadata>
  <g
     inkscape:label="Layer 1"
     inkscape:groupmode="layer"
     id="layer1"
     transform="translate(-412.17021,-437.61908)">
    <g
       transform="matrix(-1.25,0,0,-1.25,371.04705,390.94034)"
       inkscape:label="стрелки"
       id="g4144">
      <g
         transform="matrix(-1,0,0,1,-32.898527,-69.606889)"
         inkscape:label="вафля"
         id="g4283"
         style="fill:#000000">
        <g
           id="g4285"
           style="fill:#000000">
          <g
             clip-path="url(#clipPath4289)"
             id="g4287"
             style="fill:#000000">
            <g
               transform="translate(43.6914,23.2759)"
               id="g4293"
               style="fill:#000000">
              <path
                 inkscape:connector-curvature="0"
                 id="path4295"
                 style="fill:#000000;fill-opacity:1;fill-rule:nonzero;stroke:none"
                 d="m 0,0 c -5.793,5.797 -13.512,8.988 -21.727,8.988 -8.218,0 -15.933,-3.191 -21.731,-8.988 -0.312,-0.313 -0.312,-0.817 0,-1.129 0.313,-0.313 0.822,-0.313 1.134,0 5.491,5.492 12.804,8.519 20.597,8.519 7.789,0 15.102,-3.027 20.598,-8.519 0.156,-0.156 0.359,-0.235 0.563,-0.235 0.207,0 0.41,0.079 0.566,0.235 0.312,0.312 0.312,0.82 0,1.129" />
            </g>
          </g>
        </g>
        <g
           id="g4297"
           style="fill:#000000">
          <g
             clip-path="url(#clipPath4301)"
             id="g4299"
             style="fill:#000000">
            <g
               transform="translate(4.938,18.5771)"
               id="g4305"
               style="fill:#000000">
              <path
                 inkscape:connector-curvature="0"
                 id="path4307"
                 style="fill:#000000;fill-opacity:1;fill-rule:nonzero;stroke:none"
                 d="m 0,0 c -0.313,-0.313 -0.313,-0.821 0,-1.133 0.156,-0.157 0.359,-0.235 0.566,-0.235 0.203,0 0.41,0.078 0.562,0.235 8.766,8.765 23.028,8.765 31.793,0 0.313,-0.313 0.817,-0.313 1.129,0 0.313,0.312 0.313,0.82 0,1.133 C 24.664,9.386 9.386,9.386 0,0" />
            </g>
            <g
               transform="translate(21.9648,18.9712)"
               id="g4309"
               style="fill:#000000">
              <path
                 inkscape:connector-curvature="0"
                 id="path4311"
                 style="fill:#000000;fill-opacity:1;fill-rule:nonzero;stroke:none"
                 d="m 0,0 c -4.66,0 -9.039,-1.812 -12.324,-5.098 -0.313,-0.313 -0.313,-0.82 0,-1.132 0.312,-0.313 0.816,-0.313 1.129,0 2.988,2.983 6.96,4.628 11.195,4.628 4.23,0 8.207,-1.645 11.191,-4.628 0.157,-0.157 0.36,-0.235 0.567,-0.235 0.203,0 0.406,0.078 0.562,0.235 0.313,0.312 0.313,0.819 0,1.132 C 9.035,-1.812 4.66,0 0,0" />
            </g>
            <g
               transform="translate(21.9648,2.5605)"
               id="g4313"
               style="fill:#000000">
              <path
                 inkscape:connector-curvature="0"
                 id="path4315"
                 style="fill:#000000;fill-opacity:1;fill-rule:nonzero;stroke:none"
                 d="m 0,0 c -2.008,0 -3.641,1.634 -3.641,3.642 0,2.006 1.633,3.639 3.641,3.639 2.004,0 3.641,-1.633 3.641,-3.639 C 3.641,1.634 2.008,0 0,0 m 0,8.884 c -2.891,0 -5.242,-2.353 -5.242,-5.242 0,-2.892 2.351,-5.244 5.242,-5.244 2.891,0 5.238,2.352 5.238,5.244 0,2.889 -2.347,5.242 -5.238,5.242" />
            </g>
          </g>
        </g>
      </g>
    </g>
  </g>
</svg>
